G04 #@! TF.FileFunction,Legend,Top*
%FSLAX46Y46*%
G04 Gerber Fmt 4.6, Leading zero omitted, Abs format (unit mm)*
G04 Created by KiCad (PCBNEW 4.0.1-3.201512221402+6198~38~ubuntu15.04.1-stable) date Sun 03 Jan 2016 10:59:58 AM EST*
%MOMM*%
G01*
G04 APERTURE LIST*
%ADD10C,0.100000*%
%ADD11C,0.150000*%
%ADD12C,0.300000*%
%ADD13C,0.200000*%
%ADD14C,0.304800*%
G04 APERTURE END LIST*
D10*
D11*
X114569048Y-114971429D02*
X115330953Y-114971429D01*
X114950001Y-115352381D02*
X114950001Y-114590476D01*
X136150000Y-131128571D02*
X135388095Y-131128571D01*
X135769047Y-130747619D02*
X135769047Y-131509524D01*
X134911905Y-131128571D02*
X134150000Y-131128571D01*
X140250000Y-138621429D02*
X141011905Y-138621429D01*
X140630953Y-139002381D02*
X140630953Y-138240476D01*
X141488095Y-138621429D02*
X142250000Y-138621429D01*
X147750000Y-138378571D02*
X146988095Y-138378571D01*
X147369047Y-137997619D02*
X147369047Y-138759524D01*
X146511905Y-138378571D02*
X145750000Y-138378571D01*
X175014286Y-132654762D02*
X175157143Y-132702381D01*
X175395239Y-132702381D01*
X175490477Y-132654762D01*
X175538096Y-132607143D01*
X175585715Y-132511905D01*
X175585715Y-132416667D01*
X175538096Y-132321429D01*
X175490477Y-132273810D01*
X175395239Y-132226190D01*
X175204762Y-132178571D01*
X175109524Y-132130952D01*
X175061905Y-132083333D01*
X175014286Y-131988095D01*
X175014286Y-131892857D01*
X175061905Y-131797619D01*
X175109524Y-131750000D01*
X175204762Y-131702381D01*
X175442858Y-131702381D01*
X175585715Y-131750000D01*
X176266667Y-131702381D02*
X176600000Y-132702381D01*
X176933334Y-131702381D01*
X178111905Y-131750000D02*
X178016667Y-131702381D01*
X177873810Y-131702381D01*
X177730952Y-131750000D01*
X177635714Y-131845238D01*
X177588095Y-131940476D01*
X177540476Y-132130952D01*
X177540476Y-132273810D01*
X177588095Y-132464286D01*
X177635714Y-132559524D01*
X177730952Y-132654762D01*
X177873810Y-132702381D01*
X177969048Y-132702381D01*
X178111905Y-132654762D01*
X178159524Y-132607143D01*
X178159524Y-132273810D01*
X177969048Y-132273810D01*
X162564286Y-106604762D02*
X162707143Y-106652381D01*
X162945239Y-106652381D01*
X163040477Y-106604762D01*
X163088096Y-106557143D01*
X163135715Y-106461905D01*
X163135715Y-106366667D01*
X163088096Y-106271429D01*
X163040477Y-106223810D01*
X162945239Y-106176190D01*
X162754762Y-106128571D01*
X162659524Y-106080952D01*
X162611905Y-106033333D01*
X162564286Y-105938095D01*
X162564286Y-105842857D01*
X162611905Y-105747619D01*
X162659524Y-105700000D01*
X162754762Y-105652381D01*
X162992858Y-105652381D01*
X163135715Y-105700000D01*
X161761905Y-105700000D02*
X161666667Y-105652381D01*
X161523810Y-105652381D01*
X161380952Y-105700000D01*
X161285714Y-105795238D01*
X161238095Y-105890476D01*
X161190476Y-106080952D01*
X161190476Y-106223810D01*
X161238095Y-106414286D01*
X161285714Y-106509524D01*
X161380952Y-106604762D01*
X161523810Y-106652381D01*
X161619048Y-106652381D01*
X161761905Y-106604762D01*
X161809524Y-106557143D01*
X161809524Y-106223810D01*
X161619048Y-106223810D01*
X127714286Y-108404762D02*
X127857143Y-108452381D01*
X128095239Y-108452381D01*
X128190477Y-108404762D01*
X128238096Y-108357143D01*
X128285715Y-108261905D01*
X128285715Y-108166667D01*
X128238096Y-108071429D01*
X128190477Y-108023810D01*
X128095239Y-107976190D01*
X127904762Y-107928571D01*
X127809524Y-107880952D01*
X127761905Y-107833333D01*
X127714286Y-107738095D01*
X127714286Y-107642857D01*
X127761905Y-107547619D01*
X127809524Y-107500000D01*
X127904762Y-107452381D01*
X128142858Y-107452381D01*
X128285715Y-107500000D01*
X127666667Y-104952381D02*
X128000000Y-105952381D01*
X128333334Y-104952381D01*
X128261905Y-102450000D02*
X128166667Y-102402381D01*
X128023810Y-102402381D01*
X127880952Y-102450000D01*
X127785714Y-102545238D01*
X127738095Y-102640476D01*
X127690476Y-102830952D01*
X127690476Y-102973810D01*
X127738095Y-103164286D01*
X127785714Y-103259524D01*
X127880952Y-103354762D01*
X128023810Y-103402381D01*
X128119048Y-103402381D01*
X128261905Y-103354762D01*
X128309524Y-103307143D01*
X128309524Y-102973810D01*
X128119048Y-102973810D01*
X113371429Y-109278571D02*
X113514286Y-109326190D01*
X113561905Y-109373810D01*
X113609524Y-109469048D01*
X113609524Y-109611905D01*
X113561905Y-109707143D01*
X113514286Y-109754762D01*
X113419048Y-109802381D01*
X113038095Y-109802381D01*
X113038095Y-108802381D01*
X113371429Y-108802381D01*
X113466667Y-108850000D01*
X113514286Y-108897619D01*
X113561905Y-108992857D01*
X113561905Y-109088095D01*
X113514286Y-109183333D01*
X113466667Y-109230952D01*
X113371429Y-109278571D01*
X113038095Y-109278571D01*
X114466667Y-109135714D02*
X114466667Y-109802381D01*
X114038095Y-109135714D02*
X114038095Y-109659524D01*
X114085714Y-109754762D01*
X114180952Y-109802381D01*
X114323810Y-109802381D01*
X114419048Y-109754762D01*
X114466667Y-109707143D01*
X114895238Y-109754762D02*
X114990476Y-109802381D01*
X115180952Y-109802381D01*
X115276191Y-109754762D01*
X115323810Y-109659524D01*
X115323810Y-109611905D01*
X115276191Y-109516667D01*
X115180952Y-109469048D01*
X115038095Y-109469048D01*
X114942857Y-109421429D01*
X114895238Y-109326190D01*
X114895238Y-109278571D01*
X114942857Y-109183333D01*
X115038095Y-109135714D01*
X115180952Y-109135714D01*
X115276191Y-109183333D01*
X116466667Y-109754762D02*
X116609524Y-109802381D01*
X116847620Y-109802381D01*
X116942858Y-109754762D01*
X116990477Y-109707143D01*
X117038096Y-109611905D01*
X117038096Y-109516667D01*
X116990477Y-109421429D01*
X116942858Y-109373810D01*
X116847620Y-109326190D01*
X116657143Y-109278571D01*
X116561905Y-109230952D01*
X116514286Y-109183333D01*
X116466667Y-109088095D01*
X116466667Y-108992857D01*
X116514286Y-108897619D01*
X116561905Y-108850000D01*
X116657143Y-108802381D01*
X116895239Y-108802381D01*
X117038096Y-108850000D01*
X117371429Y-109135714D02*
X117561905Y-109802381D01*
X117752382Y-109326190D01*
X117942858Y-109802381D01*
X118133334Y-109135714D01*
X118514286Y-109802381D02*
X118514286Y-109135714D01*
X118514286Y-108802381D02*
X118466667Y-108850000D01*
X118514286Y-108897619D01*
X118561905Y-108850000D01*
X118514286Y-108802381D01*
X118514286Y-108897619D01*
X118847619Y-109135714D02*
X119228571Y-109135714D01*
X118990476Y-108802381D02*
X118990476Y-109659524D01*
X119038095Y-109754762D01*
X119133333Y-109802381D01*
X119228571Y-109802381D01*
X119990477Y-109754762D02*
X119895239Y-109802381D01*
X119704762Y-109802381D01*
X119609524Y-109754762D01*
X119561905Y-109707143D01*
X119514286Y-109611905D01*
X119514286Y-109326190D01*
X119561905Y-109230952D01*
X119609524Y-109183333D01*
X119704762Y-109135714D01*
X119895239Y-109135714D01*
X119990477Y-109183333D01*
X120419048Y-109802381D02*
X120419048Y-108802381D01*
X120847620Y-109802381D02*
X120847620Y-109278571D01*
X120800001Y-109183333D01*
X120704763Y-109135714D01*
X120561905Y-109135714D01*
X120466667Y-109183333D01*
X120419048Y-109230952D01*
D12*
X101907143Y-114521428D02*
X101907143Y-113378571D01*
X102478571Y-113950000D02*
X101335714Y-113950000D01*
X101857143Y-109571428D02*
X101857143Y-108428571D01*
D13*
X152123810Y-126702381D02*
X152123810Y-127416667D01*
X152076190Y-127559524D01*
X151980952Y-127654762D01*
X151838095Y-127702381D01*
X151742857Y-127702381D01*
X152742857Y-127702381D02*
X152647619Y-127654762D01*
X152600000Y-127607143D01*
X152552381Y-127511905D01*
X152552381Y-127226190D01*
X152600000Y-127130952D01*
X152647619Y-127083333D01*
X152742857Y-127035714D01*
X152885715Y-127035714D01*
X152980953Y-127083333D01*
X153028572Y-127130952D01*
X153076191Y-127226190D01*
X153076191Y-127511905D01*
X153028572Y-127607143D01*
X152980953Y-127654762D01*
X152885715Y-127702381D01*
X152742857Y-127702381D01*
X153504762Y-127035714D02*
X153504762Y-127702381D01*
X153504762Y-127130952D02*
X153552381Y-127083333D01*
X153647619Y-127035714D01*
X153790477Y-127035714D01*
X153885715Y-127083333D01*
X153933334Y-127178571D01*
X153933334Y-127702381D01*
X155980953Y-127702381D02*
X155933334Y-127702381D01*
X155838096Y-127654762D01*
X155695239Y-127511905D01*
X155457144Y-127226190D01*
X155361905Y-127083333D01*
X155314286Y-126940476D01*
X155314286Y-126845238D01*
X155361905Y-126750000D01*
X155457144Y-126702381D01*
X155504763Y-126702381D01*
X155600001Y-126750000D01*
X155647620Y-126845238D01*
X155647620Y-126892857D01*
X155600001Y-126988095D01*
X155552382Y-127035714D01*
X155266667Y-127226190D01*
X155219048Y-127273810D01*
X155171429Y-127369048D01*
X155171429Y-127511905D01*
X155219048Y-127607143D01*
X155266667Y-127654762D01*
X155361905Y-127702381D01*
X155504763Y-127702381D01*
X155600001Y-127654762D01*
X155647620Y-127607143D01*
X155790477Y-127416667D01*
X155838096Y-127273810D01*
X155838096Y-127178571D01*
X157171429Y-127702381D02*
X157171429Y-126702381D01*
X157409524Y-126702381D01*
X157552382Y-126750000D01*
X157647620Y-126845238D01*
X157695239Y-126940476D01*
X157742858Y-127130952D01*
X157742858Y-127273810D01*
X157695239Y-127464286D01*
X157647620Y-127559524D01*
X157552382Y-127654762D01*
X157409524Y-127702381D01*
X157171429Y-127702381D01*
X158600001Y-127702381D02*
X158600001Y-127178571D01*
X158552382Y-127083333D01*
X158457144Y-127035714D01*
X158266667Y-127035714D01*
X158171429Y-127083333D01*
X158600001Y-127654762D02*
X158504763Y-127702381D01*
X158266667Y-127702381D01*
X158171429Y-127654762D01*
X158123810Y-127559524D01*
X158123810Y-127464286D01*
X158171429Y-127369048D01*
X158266667Y-127321429D01*
X158504763Y-127321429D01*
X158600001Y-127273810D01*
X158980953Y-127035714D02*
X159219048Y-127702381D01*
X159457144Y-127035714D01*
X160219049Y-127654762D02*
X160123811Y-127702381D01*
X159933334Y-127702381D01*
X159838096Y-127654762D01*
X159790477Y-127559524D01*
X159790477Y-127178571D01*
X159838096Y-127083333D01*
X159933334Y-127035714D01*
X160123811Y-127035714D01*
X160219049Y-127083333D01*
X160266668Y-127178571D01*
X160266668Y-127273810D01*
X159790477Y-127369048D01*
X161457144Y-127702381D02*
X161457144Y-126702381D01*
X161457144Y-127178571D02*
X162028573Y-127178571D01*
X162028573Y-127702381D02*
X162028573Y-126702381D01*
X162409525Y-127035714D02*
X162647620Y-127702381D01*
X162885716Y-127035714D02*
X162647620Y-127702381D01*
X162552382Y-127940476D01*
X162504763Y-127988095D01*
X162409525Y-128035714D01*
X163409525Y-127702381D02*
X163314287Y-127654762D01*
X163266668Y-127559524D01*
X163266668Y-126702381D01*
X164219050Y-127702381D02*
X164219050Y-127178571D01*
X164171431Y-127083333D01*
X164076193Y-127035714D01*
X163885716Y-127035714D01*
X163790478Y-127083333D01*
X164219050Y-127654762D02*
X164123812Y-127702381D01*
X163885716Y-127702381D01*
X163790478Y-127654762D01*
X163742859Y-127559524D01*
X163742859Y-127464286D01*
X163790478Y-127369048D01*
X163885716Y-127321429D01*
X164123812Y-127321429D01*
X164219050Y-127273810D01*
X164695240Y-127035714D02*
X164695240Y-127702381D01*
X164695240Y-127130952D02*
X164742859Y-127083333D01*
X164838097Y-127035714D01*
X164980955Y-127035714D01*
X165076193Y-127083333D01*
X165123812Y-127178571D01*
X165123812Y-127702381D01*
X166028574Y-127702381D02*
X166028574Y-126702381D01*
X166028574Y-127654762D02*
X165933336Y-127702381D01*
X165742859Y-127702381D01*
X165647621Y-127654762D01*
X165600002Y-127607143D01*
X165552383Y-127511905D01*
X165552383Y-127226190D01*
X165600002Y-127130952D01*
X165647621Y-127083333D01*
X165742859Y-127035714D01*
X165933336Y-127035714D01*
X166028574Y-127083333D01*
X166457145Y-127654762D02*
X166552383Y-127702381D01*
X166742859Y-127702381D01*
X166838098Y-127654762D01*
X166885717Y-127559524D01*
X166885717Y-127511905D01*
X166838098Y-127416667D01*
X166742859Y-127369048D01*
X166600002Y-127369048D01*
X166504764Y-127321429D01*
X166457145Y-127226190D01*
X166457145Y-127178571D01*
X166504764Y-127083333D01*
X166600002Y-127035714D01*
X166742859Y-127035714D01*
X166838098Y-127083333D01*
X152171429Y-128778571D02*
X152314286Y-128826190D01*
X152361905Y-128873810D01*
X152409524Y-128969048D01*
X152409524Y-129111905D01*
X152361905Y-129207143D01*
X152314286Y-129254762D01*
X152219048Y-129302381D01*
X151838095Y-129302381D01*
X151838095Y-128302381D01*
X152171429Y-128302381D01*
X152266667Y-128350000D01*
X152314286Y-128397619D01*
X152361905Y-128492857D01*
X152361905Y-128588095D01*
X152314286Y-128683333D01*
X152266667Y-128730952D01*
X152171429Y-128778571D01*
X151838095Y-128778571D01*
X152838095Y-129302381D02*
X152838095Y-128635714D01*
X152838095Y-128302381D02*
X152790476Y-128350000D01*
X152838095Y-128397619D01*
X152885714Y-128350000D01*
X152838095Y-128302381D01*
X152838095Y-128397619D01*
X153457142Y-129302381D02*
X153361904Y-129254762D01*
X153314285Y-129207143D01*
X153266666Y-129111905D01*
X153266666Y-128826190D01*
X153314285Y-128730952D01*
X153361904Y-128683333D01*
X153457142Y-128635714D01*
X153600000Y-128635714D01*
X153695238Y-128683333D01*
X153742857Y-128730952D01*
X153790476Y-128826190D01*
X153790476Y-129111905D01*
X153742857Y-129207143D01*
X153695238Y-129254762D01*
X153600000Y-129302381D01*
X153457142Y-129302381D01*
X154361904Y-129302381D02*
X154266666Y-129254762D01*
X154219047Y-129159524D01*
X154219047Y-128302381D01*
X154885714Y-129302381D02*
X154790476Y-129254762D01*
X154742857Y-129207143D01*
X154695238Y-129111905D01*
X154695238Y-128826190D01*
X154742857Y-128730952D01*
X154790476Y-128683333D01*
X154885714Y-128635714D01*
X155028572Y-128635714D01*
X155123810Y-128683333D01*
X155171429Y-128730952D01*
X155219048Y-128826190D01*
X155219048Y-129111905D01*
X155171429Y-129207143D01*
X155123810Y-129254762D01*
X155028572Y-129302381D01*
X154885714Y-129302381D01*
X155647619Y-129302381D02*
X155647619Y-128635714D01*
X155647619Y-128302381D02*
X155600000Y-128350000D01*
X155647619Y-128397619D01*
X155695238Y-128350000D01*
X155647619Y-128302381D01*
X155647619Y-128397619D01*
X156552381Y-129302381D02*
X156552381Y-128302381D01*
X156552381Y-129254762D02*
X156457143Y-129302381D01*
X156266666Y-129302381D01*
X156171428Y-129254762D01*
X156123809Y-129207143D01*
X156076190Y-129111905D01*
X156076190Y-128826190D01*
X156123809Y-128730952D01*
X156171428Y-128683333D01*
X156266666Y-128635714D01*
X156457143Y-128635714D01*
X156552381Y-128683333D01*
X157790476Y-129302381D02*
X157790476Y-128302381D01*
X158171429Y-128302381D01*
X158266667Y-128350000D01*
X158314286Y-128397619D01*
X158361905Y-128492857D01*
X158361905Y-128635714D01*
X158314286Y-128730952D01*
X158266667Y-128778571D01*
X158171429Y-128826190D01*
X157790476Y-128826190D01*
X158933333Y-129302381D02*
X158838095Y-129254762D01*
X158790476Y-129207143D01*
X158742857Y-129111905D01*
X158742857Y-128826190D01*
X158790476Y-128730952D01*
X158838095Y-128683333D01*
X158933333Y-128635714D01*
X159076191Y-128635714D01*
X159171429Y-128683333D01*
X159219048Y-128730952D01*
X159266667Y-128826190D01*
X159266667Y-129111905D01*
X159219048Y-129207143D01*
X159171429Y-129254762D01*
X159076191Y-129302381D01*
X158933333Y-129302381D01*
X159600000Y-128635714D02*
X159790476Y-129302381D01*
X159980953Y-128826190D01*
X160171429Y-129302381D01*
X160361905Y-128635714D01*
X161123810Y-129254762D02*
X161028572Y-129302381D01*
X160838095Y-129302381D01*
X160742857Y-129254762D01*
X160695238Y-129159524D01*
X160695238Y-128778571D01*
X160742857Y-128683333D01*
X160838095Y-128635714D01*
X161028572Y-128635714D01*
X161123810Y-128683333D01*
X161171429Y-128778571D01*
X161171429Y-128873810D01*
X160695238Y-128969048D01*
X161600000Y-129302381D02*
X161600000Y-128635714D01*
X161600000Y-128826190D02*
X161647619Y-128730952D01*
X161695238Y-128683333D01*
X161790476Y-128635714D01*
X161885715Y-128635714D01*
X163314287Y-128778571D02*
X163457144Y-128826190D01*
X163504763Y-128873810D01*
X163552382Y-128969048D01*
X163552382Y-129111905D01*
X163504763Y-129207143D01*
X163457144Y-129254762D01*
X163361906Y-129302381D01*
X162980953Y-129302381D01*
X162980953Y-128302381D01*
X163314287Y-128302381D01*
X163409525Y-128350000D01*
X163457144Y-128397619D01*
X163504763Y-128492857D01*
X163504763Y-128588095D01*
X163457144Y-128683333D01*
X163409525Y-128730952D01*
X163314287Y-128778571D01*
X162980953Y-128778571D01*
X164123810Y-129302381D02*
X164028572Y-129254762D01*
X163980953Y-129207143D01*
X163933334Y-129111905D01*
X163933334Y-128826190D01*
X163980953Y-128730952D01*
X164028572Y-128683333D01*
X164123810Y-128635714D01*
X164266668Y-128635714D01*
X164361906Y-128683333D01*
X164409525Y-128730952D01*
X164457144Y-128826190D01*
X164457144Y-129111905D01*
X164409525Y-129207143D01*
X164361906Y-129254762D01*
X164266668Y-129302381D01*
X164123810Y-129302381D01*
X165314287Y-129302381D02*
X165314287Y-128778571D01*
X165266668Y-128683333D01*
X165171430Y-128635714D01*
X164980953Y-128635714D01*
X164885715Y-128683333D01*
X165314287Y-129254762D02*
X165219049Y-129302381D01*
X164980953Y-129302381D01*
X164885715Y-129254762D01*
X164838096Y-129159524D01*
X164838096Y-129064286D01*
X164885715Y-128969048D01*
X164980953Y-128921429D01*
X165219049Y-128921429D01*
X165314287Y-128873810D01*
X165790477Y-129302381D02*
X165790477Y-128635714D01*
X165790477Y-128826190D02*
X165838096Y-128730952D01*
X165885715Y-128683333D01*
X165980953Y-128635714D01*
X166076192Y-128635714D01*
X166838097Y-129302381D02*
X166838097Y-128302381D01*
X166838097Y-129254762D02*
X166742859Y-129302381D01*
X166552382Y-129302381D01*
X166457144Y-129254762D01*
X166409525Y-129207143D01*
X166361906Y-129111905D01*
X166361906Y-128826190D01*
X166409525Y-128730952D01*
X166457144Y-128683333D01*
X166552382Y-128635714D01*
X166742859Y-128635714D01*
X166838097Y-128683333D01*
X151838095Y-130235714D02*
X151838095Y-131235714D01*
X151838095Y-130283333D02*
X151933333Y-130235714D01*
X152123810Y-130235714D01*
X152219048Y-130283333D01*
X152266667Y-130330952D01*
X152314286Y-130426190D01*
X152314286Y-130711905D01*
X152266667Y-130807143D01*
X152219048Y-130854762D01*
X152123810Y-130902381D01*
X151933333Y-130902381D01*
X151838095Y-130854762D01*
X152885714Y-130902381D02*
X152790476Y-130854762D01*
X152742857Y-130807143D01*
X152695238Y-130711905D01*
X152695238Y-130426190D01*
X152742857Y-130330952D01*
X152790476Y-130283333D01*
X152885714Y-130235714D01*
X153028572Y-130235714D01*
X153123810Y-130283333D01*
X153171429Y-130330952D01*
X153219048Y-130426190D01*
X153219048Y-130711905D01*
X153171429Y-130807143D01*
X153123810Y-130854762D01*
X153028572Y-130902381D01*
X152885714Y-130902381D01*
X153552381Y-130235714D02*
X153742857Y-130902381D01*
X153933334Y-130426190D01*
X154123810Y-130902381D01*
X154314286Y-130235714D01*
X155076191Y-130854762D02*
X154980953Y-130902381D01*
X154790476Y-130902381D01*
X154695238Y-130854762D01*
X154647619Y-130759524D01*
X154647619Y-130378571D01*
X154695238Y-130283333D01*
X154790476Y-130235714D01*
X154980953Y-130235714D01*
X155076191Y-130283333D01*
X155123810Y-130378571D01*
X155123810Y-130473810D01*
X154647619Y-130569048D01*
X155552381Y-130902381D02*
X155552381Y-130235714D01*
X155552381Y-130426190D02*
X155600000Y-130330952D01*
X155647619Y-130283333D01*
X155742857Y-130235714D01*
X155838096Y-130235714D01*
X156552382Y-130854762D02*
X156457144Y-130902381D01*
X156266667Y-130902381D01*
X156171429Y-130854762D01*
X156123810Y-130759524D01*
X156123810Y-130378571D01*
X156171429Y-130283333D01*
X156266667Y-130235714D01*
X156457144Y-130235714D01*
X156552382Y-130283333D01*
X156600001Y-130378571D01*
X156600001Y-130473810D01*
X156123810Y-130569048D01*
X157457144Y-130902381D02*
X157457144Y-129902381D01*
X157457144Y-130854762D02*
X157361906Y-130902381D01*
X157171429Y-130902381D01*
X157076191Y-130854762D01*
X157028572Y-130807143D01*
X156980953Y-130711905D01*
X156980953Y-130426190D01*
X157028572Y-130330952D01*
X157076191Y-130283333D01*
X157171429Y-130235714D01*
X157361906Y-130235714D01*
X157457144Y-130283333D01*
X158695239Y-130902381D02*
X158695239Y-129902381D01*
X158695239Y-130283333D02*
X158790477Y-130235714D01*
X158980954Y-130235714D01*
X159076192Y-130283333D01*
X159123811Y-130330952D01*
X159171430Y-130426190D01*
X159171430Y-130711905D01*
X159123811Y-130807143D01*
X159076192Y-130854762D01*
X158980954Y-130902381D01*
X158790477Y-130902381D01*
X158695239Y-130854762D01*
X159504763Y-130235714D02*
X159742858Y-130902381D01*
X159980954Y-130235714D02*
X159742858Y-130902381D01*
X159647620Y-131140476D01*
X159600001Y-131188095D01*
X159504763Y-131235714D01*
X151838095Y-132502381D02*
X151838095Y-131502381D01*
X152171429Y-132216667D01*
X152504762Y-131502381D01*
X152504762Y-132502381D01*
X152980952Y-132502381D02*
X152980952Y-131835714D01*
X152980952Y-131502381D02*
X152933333Y-131550000D01*
X152980952Y-131597619D01*
X153028571Y-131550000D01*
X152980952Y-131502381D01*
X152980952Y-131597619D01*
X153885714Y-132454762D02*
X153790476Y-132502381D01*
X153599999Y-132502381D01*
X153504761Y-132454762D01*
X153457142Y-132407143D01*
X153409523Y-132311905D01*
X153409523Y-132026190D01*
X153457142Y-131930952D01*
X153504761Y-131883333D01*
X153599999Y-131835714D01*
X153790476Y-131835714D01*
X153885714Y-131883333D01*
X154314285Y-132502381D02*
X154314285Y-131835714D01*
X154314285Y-132026190D02*
X154361904Y-131930952D01*
X154409523Y-131883333D01*
X154504761Y-131835714D01*
X154600000Y-131835714D01*
X155076190Y-132502381D02*
X154980952Y-132454762D01*
X154933333Y-132407143D01*
X154885714Y-132311905D01*
X154885714Y-132026190D01*
X154933333Y-131930952D01*
X154980952Y-131883333D01*
X155076190Y-131835714D01*
X155219048Y-131835714D01*
X155314286Y-131883333D01*
X155361905Y-131930952D01*
X155409524Y-132026190D01*
X155409524Y-132311905D01*
X155361905Y-132407143D01*
X155314286Y-132454762D01*
X155219048Y-132502381D01*
X155076190Y-132502381D01*
X155838095Y-132502381D02*
X155838095Y-131502381D01*
X156219048Y-131502381D01*
X156314286Y-131550000D01*
X156361905Y-131597619D01*
X156409524Y-131692857D01*
X156409524Y-131835714D01*
X156361905Y-131930952D01*
X156314286Y-131978571D01*
X156219048Y-132026190D01*
X155838095Y-132026190D01*
X156742857Y-131835714D02*
X156980952Y-132502381D01*
X157219048Y-131835714D02*
X156980952Y-132502381D01*
X156885714Y-132740476D01*
X156838095Y-132788095D01*
X156742857Y-132835714D01*
X157457143Y-131835714D02*
X157838095Y-131835714D01*
X157600000Y-131502381D02*
X157600000Y-132359524D01*
X157647619Y-132454762D01*
X157742857Y-132502381D01*
X157838095Y-132502381D01*
X158171429Y-132502381D02*
X158171429Y-131502381D01*
X158600001Y-132502381D02*
X158600001Y-131978571D01*
X158552382Y-131883333D01*
X158457144Y-131835714D01*
X158314286Y-131835714D01*
X158219048Y-131883333D01*
X158171429Y-131930952D01*
X159219048Y-132502381D02*
X159123810Y-132454762D01*
X159076191Y-132407143D01*
X159028572Y-132311905D01*
X159028572Y-132026190D01*
X159076191Y-131930952D01*
X159123810Y-131883333D01*
X159219048Y-131835714D01*
X159361906Y-131835714D01*
X159457144Y-131883333D01*
X159504763Y-131930952D01*
X159552382Y-132026190D01*
X159552382Y-132311905D01*
X159504763Y-132407143D01*
X159457144Y-132454762D01*
X159361906Y-132502381D01*
X159219048Y-132502381D01*
X159980953Y-131835714D02*
X159980953Y-132502381D01*
X159980953Y-131930952D02*
X160028572Y-131883333D01*
X160123810Y-131835714D01*
X160266668Y-131835714D01*
X160361906Y-131883333D01*
X160409525Y-131978571D01*
X160409525Y-132502381D01*
D11*
X135180952Y-126652381D02*
X135180952Y-125985714D01*
X135180952Y-126176190D02*
X135228571Y-126080952D01*
X135276190Y-126033333D01*
X135371428Y-125985714D01*
X135466667Y-125985714D01*
X136180953Y-126604762D02*
X136085715Y-126652381D01*
X135895238Y-126652381D01*
X135800000Y-126604762D01*
X135752381Y-126509524D01*
X135752381Y-126128571D01*
X135800000Y-126033333D01*
X135895238Y-125985714D01*
X136085715Y-125985714D01*
X136180953Y-126033333D01*
X136228572Y-126128571D01*
X136228572Y-126223810D01*
X135752381Y-126319048D01*
X136609524Y-126604762D02*
X136704762Y-126652381D01*
X136895238Y-126652381D01*
X136990477Y-126604762D01*
X137038096Y-126509524D01*
X137038096Y-126461905D01*
X136990477Y-126366667D01*
X136895238Y-126319048D01*
X136752381Y-126319048D01*
X136657143Y-126271429D01*
X136609524Y-126176190D01*
X136609524Y-126128571D01*
X136657143Y-126033333D01*
X136752381Y-125985714D01*
X136895238Y-125985714D01*
X136990477Y-126033333D01*
X137847620Y-126604762D02*
X137752382Y-126652381D01*
X137561905Y-126652381D01*
X137466667Y-126604762D01*
X137419048Y-126509524D01*
X137419048Y-126128571D01*
X137466667Y-126033333D01*
X137561905Y-125985714D01*
X137752382Y-125985714D01*
X137847620Y-126033333D01*
X137895239Y-126128571D01*
X137895239Y-126223810D01*
X137419048Y-126319048D01*
X138180953Y-125985714D02*
X138561905Y-125985714D01*
X138323810Y-125652381D02*
X138323810Y-126509524D01*
X138371429Y-126604762D01*
X138466667Y-126652381D01*
X138561905Y-126652381D01*
X135295238Y-118152381D02*
X135295238Y-117152381D01*
X135295238Y-117533333D02*
X135390476Y-117485714D01*
X135580953Y-117485714D01*
X135676191Y-117533333D01*
X135723810Y-117580952D01*
X135771429Y-117676190D01*
X135771429Y-117961905D01*
X135723810Y-118057143D01*
X135676191Y-118104762D01*
X135580953Y-118152381D01*
X135390476Y-118152381D01*
X135295238Y-118104762D01*
X136342857Y-118152381D02*
X136247619Y-118104762D01*
X136200000Y-118057143D01*
X136152381Y-117961905D01*
X136152381Y-117676190D01*
X136200000Y-117580952D01*
X136247619Y-117533333D01*
X136342857Y-117485714D01*
X136485715Y-117485714D01*
X136580953Y-117533333D01*
X136628572Y-117580952D01*
X136676191Y-117676190D01*
X136676191Y-117961905D01*
X136628572Y-118057143D01*
X136580953Y-118104762D01*
X136485715Y-118152381D01*
X136342857Y-118152381D01*
X137247619Y-118152381D02*
X137152381Y-118104762D01*
X137104762Y-118057143D01*
X137057143Y-117961905D01*
X137057143Y-117676190D01*
X137104762Y-117580952D01*
X137152381Y-117533333D01*
X137247619Y-117485714D01*
X137390477Y-117485714D01*
X137485715Y-117533333D01*
X137533334Y-117580952D01*
X137580953Y-117676190D01*
X137580953Y-117961905D01*
X137533334Y-118057143D01*
X137485715Y-118104762D01*
X137390477Y-118152381D01*
X137247619Y-118152381D01*
X137866667Y-117485714D02*
X138247619Y-117485714D01*
X138009524Y-117152381D02*
X138009524Y-118009524D01*
X138057143Y-118104762D01*
X138152381Y-118152381D01*
X138247619Y-118152381D01*
D12*
X113178572Y-140857143D02*
X114321429Y-140857143D01*
X113750000Y-141428571D02*
X113750000Y-140285714D01*
X108178572Y-140857143D02*
X109321429Y-140857143D01*
D11*
X143800000Y-115650000D02*
X150800000Y-115650000D01*
X151050000Y-115900000D02*
X151050000Y-122900000D01*
X150800000Y-123150000D02*
X143800000Y-123150000D01*
X143550000Y-122900000D02*
X143550000Y-115900000D01*
X100849000Y-129751000D02*
X104151000Y-129751000D01*
X104151000Y-129751000D02*
X104151000Y-127211000D01*
X104151000Y-127211000D02*
X103389000Y-126449000D01*
X103389000Y-126449000D02*
X101611000Y-126449000D01*
X101611000Y-126449000D02*
X100849000Y-127211000D01*
X100849000Y-127211000D02*
X100849000Y-129751000D01*
X101992000Y-129497000D02*
X103008000Y-129497000D01*
X101738000Y-129370000D02*
X103262000Y-129370000D01*
X101484000Y-129243000D02*
X103516000Y-129243000D01*
X101357000Y-129116000D02*
X103643000Y-129116000D01*
X103900000Y-125557000D02*
X103900000Y-126319000D01*
X103519000Y-125938000D02*
X104281000Y-125938000D01*
X104024000Y-128100000D02*
G75*
G03X104024000Y-128100000I-1524000J0D01*
G01*
X133600000Y-133150000D02*
X133600000Y-133850000D01*
X132400000Y-133850000D02*
X132400000Y-133150000D01*
X138600000Y-133150000D02*
X138600000Y-133850000D01*
X137400000Y-133850000D02*
X137400000Y-133150000D01*
X154350000Y-118300000D02*
X153650000Y-118300000D01*
X153650000Y-117100000D02*
X154350000Y-117100000D01*
X147550000Y-127100000D02*
X146850000Y-127100000D01*
X146850000Y-125900000D02*
X147550000Y-125900000D01*
X142500000Y-121850000D02*
X142500000Y-122550000D01*
X141300000Y-122550000D02*
X141300000Y-121850000D01*
X149750000Y-125900000D02*
X150450000Y-125900000D01*
X150450000Y-127100000D02*
X149750000Y-127100000D01*
X144350000Y-114600000D02*
X143650000Y-114600000D01*
X143650000Y-113400000D02*
X144350000Y-113400000D01*
X141400000Y-130750000D02*
X141400000Y-130050000D01*
X142600000Y-130050000D02*
X142600000Y-130750000D01*
X142600000Y-130750000D02*
X142600000Y-130050000D01*
X143800000Y-130050000D02*
X143800000Y-130750000D01*
X145600000Y-132750000D02*
X145600000Y-132050000D01*
X146800000Y-132050000D02*
X146800000Y-132750000D01*
X146900000Y-132750000D02*
X146900000Y-132050000D01*
X148100000Y-132050000D02*
X148100000Y-132750000D01*
D14*
X173264000Y-100536000D02*
X165136000Y-100536000D01*
X165136000Y-100536000D02*
X165136000Y-104600000D01*
X165136000Y-104600000D02*
X173264000Y-104600000D01*
X173264000Y-104600000D02*
X173264000Y-100536000D01*
D11*
X129050000Y-138750000D02*
X128450000Y-138750000D01*
X118750000Y-135750000D02*
X138750000Y-135750000D01*
X138750000Y-135750000D02*
X138750000Y-141750000D01*
X138750000Y-141750000D02*
X118750000Y-141750000D01*
X118750000Y-141750000D02*
X118750000Y-135750000D01*
X119150000Y-136250000D02*
X138350000Y-136250000D01*
X138350000Y-136250000D02*
X138350000Y-141250000D01*
X138350000Y-141250000D02*
X119150000Y-141250000D01*
X119150000Y-141250000D02*
X119150000Y-136250000D01*
X134100000Y-111200000D02*
X137800000Y-111200000D01*
X137800000Y-111200000D02*
X137800000Y-116750000D01*
X137800000Y-116750000D02*
X134100000Y-116750000D01*
X134100000Y-116750000D02*
X134100000Y-111200000D01*
X179350000Y-114400000D02*
X175650000Y-114400000D01*
X175650000Y-114400000D02*
X175650000Y-107850000D01*
X175650000Y-107850000D02*
X179350000Y-107850000D01*
X179350000Y-107850000D02*
X179350000Y-114400000D01*
X173800000Y-131300000D02*
X173800000Y-127600000D01*
X173800000Y-127600000D02*
X179350000Y-127600000D01*
X179350000Y-127600000D02*
X179350000Y-131300000D01*
X179350000Y-131300000D02*
X173800000Y-131300000D01*
X173800000Y-127200000D02*
X173800000Y-123500000D01*
X173800000Y-123500000D02*
X179350000Y-123500000D01*
X179350000Y-123500000D02*
X179350000Y-127200000D01*
X179350000Y-127200000D02*
X173800000Y-127200000D01*
X173800000Y-123200000D02*
X173800000Y-119500000D01*
X173800000Y-119500000D02*
X179350000Y-119500000D01*
X179350000Y-119500000D02*
X179350000Y-123200000D01*
X179350000Y-123200000D02*
X173800000Y-123200000D01*
X173800000Y-119200000D02*
X173800000Y-115500000D01*
X173800000Y-115500000D02*
X179350000Y-115500000D01*
X179350000Y-115500000D02*
X179350000Y-119200000D01*
X179350000Y-119200000D02*
X173800000Y-119200000D01*
X154310000Y-110560000D02*
X154310000Y-100560000D01*
X154310000Y-100560000D02*
X158310000Y-100560000D01*
X158310000Y-100560000D02*
X159310000Y-101560000D01*
X159310000Y-101560000D02*
X159310000Y-110560000D01*
X159310000Y-110560000D02*
X154310000Y-110560000D01*
X149230000Y-110560000D02*
X149230000Y-100560000D01*
X149230000Y-100560000D02*
X153230000Y-100560000D01*
X153230000Y-100560000D02*
X154230000Y-101560000D01*
X154230000Y-101560000D02*
X154230000Y-110560000D01*
X154230000Y-110560000D02*
X149230000Y-110560000D01*
X144150000Y-110560000D02*
X144150000Y-100560000D01*
X144150000Y-100560000D02*
X148150000Y-100560000D01*
X148150000Y-100560000D02*
X149150000Y-101560000D01*
X149150000Y-101560000D02*
X149150000Y-110560000D01*
X149150000Y-110560000D02*
X144150000Y-110560000D01*
X139070000Y-110560000D02*
X139070000Y-100560000D01*
X139070000Y-100560000D02*
X143070000Y-100560000D01*
X143070000Y-100560000D02*
X144070000Y-101560000D01*
X144070000Y-101560000D02*
X144070000Y-110560000D01*
X144070000Y-110560000D02*
X139070000Y-110560000D01*
X133990000Y-110560000D02*
X133990000Y-100560000D01*
X133990000Y-100560000D02*
X137990000Y-100560000D01*
X137990000Y-100560000D02*
X138990000Y-101560000D01*
X138990000Y-101560000D02*
X138990000Y-110560000D01*
X138990000Y-110560000D02*
X133990000Y-110560000D01*
X128910000Y-110560000D02*
X128910000Y-100560000D01*
X128910000Y-100560000D02*
X132910000Y-100560000D01*
X132910000Y-100560000D02*
X133910000Y-101560000D01*
X133910000Y-101560000D02*
X133910000Y-110560000D01*
X133910000Y-110560000D02*
X128910000Y-110560000D01*
X124499760Y-121450840D02*
X124499760Y-121499100D01*
X125200800Y-124249820D02*
X124499760Y-124249820D01*
X124499760Y-124249820D02*
X124499760Y-124000900D01*
X124499760Y-121450840D02*
X124499760Y-121250180D01*
X124499760Y-121250180D02*
X125200800Y-121250180D01*
X126076000Y-129803000D02*
X129251000Y-129803000D01*
X129251000Y-129803000D02*
X129251000Y-128025000D01*
X129251000Y-128025000D02*
X126076000Y-128025000D01*
X126076000Y-134375000D02*
X129251000Y-134375000D01*
X129251000Y-134375000D02*
X129251000Y-132597000D01*
X129251000Y-132597000D02*
X126076000Y-132597000D01*
X119980000Y-127771000D02*
X126076000Y-127771000D01*
X126076000Y-127771000D02*
X126076000Y-134629000D01*
X126076000Y-134629000D02*
X118202000Y-134629000D01*
X118075000Y-134629000D02*
X118075000Y-127771000D01*
X118202000Y-127771000D02*
X119980000Y-127771000D01*
X107003000Y-121124000D02*
X107003000Y-117949000D01*
X107003000Y-117949000D02*
X105225000Y-117949000D01*
X105225000Y-117949000D02*
X105225000Y-121124000D01*
X111575000Y-121124000D02*
X111575000Y-117949000D01*
X111575000Y-117949000D02*
X109797000Y-117949000D01*
X109797000Y-117949000D02*
X109797000Y-121124000D01*
X104971000Y-127220000D02*
X104971000Y-121124000D01*
X104971000Y-121124000D02*
X111829000Y-121124000D01*
X111829000Y-121124000D02*
X111829000Y-128998000D01*
X111829000Y-129125000D02*
X104971000Y-129125000D01*
X104971000Y-128998000D02*
X104971000Y-127220000D01*
X127750000Y-121175000D02*
X128750000Y-121175000D01*
X128750000Y-122525000D02*
X127750000Y-122525000D01*
X128750000Y-124325000D02*
X127750000Y-124325000D01*
X127750000Y-122975000D02*
X128750000Y-122975000D01*
X170950000Y-136125000D02*
X169950000Y-136125000D01*
X169950000Y-134775000D02*
X170950000Y-134775000D01*
X168350000Y-136125000D02*
X167350000Y-136125000D01*
X167350000Y-134775000D02*
X168350000Y-134775000D01*
X165850000Y-136125000D02*
X164850000Y-136125000D01*
X164850000Y-134775000D02*
X165850000Y-134775000D01*
X127600000Y-130625000D02*
X128600000Y-130625000D01*
X128600000Y-131975000D02*
X127600000Y-131975000D01*
X169950000Y-133475000D02*
X170950000Y-133475000D01*
X170950000Y-134825000D02*
X169950000Y-134825000D01*
X167350000Y-133475000D02*
X168350000Y-133475000D01*
X168350000Y-134825000D02*
X167350000Y-134825000D01*
X164850000Y-133475000D02*
X165850000Y-133475000D01*
X165850000Y-134825000D02*
X164850000Y-134825000D01*
X129725000Y-129100000D02*
X129725000Y-128100000D01*
X131075000Y-128100000D02*
X131075000Y-129100000D01*
X141175000Y-113100000D02*
X141175000Y-114100000D01*
X139825000Y-114100000D02*
X139825000Y-113100000D01*
X163200000Y-121175000D02*
X162200000Y-121175000D01*
X162200000Y-119825000D02*
X163200000Y-119825000D01*
X163200000Y-119875000D02*
X162200000Y-119875000D01*
X162200000Y-118525000D02*
X163200000Y-118525000D01*
X163200000Y-118575000D02*
X162200000Y-118575000D01*
X162200000Y-117225000D02*
X163200000Y-117225000D01*
X154400000Y-119675000D02*
X153400000Y-119675000D01*
X153400000Y-118325000D02*
X154400000Y-118325000D01*
X175475000Y-108300000D02*
X175475000Y-109300000D01*
X174125000Y-109300000D02*
X174125000Y-108300000D01*
X174075000Y-108300000D02*
X174075000Y-109300000D01*
X172725000Y-109300000D02*
X172725000Y-108300000D01*
X169875000Y-108900000D02*
X169875000Y-109900000D01*
X168525000Y-109900000D02*
X168525000Y-108900000D01*
X168575000Y-108900000D02*
X168575000Y-109900000D01*
X167225000Y-109900000D02*
X167225000Y-108900000D01*
X167275000Y-108900000D02*
X167275000Y-109900000D01*
X165925000Y-109900000D02*
X165925000Y-108900000D01*
X142675000Y-117200000D02*
X142675000Y-118200000D01*
X141325000Y-118200000D02*
X141325000Y-117200000D01*
X149200000Y-111975000D02*
X148200000Y-111975000D01*
X148200000Y-110625000D02*
X149200000Y-110625000D01*
X139325000Y-123750000D02*
X139325000Y-122750000D01*
X140675000Y-122750000D02*
X140675000Y-123750000D01*
X140675000Y-120250000D02*
X140675000Y-121250000D01*
X139325000Y-121250000D02*
X139325000Y-120250000D01*
X138400000Y-122450000D02*
X138400000Y-122150000D01*
X138400000Y-122150000D02*
X135200000Y-122150000D01*
X135200000Y-122150000D02*
X135200000Y-122450000D01*
X138400000Y-125050000D02*
X138400000Y-125350000D01*
X138400000Y-125350000D02*
X135200000Y-125350000D01*
X135200000Y-125350000D02*
X135200000Y-125050000D01*
D14*
X138500000Y-123750000D02*
X138500000Y-123750000D01*
X138500000Y-123750000D02*
X138500000Y-123750000D01*
X138500000Y-123750000D02*
X138500000Y-123750000D01*
X138500000Y-123750000D02*
X138500000Y-123750000D01*
D11*
X138400000Y-118900000D02*
X138400000Y-118600000D01*
X138400000Y-118600000D02*
X135200000Y-118600000D01*
X135200000Y-118600000D02*
X135200000Y-118900000D01*
X138400000Y-121500000D02*
X138400000Y-121800000D01*
X138400000Y-121800000D02*
X135200000Y-121800000D01*
X135200000Y-121800000D02*
X135200000Y-121500000D01*
D14*
X138500000Y-120200000D02*
X138500000Y-120200000D01*
X138500000Y-120200000D02*
X138500000Y-120200000D01*
X138500000Y-120200000D02*
X138500000Y-120200000D01*
X138500000Y-120200000D02*
X138500000Y-120200000D01*
D11*
X134200840Y-134400240D02*
X134249100Y-134400240D01*
X136999820Y-133699200D02*
X136999820Y-134400240D01*
X136999820Y-134400240D02*
X136750900Y-134400240D01*
X134200840Y-134400240D02*
X134000180Y-134400240D01*
X134000180Y-134400240D02*
X134000180Y-133699200D01*
X102200000Y-118300000D02*
G75*
G03X102200000Y-118300000I-100000J0D01*
G01*
X102750000Y-118550000D02*
X102250000Y-118550000D01*
X102750000Y-121450000D02*
X102750000Y-118550000D01*
X102250000Y-121450000D02*
X102750000Y-121450000D01*
X102250000Y-118550000D02*
X102250000Y-121450000D01*
X143600000Y-128800000D02*
X141800000Y-128800000D01*
X141800000Y-128800000D02*
X141800000Y-127600000D01*
X141800000Y-127600000D02*
X143600000Y-127600000D01*
X143600000Y-127600000D02*
X143600000Y-128800000D01*
D14*
X149794000Y-127422000D02*
X144206000Y-127422000D01*
X144206000Y-127422000D02*
X144206000Y-130978000D01*
X144206000Y-130978000D02*
X149794000Y-130978000D01*
X149794000Y-130978000D02*
X149794000Y-127422000D01*
D11*
X164300000Y-101600000D02*
X164300000Y-105300000D01*
X164300000Y-105300000D02*
X160150000Y-105300000D01*
X160150000Y-105300000D02*
X160150000Y-101600000D01*
X160150000Y-101600000D02*
X164300000Y-101600000D01*
X106250000Y-131750000D02*
X116250000Y-131750000D01*
X116250000Y-131750000D02*
X116250000Y-139750000D01*
X116250000Y-139750000D02*
X106250000Y-139750000D01*
X106250000Y-139750000D02*
X106250000Y-131750000D01*
X137250000Y-128200000D02*
X137250000Y-131900000D01*
X137250000Y-131900000D02*
X133100000Y-131900000D01*
X133100000Y-131900000D02*
X133100000Y-128200000D01*
X133100000Y-128200000D02*
X137250000Y-128200000D01*
X139100000Y-141600000D02*
X139100000Y-137900000D01*
X139100000Y-137900000D02*
X143250000Y-137900000D01*
X143250000Y-137900000D02*
X143250000Y-141600000D01*
X143250000Y-141600000D02*
X139100000Y-141600000D01*
X154350000Y-117100000D02*
X153650000Y-117100000D01*
X153650000Y-115900000D02*
X154350000Y-115900000D01*
X148850000Y-135550000D02*
X148850000Y-139250000D01*
X148850000Y-139250000D02*
X144700000Y-139250000D01*
X144700000Y-139250000D02*
X144700000Y-135550000D01*
X144700000Y-135550000D02*
X148850000Y-135550000D01*
X128000000Y-112050000D02*
X131700000Y-112050000D01*
X131700000Y-112050000D02*
X131700000Y-118600000D01*
X131700000Y-118600000D02*
X128000000Y-118600000D01*
X128000000Y-118600000D02*
X128000000Y-112050000D01*
X164820000Y-138080000D02*
X172440000Y-138080000D01*
X164820000Y-140620000D02*
X172440000Y-140620000D01*
X162000000Y-140900000D02*
X163550000Y-140900000D01*
X172440000Y-138080000D02*
X172440000Y-140620000D01*
X164820000Y-140620000D02*
X164820000Y-138080000D01*
X163550000Y-137800000D02*
X162000000Y-137800000D01*
X162000000Y-137800000D02*
X162000000Y-140900000D01*
X167600000Y-121850000D02*
X163900000Y-121850000D01*
X163900000Y-121850000D02*
X163900000Y-115300000D01*
X163900000Y-115300000D02*
X167600000Y-115300000D01*
X167600000Y-115300000D02*
X167600000Y-121850000D01*
X121600000Y-108300000D02*
X111600000Y-108300000D01*
X111600000Y-108300000D02*
X111600000Y-100300000D01*
X111600000Y-100300000D02*
X121600000Y-100300000D01*
X121600000Y-100300000D02*
X121600000Y-108300000D01*
X111050000Y-106400000D02*
X111050000Y-116400000D01*
X111050000Y-116400000D02*
X103050000Y-116400000D01*
X103050000Y-116400000D02*
X103050000Y-106400000D01*
X103050000Y-106400000D02*
X111050000Y-106400000D01*
X151800000Y-115600000D02*
X151800000Y-111900000D01*
X151800000Y-111900000D02*
X162100000Y-111900000D01*
X162100000Y-111900000D02*
X162100000Y-115600000D01*
X162100000Y-115600000D02*
X151800000Y-115600000D01*
X119725000Y-111101000D02*
X119725000Y-119099000D01*
X119865000Y-111106000D02*
X119865000Y-119094000D01*
X120005000Y-111116000D02*
X120005000Y-119084000D01*
X120145000Y-111131000D02*
X120145000Y-119069000D01*
X120285000Y-111151000D02*
X120285000Y-119049000D01*
X120425000Y-111176000D02*
X120425000Y-119024000D01*
X120565000Y-111206000D02*
X120565000Y-114927000D01*
X120565000Y-115273000D02*
X120565000Y-118994000D01*
X120705000Y-111242000D02*
X120705000Y-114565000D01*
X120705000Y-115635000D02*
X120705000Y-118958000D01*
X120845000Y-111283000D02*
X120845000Y-114391000D01*
X120845000Y-115809000D02*
X120845000Y-118917000D01*
X120985000Y-111329000D02*
X120985000Y-114275000D01*
X120985000Y-115925000D02*
X120985000Y-118871000D01*
X121125000Y-111382000D02*
X121125000Y-114195000D01*
X121125000Y-116005000D02*
X121125000Y-118818000D01*
X121265000Y-111441000D02*
X121265000Y-114141000D01*
X121265000Y-116059000D02*
X121265000Y-118759000D01*
X121405000Y-111506000D02*
X121405000Y-114111000D01*
X121405000Y-116089000D02*
X121405000Y-118694000D01*
X121545000Y-111577000D02*
X121545000Y-114100000D01*
X121545000Y-116100000D02*
X121545000Y-118623000D01*
X121685000Y-111656000D02*
X121685000Y-114109000D01*
X121685000Y-116091000D02*
X121685000Y-118544000D01*
X121825000Y-111743000D02*
X121825000Y-114139000D01*
X121825000Y-116061000D02*
X121825000Y-118457000D01*
X121965000Y-111838000D02*
X121965000Y-114190000D01*
X121965000Y-116010000D02*
X121965000Y-118362000D01*
X122105000Y-111942000D02*
X122105000Y-114268000D01*
X122105000Y-115932000D02*
X122105000Y-118258000D01*
X122245000Y-112056000D02*
X122245000Y-114381000D01*
X122245000Y-115819000D02*
X122245000Y-118144000D01*
X122385000Y-112181000D02*
X122385000Y-114550000D01*
X122385000Y-115650000D02*
X122385000Y-118019000D01*
X122525000Y-112319000D02*
X122525000Y-114878000D01*
X122525000Y-115322000D02*
X122525000Y-117881000D01*
X122665000Y-112471000D02*
X122665000Y-117729000D01*
X122805000Y-112641000D02*
X122805000Y-117559000D01*
X122945000Y-112832000D02*
X122945000Y-117368000D01*
X123085000Y-113050000D02*
X123085000Y-117150000D01*
X123225000Y-113306000D02*
X123225000Y-116894000D01*
X123365000Y-113617000D02*
X123365000Y-116583000D01*
X123505000Y-114033000D02*
X123505000Y-116167000D01*
X123645000Y-114900000D02*
X123645000Y-115300000D01*
X122550000Y-115100000D02*
G75*
G03X122550000Y-115100000I-1000000J0D01*
G01*
X123687500Y-115100000D02*
G75*
G03X123687500Y-115100000I-4037500J0D01*
G01*
X104607143Y-131016666D02*
X104654762Y-131064285D01*
X104702381Y-131207142D01*
X104702381Y-131302380D01*
X104654762Y-131445238D01*
X104559524Y-131540476D01*
X104464286Y-131588095D01*
X104273810Y-131635714D01*
X104130952Y-131635714D01*
X103940476Y-131588095D01*
X103845238Y-131540476D01*
X103750000Y-131445238D01*
X103702381Y-131302380D01*
X103702381Y-131207142D01*
X103750000Y-131064285D01*
X103797619Y-131016666D01*
X103702381Y-130683333D02*
X103702381Y-130064285D01*
X104083333Y-130397619D01*
X104083333Y-130254761D01*
X104130952Y-130159523D01*
X104178571Y-130111904D01*
X104273810Y-130064285D01*
X104511905Y-130064285D01*
X104607143Y-130111904D01*
X104654762Y-130159523D01*
X104702381Y-130254761D01*
X104702381Y-130540476D01*
X104654762Y-130635714D01*
X104607143Y-130683333D01*
X131333334Y-135107143D02*
X131285715Y-135154762D01*
X131142858Y-135202381D01*
X131047620Y-135202381D01*
X130904762Y-135154762D01*
X130809524Y-135059524D01*
X130761905Y-134964286D01*
X130714286Y-134773810D01*
X130714286Y-134630952D01*
X130761905Y-134440476D01*
X130809524Y-134345238D01*
X130904762Y-134250000D01*
X131047620Y-134202381D01*
X131142858Y-134202381D01*
X131285715Y-134250000D01*
X131333334Y-134297619D01*
X132285715Y-135202381D02*
X131714286Y-135202381D01*
X132000000Y-135202381D02*
X132000000Y-134202381D01*
X131904762Y-134345238D01*
X131809524Y-134440476D01*
X131714286Y-134488095D01*
X139333334Y-135107143D02*
X139285715Y-135154762D01*
X139142858Y-135202381D01*
X139047620Y-135202381D01*
X138904762Y-135154762D01*
X138809524Y-135059524D01*
X138761905Y-134964286D01*
X138714286Y-134773810D01*
X138714286Y-134630952D01*
X138761905Y-134440476D01*
X138809524Y-134345238D01*
X138904762Y-134250000D01*
X139047620Y-134202381D01*
X139142858Y-134202381D01*
X139285715Y-134250000D01*
X139333334Y-134297619D01*
X139714286Y-134297619D02*
X139761905Y-134250000D01*
X139857143Y-134202381D01*
X140095239Y-134202381D01*
X140190477Y-134250000D01*
X140238096Y-134297619D01*
X140285715Y-134392857D01*
X140285715Y-134488095D01*
X140238096Y-134630952D01*
X139666667Y-135202381D01*
X140285715Y-135202381D01*
X156083334Y-118057143D02*
X156035715Y-118104762D01*
X155892858Y-118152381D01*
X155797620Y-118152381D01*
X155654762Y-118104762D01*
X155559524Y-118009524D01*
X155511905Y-117914286D01*
X155464286Y-117723810D01*
X155464286Y-117580952D01*
X155511905Y-117390476D01*
X155559524Y-117295238D01*
X155654762Y-117200000D01*
X155797620Y-117152381D01*
X155892858Y-117152381D01*
X156035715Y-117200000D01*
X156083334Y-117247619D01*
X156940477Y-117485714D02*
X156940477Y-118152381D01*
X156702381Y-117104762D02*
X156464286Y-117819048D01*
X157083334Y-117819048D01*
X147133334Y-125557143D02*
X147085715Y-125604762D01*
X146942858Y-125652381D01*
X146847620Y-125652381D01*
X146704762Y-125604762D01*
X146609524Y-125509524D01*
X146561905Y-125414286D01*
X146514286Y-125223810D01*
X146514286Y-125080952D01*
X146561905Y-124890476D01*
X146609524Y-124795238D01*
X146704762Y-124700000D01*
X146847620Y-124652381D01*
X146942858Y-124652381D01*
X147085715Y-124700000D01*
X147133334Y-124747619D01*
X148038096Y-124652381D02*
X147561905Y-124652381D01*
X147514286Y-125128571D01*
X147561905Y-125080952D01*
X147657143Y-125033333D01*
X147895239Y-125033333D01*
X147990477Y-125080952D01*
X148038096Y-125128571D01*
X148085715Y-125223810D01*
X148085715Y-125461905D01*
X148038096Y-125557143D01*
X147990477Y-125604762D01*
X147895239Y-125652381D01*
X147657143Y-125652381D01*
X147561905Y-125604762D01*
X147514286Y-125557143D01*
X142257143Y-124616666D02*
X142304762Y-124664285D01*
X142352381Y-124807142D01*
X142352381Y-124902380D01*
X142304762Y-125045238D01*
X142209524Y-125140476D01*
X142114286Y-125188095D01*
X141923810Y-125235714D01*
X141780952Y-125235714D01*
X141590476Y-125188095D01*
X141495238Y-125140476D01*
X141400000Y-125045238D01*
X141352381Y-124902380D01*
X141352381Y-124807142D01*
X141400000Y-124664285D01*
X141447619Y-124616666D01*
X141352381Y-123759523D02*
X141352381Y-123950000D01*
X141400000Y-124045238D01*
X141447619Y-124092857D01*
X141590476Y-124188095D01*
X141780952Y-124235714D01*
X142161905Y-124235714D01*
X142257143Y-124188095D01*
X142304762Y-124140476D01*
X142352381Y-124045238D01*
X142352381Y-123854761D01*
X142304762Y-123759523D01*
X142257143Y-123711904D01*
X142161905Y-123664285D01*
X141923810Y-123664285D01*
X141828571Y-123711904D01*
X141780952Y-123759523D01*
X141733333Y-123854761D01*
X141733333Y-124045238D01*
X141780952Y-124140476D01*
X141828571Y-124188095D01*
X141923810Y-124235714D01*
X149833334Y-125557143D02*
X149785715Y-125604762D01*
X149642858Y-125652381D01*
X149547620Y-125652381D01*
X149404762Y-125604762D01*
X149309524Y-125509524D01*
X149261905Y-125414286D01*
X149214286Y-125223810D01*
X149214286Y-125080952D01*
X149261905Y-124890476D01*
X149309524Y-124795238D01*
X149404762Y-124700000D01*
X149547620Y-124652381D01*
X149642858Y-124652381D01*
X149785715Y-124700000D01*
X149833334Y-124747619D01*
X150166667Y-124652381D02*
X150833334Y-124652381D01*
X150404762Y-125652381D01*
X143833334Y-113107143D02*
X143785715Y-113154762D01*
X143642858Y-113202381D01*
X143547620Y-113202381D01*
X143404762Y-113154762D01*
X143309524Y-113059524D01*
X143261905Y-112964286D01*
X143214286Y-112773810D01*
X143214286Y-112630952D01*
X143261905Y-112440476D01*
X143309524Y-112345238D01*
X143404762Y-112250000D01*
X143547620Y-112202381D01*
X143642858Y-112202381D01*
X143785715Y-112250000D01*
X143833334Y-112297619D01*
X144404762Y-112630952D02*
X144309524Y-112583333D01*
X144261905Y-112535714D01*
X144214286Y-112440476D01*
X144214286Y-112392857D01*
X144261905Y-112297619D01*
X144309524Y-112250000D01*
X144404762Y-112202381D01*
X144595239Y-112202381D01*
X144690477Y-112250000D01*
X144738096Y-112297619D01*
X144785715Y-112392857D01*
X144785715Y-112440476D01*
X144738096Y-112535714D01*
X144690477Y-112583333D01*
X144595239Y-112630952D01*
X144404762Y-112630952D01*
X144309524Y-112678571D01*
X144261905Y-112726190D01*
X144214286Y-112821429D01*
X144214286Y-113011905D01*
X144261905Y-113107143D01*
X144309524Y-113154762D01*
X144404762Y-113202381D01*
X144595239Y-113202381D01*
X144690477Y-113154762D01*
X144738096Y-113107143D01*
X144785715Y-113011905D01*
X144785715Y-112821429D01*
X144738096Y-112726190D01*
X144690477Y-112678571D01*
X144595239Y-112630952D01*
X142357143Y-132866666D02*
X142404762Y-132914285D01*
X142452381Y-133057142D01*
X142452381Y-133152380D01*
X142404762Y-133295238D01*
X142309524Y-133390476D01*
X142214286Y-133438095D01*
X142023810Y-133485714D01*
X141880952Y-133485714D01*
X141690476Y-133438095D01*
X141595238Y-133390476D01*
X141500000Y-133295238D01*
X141452381Y-133152380D01*
X141452381Y-133057142D01*
X141500000Y-132914285D01*
X141547619Y-132866666D01*
X142452381Y-132390476D02*
X142452381Y-132200000D01*
X142404762Y-132104761D01*
X142357143Y-132057142D01*
X142214286Y-131961904D01*
X142023810Y-131914285D01*
X141642857Y-131914285D01*
X141547619Y-131961904D01*
X141500000Y-132009523D01*
X141452381Y-132104761D01*
X141452381Y-132295238D01*
X141500000Y-132390476D01*
X141547619Y-132438095D01*
X141642857Y-132485714D01*
X141880952Y-132485714D01*
X141976190Y-132438095D01*
X142023810Y-132390476D01*
X142071429Y-132295238D01*
X142071429Y-132104761D01*
X142023810Y-132009523D01*
X141976190Y-131961904D01*
X141880952Y-131914285D01*
X143657143Y-133842857D02*
X143704762Y-133890476D01*
X143752381Y-134033333D01*
X143752381Y-134128571D01*
X143704762Y-134271429D01*
X143609524Y-134366667D01*
X143514286Y-134414286D01*
X143323810Y-134461905D01*
X143180952Y-134461905D01*
X142990476Y-134414286D01*
X142895238Y-134366667D01*
X142800000Y-134271429D01*
X142752381Y-134128571D01*
X142752381Y-134033333D01*
X142800000Y-133890476D01*
X142847619Y-133842857D01*
X143752381Y-132890476D02*
X143752381Y-133461905D01*
X143752381Y-133176191D02*
X142752381Y-133176191D01*
X142895238Y-133271429D01*
X142990476Y-133366667D01*
X143038095Y-133461905D01*
X142752381Y-132271429D02*
X142752381Y-132176190D01*
X142800000Y-132080952D01*
X142847619Y-132033333D01*
X142942857Y-131985714D01*
X143133333Y-131938095D01*
X143371429Y-131938095D01*
X143561905Y-131985714D01*
X143657143Y-132033333D01*
X143704762Y-132080952D01*
X143752381Y-132176190D01*
X143752381Y-132271429D01*
X143704762Y-132366667D01*
X143657143Y-132414286D01*
X143561905Y-132461905D01*
X143371429Y-132509524D01*
X143133333Y-132509524D01*
X142942857Y-132461905D01*
X142847619Y-132414286D01*
X142800000Y-132366667D01*
X142752381Y-132271429D01*
X145257143Y-133242857D02*
X145304762Y-133290476D01*
X145352381Y-133433333D01*
X145352381Y-133528571D01*
X145304762Y-133671429D01*
X145209524Y-133766667D01*
X145114286Y-133814286D01*
X144923810Y-133861905D01*
X144780952Y-133861905D01*
X144590476Y-133814286D01*
X144495238Y-133766667D01*
X144400000Y-133671429D01*
X144352381Y-133528571D01*
X144352381Y-133433333D01*
X144400000Y-133290476D01*
X144447619Y-133242857D01*
X145352381Y-132290476D02*
X145352381Y-132861905D01*
X145352381Y-132576191D02*
X144352381Y-132576191D01*
X144495238Y-132671429D01*
X144590476Y-132766667D01*
X144638095Y-132861905D01*
X145352381Y-131338095D02*
X145352381Y-131909524D01*
X145352381Y-131623810D02*
X144352381Y-131623810D01*
X144495238Y-131719048D01*
X144590476Y-131814286D01*
X144638095Y-131909524D01*
X149257143Y-133242857D02*
X149304762Y-133290476D01*
X149352381Y-133433333D01*
X149352381Y-133528571D01*
X149304762Y-133671429D01*
X149209524Y-133766667D01*
X149114286Y-133814286D01*
X148923810Y-133861905D01*
X148780952Y-133861905D01*
X148590476Y-133814286D01*
X148495238Y-133766667D01*
X148400000Y-133671429D01*
X148352381Y-133528571D01*
X148352381Y-133433333D01*
X148400000Y-133290476D01*
X148447619Y-133242857D01*
X149352381Y-132290476D02*
X149352381Y-132861905D01*
X149352381Y-132576191D02*
X148352381Y-132576191D01*
X148495238Y-132671429D01*
X148590476Y-132766667D01*
X148638095Y-132861905D01*
X148447619Y-131909524D02*
X148400000Y-131861905D01*
X148352381Y-131766667D01*
X148352381Y-131528571D01*
X148400000Y-131433333D01*
X148447619Y-131385714D01*
X148542857Y-131338095D01*
X148638095Y-131338095D01*
X148780952Y-131385714D01*
X149352381Y-131957143D01*
X149352381Y-131338095D01*
X167985715Y-102707143D02*
X167938096Y-102754762D01*
X167795239Y-102802381D01*
X167700001Y-102802381D01*
X167557143Y-102754762D01*
X167461905Y-102659524D01*
X167414286Y-102564286D01*
X167366667Y-102373810D01*
X167366667Y-102230952D01*
X167414286Y-102040476D01*
X167461905Y-101945238D01*
X167557143Y-101850000D01*
X167700001Y-101802381D01*
X167795239Y-101802381D01*
X167938096Y-101850000D01*
X167985715Y-101897619D01*
X168604762Y-101802381D02*
X168795239Y-101802381D01*
X168890477Y-101850000D01*
X168985715Y-101945238D01*
X169033334Y-102135714D01*
X169033334Y-102469048D01*
X168985715Y-102659524D01*
X168890477Y-102754762D01*
X168795239Y-102802381D01*
X168604762Y-102802381D01*
X168509524Y-102754762D01*
X168414286Y-102659524D01*
X168366667Y-102469048D01*
X168366667Y-102135714D01*
X168414286Y-101945238D01*
X168509524Y-101850000D01*
X168604762Y-101802381D01*
X169461905Y-102802381D02*
X169461905Y-101802381D01*
X170033334Y-102802381D01*
X170033334Y-101802381D01*
X171033334Y-102802381D02*
X170461905Y-102802381D01*
X170747619Y-102802381D02*
X170747619Y-101802381D01*
X170652381Y-101945238D01*
X170557143Y-102040476D01*
X170461905Y-102088095D01*
X117466667Y-141028571D02*
X117133333Y-141028571D01*
X117133333Y-141552381D02*
X117133333Y-140552381D01*
X117609524Y-140552381D01*
X118514286Y-141552381D02*
X117942857Y-141552381D01*
X118228571Y-141552381D02*
X118228571Y-140552381D01*
X118133333Y-140695238D01*
X118038095Y-140790476D01*
X117942857Y-140838095D01*
X132652381Y-116452381D02*
X133461905Y-116452381D01*
X133557143Y-116404762D01*
X133604762Y-116357143D01*
X133652381Y-116261905D01*
X133652381Y-116071428D01*
X133604762Y-115976190D01*
X133557143Y-115928571D01*
X133461905Y-115880952D01*
X132652381Y-115880952D01*
X133366667Y-115452381D02*
X133366667Y-114976190D01*
X133652381Y-115547619D02*
X132652381Y-115214286D01*
X133652381Y-114880952D01*
X133652381Y-113976190D02*
X133176190Y-114309524D01*
X133652381Y-114547619D02*
X132652381Y-114547619D01*
X132652381Y-114166666D01*
X132700000Y-114071428D01*
X132747619Y-114023809D01*
X132842857Y-113976190D01*
X132985714Y-113976190D01*
X133080952Y-114023809D01*
X133128571Y-114071428D01*
X133176190Y-114166666D01*
X133176190Y-114547619D01*
X132652381Y-113690476D02*
X132652381Y-113119047D01*
X133652381Y-113404762D02*
X132652381Y-113404762D01*
X133747619Y-113023809D02*
X133747619Y-112261904D01*
X133652381Y-111499999D02*
X133652381Y-112071428D01*
X133652381Y-111785714D02*
X132652381Y-111785714D01*
X132795238Y-111880952D01*
X132890476Y-111976190D01*
X132938095Y-112071428D01*
X175252381Y-114433333D02*
X174252381Y-114433333D01*
X174347619Y-114004762D02*
X174300000Y-113957143D01*
X174252381Y-113861905D01*
X174252381Y-113623809D01*
X174300000Y-113528571D01*
X174347619Y-113480952D01*
X174442857Y-113433333D01*
X174538095Y-113433333D01*
X174680952Y-113480952D01*
X175252381Y-114052381D01*
X175252381Y-113433333D01*
X175157143Y-112433333D02*
X175204762Y-112480952D01*
X175252381Y-112623809D01*
X175252381Y-112719047D01*
X175204762Y-112861905D01*
X175109524Y-112957143D01*
X175014286Y-113004762D01*
X174823810Y-113052381D01*
X174680952Y-113052381D01*
X174490476Y-113004762D01*
X174395238Y-112957143D01*
X174300000Y-112861905D01*
X174252381Y-112719047D01*
X174252381Y-112623809D01*
X174300000Y-112480952D01*
X174347619Y-112433333D01*
X175347619Y-112242857D02*
X175347619Y-111480952D01*
X174347619Y-111290476D02*
X174300000Y-111242857D01*
X174252381Y-111147619D01*
X174252381Y-110909523D01*
X174300000Y-110814285D01*
X174347619Y-110766666D01*
X174442857Y-110719047D01*
X174538095Y-110719047D01*
X174680952Y-110766666D01*
X175252381Y-111338095D01*
X175252381Y-110719047D01*
X168314286Y-129600000D02*
X168219048Y-129552381D01*
X168076191Y-129552381D01*
X167933333Y-129600000D01*
X167838095Y-129695238D01*
X167790476Y-129790476D01*
X167742857Y-129980952D01*
X167742857Y-130123810D01*
X167790476Y-130314286D01*
X167838095Y-130409524D01*
X167933333Y-130504762D01*
X168076191Y-130552381D01*
X168171429Y-130552381D01*
X168314286Y-130504762D01*
X168361905Y-130457143D01*
X168361905Y-130123810D01*
X168171429Y-130123810D01*
X168790476Y-130552381D02*
X168790476Y-129552381D01*
X169171429Y-129552381D01*
X169266667Y-129600000D01*
X169314286Y-129647619D01*
X169361905Y-129742857D01*
X169361905Y-129885714D01*
X169314286Y-129980952D01*
X169266667Y-130028571D01*
X169171429Y-130076190D01*
X168790476Y-130076190D01*
X169790476Y-130552381D02*
X169790476Y-129552381D01*
X170457142Y-129552381D02*
X170647619Y-129552381D01*
X170742857Y-129600000D01*
X170838095Y-129695238D01*
X170885714Y-129885714D01*
X170885714Y-130219048D01*
X170838095Y-130409524D01*
X170742857Y-130504762D01*
X170647619Y-130552381D01*
X170457142Y-130552381D01*
X170361904Y-130504762D01*
X170266666Y-130409524D01*
X170219047Y-130219048D01*
X170219047Y-129885714D01*
X170266666Y-129695238D01*
X170361904Y-129600000D01*
X170457142Y-129552381D01*
X171076190Y-130647619D02*
X171838095Y-130647619D01*
X172028571Y-130266667D02*
X172504762Y-130266667D01*
X171933333Y-130552381D02*
X172266666Y-129552381D01*
X172600000Y-130552381D01*
X173361905Y-129885714D02*
X173361905Y-130552381D01*
X173123809Y-129504762D02*
X172885714Y-130219048D01*
X173504762Y-130219048D01*
X168314286Y-125450000D02*
X168219048Y-125402381D01*
X168076191Y-125402381D01*
X167933333Y-125450000D01*
X167838095Y-125545238D01*
X167790476Y-125640476D01*
X167742857Y-125830952D01*
X167742857Y-125973810D01*
X167790476Y-126164286D01*
X167838095Y-126259524D01*
X167933333Y-126354762D01*
X168076191Y-126402381D01*
X168171429Y-126402381D01*
X168314286Y-126354762D01*
X168361905Y-126307143D01*
X168361905Y-125973810D01*
X168171429Y-125973810D01*
X168790476Y-126402381D02*
X168790476Y-125402381D01*
X169171429Y-125402381D01*
X169266667Y-125450000D01*
X169314286Y-125497619D01*
X169361905Y-125592857D01*
X169361905Y-125735714D01*
X169314286Y-125830952D01*
X169266667Y-125878571D01*
X169171429Y-125926190D01*
X168790476Y-125926190D01*
X169790476Y-126402381D02*
X169790476Y-125402381D01*
X170457142Y-125402381D02*
X170647619Y-125402381D01*
X170742857Y-125450000D01*
X170838095Y-125545238D01*
X170885714Y-125735714D01*
X170885714Y-126069048D01*
X170838095Y-126259524D01*
X170742857Y-126354762D01*
X170647619Y-126402381D01*
X170457142Y-126402381D01*
X170361904Y-126354762D01*
X170266666Y-126259524D01*
X170219047Y-126069048D01*
X170219047Y-125735714D01*
X170266666Y-125545238D01*
X170361904Y-125450000D01*
X170457142Y-125402381D01*
X171076190Y-126497619D02*
X171838095Y-126497619D01*
X172028571Y-126116667D02*
X172504762Y-126116667D01*
X171933333Y-126402381D02*
X172266666Y-125402381D01*
X172600000Y-126402381D01*
X173409524Y-125402381D02*
X172933333Y-125402381D01*
X172885714Y-125878571D01*
X172933333Y-125830952D01*
X173028571Y-125783333D01*
X173266667Y-125783333D01*
X173361905Y-125830952D01*
X173409524Y-125878571D01*
X173457143Y-125973810D01*
X173457143Y-126211905D01*
X173409524Y-126307143D01*
X173361905Y-126354762D01*
X173266667Y-126402381D01*
X173028571Y-126402381D01*
X172933333Y-126354762D01*
X172885714Y-126307143D01*
X168464286Y-121600000D02*
X168369048Y-121552381D01*
X168226191Y-121552381D01*
X168083333Y-121600000D01*
X167988095Y-121695238D01*
X167940476Y-121790476D01*
X167892857Y-121980952D01*
X167892857Y-122123810D01*
X167940476Y-122314286D01*
X167988095Y-122409524D01*
X168083333Y-122504762D01*
X168226191Y-122552381D01*
X168321429Y-122552381D01*
X168464286Y-122504762D01*
X168511905Y-122457143D01*
X168511905Y-122123810D01*
X168321429Y-122123810D01*
X168940476Y-122552381D02*
X168940476Y-121552381D01*
X169321429Y-121552381D01*
X169416667Y-121600000D01*
X169464286Y-121647619D01*
X169511905Y-121742857D01*
X169511905Y-121885714D01*
X169464286Y-121980952D01*
X169416667Y-122028571D01*
X169321429Y-122076190D01*
X168940476Y-122076190D01*
X169940476Y-122552381D02*
X169940476Y-121552381D01*
X170607142Y-121552381D02*
X170797619Y-121552381D01*
X170892857Y-121600000D01*
X170988095Y-121695238D01*
X171035714Y-121885714D01*
X171035714Y-122219048D01*
X170988095Y-122409524D01*
X170892857Y-122504762D01*
X170797619Y-122552381D01*
X170607142Y-122552381D01*
X170511904Y-122504762D01*
X170416666Y-122409524D01*
X170369047Y-122219048D01*
X170369047Y-121885714D01*
X170416666Y-121695238D01*
X170511904Y-121600000D01*
X170607142Y-121552381D01*
X171226190Y-122647619D02*
X171988095Y-122647619D01*
X172178571Y-122266667D02*
X172654762Y-122266667D01*
X172083333Y-122552381D02*
X172416666Y-121552381D01*
X172750000Y-122552381D01*
X173511905Y-121552381D02*
X173321428Y-121552381D01*
X173226190Y-121600000D01*
X173178571Y-121647619D01*
X173083333Y-121790476D01*
X173035714Y-121980952D01*
X173035714Y-122361905D01*
X173083333Y-122457143D01*
X173130952Y-122504762D01*
X173226190Y-122552381D01*
X173416667Y-122552381D01*
X173511905Y-122504762D01*
X173559524Y-122457143D01*
X173607143Y-122361905D01*
X173607143Y-122123810D01*
X173559524Y-122028571D01*
X173511905Y-121980952D01*
X173416667Y-121933333D01*
X173226190Y-121933333D01*
X173130952Y-121980952D01*
X173083333Y-122028571D01*
X173035714Y-122123810D01*
X168464286Y-117520000D02*
X168369048Y-117472381D01*
X168226191Y-117472381D01*
X168083333Y-117520000D01*
X167988095Y-117615238D01*
X167940476Y-117710476D01*
X167892857Y-117900952D01*
X167892857Y-118043810D01*
X167940476Y-118234286D01*
X167988095Y-118329524D01*
X168083333Y-118424762D01*
X168226191Y-118472381D01*
X168321429Y-118472381D01*
X168464286Y-118424762D01*
X168511905Y-118377143D01*
X168511905Y-118043810D01*
X168321429Y-118043810D01*
X168940476Y-118472381D02*
X168940476Y-117472381D01*
X169321429Y-117472381D01*
X169416667Y-117520000D01*
X169464286Y-117567619D01*
X169511905Y-117662857D01*
X169511905Y-117805714D01*
X169464286Y-117900952D01*
X169416667Y-117948571D01*
X169321429Y-117996190D01*
X168940476Y-117996190D01*
X169940476Y-118472381D02*
X169940476Y-117472381D01*
X170607142Y-117472381D02*
X170797619Y-117472381D01*
X170892857Y-117520000D01*
X170988095Y-117615238D01*
X171035714Y-117805714D01*
X171035714Y-118139048D01*
X170988095Y-118329524D01*
X170892857Y-118424762D01*
X170797619Y-118472381D01*
X170607142Y-118472381D01*
X170511904Y-118424762D01*
X170416666Y-118329524D01*
X170369047Y-118139048D01*
X170369047Y-117805714D01*
X170416666Y-117615238D01*
X170511904Y-117520000D01*
X170607142Y-117472381D01*
X171226190Y-118567619D02*
X171988095Y-118567619D01*
X172178571Y-118186667D02*
X172654762Y-118186667D01*
X172083333Y-118472381D02*
X172416666Y-117472381D01*
X172750000Y-118472381D01*
X172988095Y-117472381D02*
X173654762Y-117472381D01*
X173226190Y-118472381D01*
X123354762Y-121597619D02*
X123259524Y-121550000D01*
X123164286Y-121454762D01*
X123021429Y-121311905D01*
X122926190Y-121264286D01*
X122830952Y-121264286D01*
X122878571Y-121502381D02*
X122783333Y-121454762D01*
X122688095Y-121359524D01*
X122640476Y-121169048D01*
X122640476Y-120835714D01*
X122688095Y-120645238D01*
X122783333Y-120550000D01*
X122878571Y-120502381D01*
X123069048Y-120502381D01*
X123164286Y-120550000D01*
X123259524Y-120645238D01*
X123307143Y-120835714D01*
X123307143Y-121169048D01*
X123259524Y-121359524D01*
X123164286Y-121454762D01*
X123069048Y-121502381D01*
X122878571Y-121502381D01*
X124259524Y-121502381D02*
X123688095Y-121502381D01*
X123973809Y-121502381D02*
X123973809Y-120502381D01*
X123878571Y-120645238D01*
X123783333Y-120740476D01*
X123688095Y-120788095D01*
X127304762Y-127847619D02*
X127209524Y-127800000D01*
X127114286Y-127704762D01*
X126971429Y-127561905D01*
X126876190Y-127514286D01*
X126780952Y-127514286D01*
X126828571Y-127752381D02*
X126733333Y-127704762D01*
X126638095Y-127609524D01*
X126590476Y-127419048D01*
X126590476Y-127085714D01*
X126638095Y-126895238D01*
X126733333Y-126800000D01*
X126828571Y-126752381D01*
X127019048Y-126752381D01*
X127114286Y-126800000D01*
X127209524Y-126895238D01*
X127257143Y-127085714D01*
X127257143Y-127419048D01*
X127209524Y-127609524D01*
X127114286Y-127704762D01*
X127019048Y-127752381D01*
X126828571Y-127752381D01*
X127638095Y-126847619D02*
X127685714Y-126800000D01*
X127780952Y-126752381D01*
X128019048Y-126752381D01*
X128114286Y-126800000D01*
X128161905Y-126847619D01*
X128209524Y-126942857D01*
X128209524Y-127038095D01*
X128161905Y-127180952D01*
X127590476Y-127752381D01*
X128209524Y-127752381D01*
X108304762Y-120847619D02*
X108209524Y-120800000D01*
X108114286Y-120704762D01*
X107971429Y-120561905D01*
X107876190Y-120514286D01*
X107780952Y-120514286D01*
X107828571Y-120752381D02*
X107733333Y-120704762D01*
X107638095Y-120609524D01*
X107590476Y-120419048D01*
X107590476Y-120085714D01*
X107638095Y-119895238D01*
X107733333Y-119800000D01*
X107828571Y-119752381D01*
X108019048Y-119752381D01*
X108114286Y-119800000D01*
X108209524Y-119895238D01*
X108257143Y-120085714D01*
X108257143Y-120419048D01*
X108209524Y-120609524D01*
X108114286Y-120704762D01*
X108019048Y-120752381D01*
X107828571Y-120752381D01*
X108590476Y-119752381D02*
X109209524Y-119752381D01*
X108876190Y-120133333D01*
X109019048Y-120133333D01*
X109114286Y-120180952D01*
X109161905Y-120228571D01*
X109209524Y-120323810D01*
X109209524Y-120561905D01*
X109161905Y-120657143D01*
X109114286Y-120704762D01*
X109019048Y-120752381D01*
X108733333Y-120752381D01*
X108638095Y-120704762D01*
X108590476Y-120657143D01*
X130183334Y-122302381D02*
X129850000Y-121826190D01*
X129611905Y-122302381D02*
X129611905Y-121302381D01*
X129992858Y-121302381D01*
X130088096Y-121350000D01*
X130135715Y-121397619D01*
X130183334Y-121492857D01*
X130183334Y-121635714D01*
X130135715Y-121730952D01*
X130088096Y-121778571D01*
X129992858Y-121826190D01*
X129611905Y-121826190D01*
X131135715Y-122302381D02*
X130564286Y-122302381D01*
X130850000Y-122302381D02*
X130850000Y-121302381D01*
X130754762Y-121445238D01*
X130659524Y-121540476D01*
X130564286Y-121588095D01*
X130183334Y-124202381D02*
X129850000Y-123726190D01*
X129611905Y-124202381D02*
X129611905Y-123202381D01*
X129992858Y-123202381D01*
X130088096Y-123250000D01*
X130135715Y-123297619D01*
X130183334Y-123392857D01*
X130183334Y-123535714D01*
X130135715Y-123630952D01*
X130088096Y-123678571D01*
X129992858Y-123726190D01*
X129611905Y-123726190D01*
X130564286Y-123297619D02*
X130611905Y-123250000D01*
X130707143Y-123202381D01*
X130945239Y-123202381D01*
X131040477Y-123250000D01*
X131088096Y-123297619D01*
X131135715Y-123392857D01*
X131135715Y-123488095D01*
X131088096Y-123630952D01*
X130516667Y-124202381D01*
X131135715Y-124202381D01*
X170283334Y-137402381D02*
X169950000Y-136926190D01*
X169711905Y-137402381D02*
X169711905Y-136402381D01*
X170092858Y-136402381D01*
X170188096Y-136450000D01*
X170235715Y-136497619D01*
X170283334Y-136592857D01*
X170283334Y-136735714D01*
X170235715Y-136830952D01*
X170188096Y-136878571D01*
X170092858Y-136926190D01*
X169711905Y-136926190D01*
X170616667Y-136402381D02*
X171235715Y-136402381D01*
X170902381Y-136783333D01*
X171045239Y-136783333D01*
X171140477Y-136830952D01*
X171188096Y-136878571D01*
X171235715Y-136973810D01*
X171235715Y-137211905D01*
X171188096Y-137307143D01*
X171140477Y-137354762D01*
X171045239Y-137402381D01*
X170759524Y-137402381D01*
X170664286Y-137354762D01*
X170616667Y-137307143D01*
X167683334Y-137402381D02*
X167350000Y-136926190D01*
X167111905Y-137402381D02*
X167111905Y-136402381D01*
X167492858Y-136402381D01*
X167588096Y-136450000D01*
X167635715Y-136497619D01*
X167683334Y-136592857D01*
X167683334Y-136735714D01*
X167635715Y-136830952D01*
X167588096Y-136878571D01*
X167492858Y-136926190D01*
X167111905Y-136926190D01*
X168540477Y-136735714D02*
X168540477Y-137402381D01*
X168302381Y-136354762D02*
X168064286Y-137069048D01*
X168683334Y-137069048D01*
X165083334Y-137402381D02*
X164750000Y-136926190D01*
X164511905Y-137402381D02*
X164511905Y-136402381D01*
X164892858Y-136402381D01*
X164988096Y-136450000D01*
X165035715Y-136497619D01*
X165083334Y-136592857D01*
X165083334Y-136735714D01*
X165035715Y-136830952D01*
X164988096Y-136878571D01*
X164892858Y-136926190D01*
X164511905Y-136926190D01*
X165988096Y-136402381D02*
X165511905Y-136402381D01*
X165464286Y-136878571D01*
X165511905Y-136830952D01*
X165607143Y-136783333D01*
X165845239Y-136783333D01*
X165940477Y-136830952D01*
X165988096Y-136878571D01*
X166035715Y-136973810D01*
X166035715Y-137211905D01*
X165988096Y-137307143D01*
X165940477Y-137354762D01*
X165845239Y-137402381D01*
X165607143Y-137402381D01*
X165511905Y-137354762D01*
X165464286Y-137307143D01*
X130133334Y-131752381D02*
X129800000Y-131276190D01*
X129561905Y-131752381D02*
X129561905Y-130752381D01*
X129942858Y-130752381D01*
X130038096Y-130800000D01*
X130085715Y-130847619D01*
X130133334Y-130942857D01*
X130133334Y-131085714D01*
X130085715Y-131180952D01*
X130038096Y-131228571D01*
X129942858Y-131276190D01*
X129561905Y-131276190D01*
X130990477Y-130752381D02*
X130800000Y-130752381D01*
X130704762Y-130800000D01*
X130657143Y-130847619D01*
X130561905Y-130990476D01*
X130514286Y-131180952D01*
X130514286Y-131561905D01*
X130561905Y-131657143D01*
X130609524Y-131704762D01*
X130704762Y-131752381D01*
X130895239Y-131752381D01*
X130990477Y-131704762D01*
X131038096Y-131657143D01*
X131085715Y-131561905D01*
X131085715Y-131323810D01*
X131038096Y-131228571D01*
X130990477Y-131180952D01*
X130895239Y-131133333D01*
X130704762Y-131133333D01*
X130609524Y-131180952D01*
X130561905Y-131228571D01*
X130514286Y-131323810D01*
X170383334Y-133202381D02*
X170050000Y-132726190D01*
X169811905Y-133202381D02*
X169811905Y-132202381D01*
X170192858Y-132202381D01*
X170288096Y-132250000D01*
X170335715Y-132297619D01*
X170383334Y-132392857D01*
X170383334Y-132535714D01*
X170335715Y-132630952D01*
X170288096Y-132678571D01*
X170192858Y-132726190D01*
X169811905Y-132726190D01*
X170716667Y-132202381D02*
X171383334Y-132202381D01*
X170954762Y-133202381D01*
X167683334Y-133302381D02*
X167350000Y-132826190D01*
X167111905Y-133302381D02*
X167111905Y-132302381D01*
X167492858Y-132302381D01*
X167588096Y-132350000D01*
X167635715Y-132397619D01*
X167683334Y-132492857D01*
X167683334Y-132635714D01*
X167635715Y-132730952D01*
X167588096Y-132778571D01*
X167492858Y-132826190D01*
X167111905Y-132826190D01*
X168254762Y-132730952D02*
X168159524Y-132683333D01*
X168111905Y-132635714D01*
X168064286Y-132540476D01*
X168064286Y-132492857D01*
X168111905Y-132397619D01*
X168159524Y-132350000D01*
X168254762Y-132302381D01*
X168445239Y-132302381D01*
X168540477Y-132350000D01*
X168588096Y-132397619D01*
X168635715Y-132492857D01*
X168635715Y-132540476D01*
X168588096Y-132635714D01*
X168540477Y-132683333D01*
X168445239Y-132730952D01*
X168254762Y-132730952D01*
X168159524Y-132778571D01*
X168111905Y-132826190D01*
X168064286Y-132921429D01*
X168064286Y-133111905D01*
X168111905Y-133207143D01*
X168159524Y-133254762D01*
X168254762Y-133302381D01*
X168445239Y-133302381D01*
X168540477Y-133254762D01*
X168588096Y-133207143D01*
X168635715Y-133111905D01*
X168635715Y-132921429D01*
X168588096Y-132826190D01*
X168540477Y-132778571D01*
X168445239Y-132730952D01*
X165183334Y-133202381D02*
X164850000Y-132726190D01*
X164611905Y-133202381D02*
X164611905Y-132202381D01*
X164992858Y-132202381D01*
X165088096Y-132250000D01*
X165135715Y-132297619D01*
X165183334Y-132392857D01*
X165183334Y-132535714D01*
X165135715Y-132630952D01*
X165088096Y-132678571D01*
X164992858Y-132726190D01*
X164611905Y-132726190D01*
X165659524Y-133202381D02*
X165850000Y-133202381D01*
X165945239Y-133154762D01*
X165992858Y-133107143D01*
X166088096Y-132964286D01*
X166135715Y-132773810D01*
X166135715Y-132392857D01*
X166088096Y-132297619D01*
X166040477Y-132250000D01*
X165945239Y-132202381D01*
X165754762Y-132202381D01*
X165659524Y-132250000D01*
X165611905Y-132297619D01*
X165564286Y-132392857D01*
X165564286Y-132630952D01*
X165611905Y-132726190D01*
X165659524Y-132773810D01*
X165754762Y-132821429D01*
X165945239Y-132821429D01*
X166040477Y-132773810D01*
X166088096Y-132726190D01*
X166135715Y-132630952D01*
X132252381Y-129442857D02*
X131776190Y-129776191D01*
X132252381Y-130014286D02*
X131252381Y-130014286D01*
X131252381Y-129633333D01*
X131300000Y-129538095D01*
X131347619Y-129490476D01*
X131442857Y-129442857D01*
X131585714Y-129442857D01*
X131680952Y-129490476D01*
X131728571Y-129538095D01*
X131776190Y-129633333D01*
X131776190Y-130014286D01*
X132252381Y-128490476D02*
X132252381Y-129061905D01*
X132252381Y-128776191D02*
X131252381Y-128776191D01*
X131395238Y-128871429D01*
X131490476Y-128966667D01*
X131538095Y-129061905D01*
X131252381Y-127871429D02*
X131252381Y-127776190D01*
X131300000Y-127680952D01*
X131347619Y-127633333D01*
X131442857Y-127585714D01*
X131633333Y-127538095D01*
X131871429Y-127538095D01*
X132061905Y-127585714D01*
X132157143Y-127633333D01*
X132204762Y-127680952D01*
X132252381Y-127776190D01*
X132252381Y-127871429D01*
X132204762Y-127966667D01*
X132157143Y-128014286D01*
X132061905Y-128061905D01*
X131871429Y-128109524D01*
X131633333Y-128109524D01*
X131442857Y-128061905D01*
X131347619Y-128014286D01*
X131300000Y-127966667D01*
X131252381Y-127871429D01*
X139957143Y-112152381D02*
X139623809Y-111676190D01*
X139385714Y-112152381D02*
X139385714Y-111152381D01*
X139766667Y-111152381D01*
X139861905Y-111200000D01*
X139909524Y-111247619D01*
X139957143Y-111342857D01*
X139957143Y-111485714D01*
X139909524Y-111580952D01*
X139861905Y-111628571D01*
X139766667Y-111676190D01*
X139385714Y-111676190D01*
X140909524Y-112152381D02*
X140338095Y-112152381D01*
X140623809Y-112152381D02*
X140623809Y-111152381D01*
X140528571Y-111295238D01*
X140433333Y-111390476D01*
X140338095Y-111438095D01*
X141861905Y-112152381D02*
X141290476Y-112152381D01*
X141576190Y-112152381D02*
X141576190Y-111152381D01*
X141480952Y-111295238D01*
X141385714Y-111390476D01*
X141290476Y-111438095D01*
X159457143Y-121052381D02*
X159123809Y-120576190D01*
X158885714Y-121052381D02*
X158885714Y-120052381D01*
X159266667Y-120052381D01*
X159361905Y-120100000D01*
X159409524Y-120147619D01*
X159457143Y-120242857D01*
X159457143Y-120385714D01*
X159409524Y-120480952D01*
X159361905Y-120528571D01*
X159266667Y-120576190D01*
X158885714Y-120576190D01*
X160409524Y-121052381D02*
X159838095Y-121052381D01*
X160123809Y-121052381D02*
X160123809Y-120052381D01*
X160028571Y-120195238D01*
X159933333Y-120290476D01*
X159838095Y-120338095D01*
X160790476Y-120147619D02*
X160838095Y-120100000D01*
X160933333Y-120052381D01*
X161171429Y-120052381D01*
X161266667Y-120100000D01*
X161314286Y-120147619D01*
X161361905Y-120242857D01*
X161361905Y-120338095D01*
X161314286Y-120480952D01*
X160742857Y-121052381D01*
X161361905Y-121052381D01*
X159457143Y-119752381D02*
X159123809Y-119276190D01*
X158885714Y-119752381D02*
X158885714Y-118752381D01*
X159266667Y-118752381D01*
X159361905Y-118800000D01*
X159409524Y-118847619D01*
X159457143Y-118942857D01*
X159457143Y-119085714D01*
X159409524Y-119180952D01*
X159361905Y-119228571D01*
X159266667Y-119276190D01*
X158885714Y-119276190D01*
X160409524Y-119752381D02*
X159838095Y-119752381D01*
X160123809Y-119752381D02*
X160123809Y-118752381D01*
X160028571Y-118895238D01*
X159933333Y-118990476D01*
X159838095Y-119038095D01*
X160742857Y-118752381D02*
X161361905Y-118752381D01*
X161028571Y-119133333D01*
X161171429Y-119133333D01*
X161266667Y-119180952D01*
X161314286Y-119228571D01*
X161361905Y-119323810D01*
X161361905Y-119561905D01*
X161314286Y-119657143D01*
X161266667Y-119704762D01*
X161171429Y-119752381D01*
X160885714Y-119752381D01*
X160790476Y-119704762D01*
X160742857Y-119657143D01*
X159457143Y-118452381D02*
X159123809Y-117976190D01*
X158885714Y-118452381D02*
X158885714Y-117452381D01*
X159266667Y-117452381D01*
X159361905Y-117500000D01*
X159409524Y-117547619D01*
X159457143Y-117642857D01*
X159457143Y-117785714D01*
X159409524Y-117880952D01*
X159361905Y-117928571D01*
X159266667Y-117976190D01*
X158885714Y-117976190D01*
X160409524Y-118452381D02*
X159838095Y-118452381D01*
X160123809Y-118452381D02*
X160123809Y-117452381D01*
X160028571Y-117595238D01*
X159933333Y-117690476D01*
X159838095Y-117738095D01*
X161266667Y-117785714D02*
X161266667Y-118452381D01*
X161028571Y-117404762D02*
X160790476Y-118119048D01*
X161409524Y-118119048D01*
X156007143Y-119452381D02*
X155673809Y-118976190D01*
X155435714Y-119452381D02*
X155435714Y-118452381D01*
X155816667Y-118452381D01*
X155911905Y-118500000D01*
X155959524Y-118547619D01*
X156007143Y-118642857D01*
X156007143Y-118785714D01*
X155959524Y-118880952D01*
X155911905Y-118928571D01*
X155816667Y-118976190D01*
X155435714Y-118976190D01*
X156959524Y-119452381D02*
X156388095Y-119452381D01*
X156673809Y-119452381D02*
X156673809Y-118452381D01*
X156578571Y-118595238D01*
X156483333Y-118690476D01*
X156388095Y-118738095D01*
X157864286Y-118452381D02*
X157388095Y-118452381D01*
X157340476Y-118928571D01*
X157388095Y-118880952D01*
X157483333Y-118833333D01*
X157721429Y-118833333D01*
X157816667Y-118880952D01*
X157864286Y-118928571D01*
X157911905Y-119023810D01*
X157911905Y-119261905D01*
X157864286Y-119357143D01*
X157816667Y-119404762D01*
X157721429Y-119452381D01*
X157483333Y-119452381D01*
X157388095Y-119404762D01*
X157340476Y-119357143D01*
X175252381Y-106842857D02*
X174776190Y-107176191D01*
X175252381Y-107414286D02*
X174252381Y-107414286D01*
X174252381Y-107033333D01*
X174300000Y-106938095D01*
X174347619Y-106890476D01*
X174442857Y-106842857D01*
X174585714Y-106842857D01*
X174680952Y-106890476D01*
X174728571Y-106938095D01*
X174776190Y-107033333D01*
X174776190Y-107414286D01*
X175252381Y-105890476D02*
X175252381Y-106461905D01*
X175252381Y-106176191D02*
X174252381Y-106176191D01*
X174395238Y-106271429D01*
X174490476Y-106366667D01*
X174538095Y-106461905D01*
X174252381Y-105033333D02*
X174252381Y-105223810D01*
X174300000Y-105319048D01*
X174347619Y-105366667D01*
X174490476Y-105461905D01*
X174680952Y-105509524D01*
X175061905Y-105509524D01*
X175157143Y-105461905D01*
X175204762Y-105414286D01*
X175252381Y-105319048D01*
X175252381Y-105128571D01*
X175204762Y-105033333D01*
X175157143Y-104985714D01*
X175061905Y-104938095D01*
X174823810Y-104938095D01*
X174728571Y-104985714D01*
X174680952Y-105033333D01*
X174633333Y-105128571D01*
X174633333Y-105319048D01*
X174680952Y-105414286D01*
X174728571Y-105461905D01*
X174823810Y-105509524D01*
X173852381Y-106842857D02*
X173376190Y-107176191D01*
X173852381Y-107414286D02*
X172852381Y-107414286D01*
X172852381Y-107033333D01*
X172900000Y-106938095D01*
X172947619Y-106890476D01*
X173042857Y-106842857D01*
X173185714Y-106842857D01*
X173280952Y-106890476D01*
X173328571Y-106938095D01*
X173376190Y-107033333D01*
X173376190Y-107414286D01*
X173852381Y-105890476D02*
X173852381Y-106461905D01*
X173852381Y-106176191D02*
X172852381Y-106176191D01*
X172995238Y-106271429D01*
X173090476Y-106366667D01*
X173138095Y-106461905D01*
X172852381Y-105557143D02*
X172852381Y-104890476D01*
X173852381Y-105319048D01*
X169752381Y-112642857D02*
X169276190Y-112976191D01*
X169752381Y-113214286D02*
X168752381Y-113214286D01*
X168752381Y-112833333D01*
X168800000Y-112738095D01*
X168847619Y-112690476D01*
X168942857Y-112642857D01*
X169085714Y-112642857D01*
X169180952Y-112690476D01*
X169228571Y-112738095D01*
X169276190Y-112833333D01*
X169276190Y-113214286D01*
X169752381Y-111690476D02*
X169752381Y-112261905D01*
X169752381Y-111976191D02*
X168752381Y-111976191D01*
X168895238Y-112071429D01*
X168990476Y-112166667D01*
X169038095Y-112261905D01*
X169180952Y-111119048D02*
X169133333Y-111214286D01*
X169085714Y-111261905D01*
X168990476Y-111309524D01*
X168942857Y-111309524D01*
X168847619Y-111261905D01*
X168800000Y-111214286D01*
X168752381Y-111119048D01*
X168752381Y-110928571D01*
X168800000Y-110833333D01*
X168847619Y-110785714D01*
X168942857Y-110738095D01*
X168990476Y-110738095D01*
X169085714Y-110785714D01*
X169133333Y-110833333D01*
X169180952Y-110928571D01*
X169180952Y-111119048D01*
X169228571Y-111214286D01*
X169276190Y-111261905D01*
X169371429Y-111309524D01*
X169561905Y-111309524D01*
X169657143Y-111261905D01*
X169704762Y-111214286D01*
X169752381Y-111119048D01*
X169752381Y-110928571D01*
X169704762Y-110833333D01*
X169657143Y-110785714D01*
X169561905Y-110738095D01*
X169371429Y-110738095D01*
X169276190Y-110785714D01*
X169228571Y-110833333D01*
X169180952Y-110928571D01*
X168452381Y-112642857D02*
X167976190Y-112976191D01*
X168452381Y-113214286D02*
X167452381Y-113214286D01*
X167452381Y-112833333D01*
X167500000Y-112738095D01*
X167547619Y-112690476D01*
X167642857Y-112642857D01*
X167785714Y-112642857D01*
X167880952Y-112690476D01*
X167928571Y-112738095D01*
X167976190Y-112833333D01*
X167976190Y-113214286D01*
X168452381Y-111690476D02*
X168452381Y-112261905D01*
X168452381Y-111976191D02*
X167452381Y-111976191D01*
X167595238Y-112071429D01*
X167690476Y-112166667D01*
X167738095Y-112261905D01*
X168452381Y-111214286D02*
X168452381Y-111023810D01*
X168404762Y-110928571D01*
X168357143Y-110880952D01*
X168214286Y-110785714D01*
X168023810Y-110738095D01*
X167642857Y-110738095D01*
X167547619Y-110785714D01*
X167500000Y-110833333D01*
X167452381Y-110928571D01*
X167452381Y-111119048D01*
X167500000Y-111214286D01*
X167547619Y-111261905D01*
X167642857Y-111309524D01*
X167880952Y-111309524D01*
X167976190Y-111261905D01*
X168023810Y-111214286D01*
X168071429Y-111119048D01*
X168071429Y-110928571D01*
X168023810Y-110833333D01*
X167976190Y-110785714D01*
X167880952Y-110738095D01*
X167052381Y-112642857D02*
X166576190Y-112976191D01*
X167052381Y-113214286D02*
X166052381Y-113214286D01*
X166052381Y-112833333D01*
X166100000Y-112738095D01*
X166147619Y-112690476D01*
X166242857Y-112642857D01*
X166385714Y-112642857D01*
X166480952Y-112690476D01*
X166528571Y-112738095D01*
X166576190Y-112833333D01*
X166576190Y-113214286D01*
X166147619Y-112261905D02*
X166100000Y-112214286D01*
X166052381Y-112119048D01*
X166052381Y-111880952D01*
X166100000Y-111785714D01*
X166147619Y-111738095D01*
X166242857Y-111690476D01*
X166338095Y-111690476D01*
X166480952Y-111738095D01*
X167052381Y-112309524D01*
X167052381Y-111690476D01*
X166052381Y-111071429D02*
X166052381Y-110976190D01*
X166100000Y-110880952D01*
X166147619Y-110833333D01*
X166242857Y-110785714D01*
X166433333Y-110738095D01*
X166671429Y-110738095D01*
X166861905Y-110785714D01*
X166957143Y-110833333D01*
X167004762Y-110880952D01*
X167052381Y-110976190D01*
X167052381Y-111071429D01*
X167004762Y-111166667D01*
X166957143Y-111214286D01*
X166861905Y-111261905D01*
X166671429Y-111309524D01*
X166433333Y-111309524D01*
X166242857Y-111261905D01*
X166147619Y-111214286D01*
X166100000Y-111166667D01*
X166052381Y-111071429D01*
X142452381Y-115842857D02*
X141976190Y-116176191D01*
X142452381Y-116414286D02*
X141452381Y-116414286D01*
X141452381Y-116033333D01*
X141500000Y-115938095D01*
X141547619Y-115890476D01*
X141642857Y-115842857D01*
X141785714Y-115842857D01*
X141880952Y-115890476D01*
X141928571Y-115938095D01*
X141976190Y-116033333D01*
X141976190Y-116414286D01*
X141547619Y-115461905D02*
X141500000Y-115414286D01*
X141452381Y-115319048D01*
X141452381Y-115080952D01*
X141500000Y-114985714D01*
X141547619Y-114938095D01*
X141642857Y-114890476D01*
X141738095Y-114890476D01*
X141880952Y-114938095D01*
X142452381Y-115509524D01*
X142452381Y-114890476D01*
X142452381Y-113938095D02*
X142452381Y-114509524D01*
X142452381Y-114223810D02*
X141452381Y-114223810D01*
X141595238Y-114319048D01*
X141690476Y-114414286D01*
X141738095Y-114509524D01*
X148057143Y-113252381D02*
X147723809Y-112776190D01*
X147485714Y-113252381D02*
X147485714Y-112252381D01*
X147866667Y-112252381D01*
X147961905Y-112300000D01*
X148009524Y-112347619D01*
X148057143Y-112442857D01*
X148057143Y-112585714D01*
X148009524Y-112680952D01*
X147961905Y-112728571D01*
X147866667Y-112776190D01*
X147485714Y-112776190D01*
X148438095Y-112347619D02*
X148485714Y-112300000D01*
X148580952Y-112252381D01*
X148819048Y-112252381D01*
X148914286Y-112300000D01*
X148961905Y-112347619D01*
X149009524Y-112442857D01*
X149009524Y-112538095D01*
X148961905Y-112680952D01*
X148390476Y-113252381D01*
X149009524Y-113252381D01*
X149390476Y-112347619D02*
X149438095Y-112300000D01*
X149533333Y-112252381D01*
X149771429Y-112252381D01*
X149866667Y-112300000D01*
X149914286Y-112347619D01*
X149961905Y-112442857D01*
X149961905Y-112538095D01*
X149914286Y-112680952D01*
X149342857Y-113252381D01*
X149961905Y-113252381D01*
X140452381Y-126392857D02*
X139976190Y-126726191D01*
X140452381Y-126964286D02*
X139452381Y-126964286D01*
X139452381Y-126583333D01*
X139500000Y-126488095D01*
X139547619Y-126440476D01*
X139642857Y-126392857D01*
X139785714Y-126392857D01*
X139880952Y-126440476D01*
X139928571Y-126488095D01*
X139976190Y-126583333D01*
X139976190Y-126964286D01*
X139547619Y-126011905D02*
X139500000Y-125964286D01*
X139452381Y-125869048D01*
X139452381Y-125630952D01*
X139500000Y-125535714D01*
X139547619Y-125488095D01*
X139642857Y-125440476D01*
X139738095Y-125440476D01*
X139880952Y-125488095D01*
X140452381Y-126059524D01*
X140452381Y-125440476D01*
X139452381Y-125107143D02*
X139452381Y-124488095D01*
X139833333Y-124821429D01*
X139833333Y-124678571D01*
X139880952Y-124583333D01*
X139928571Y-124535714D01*
X140023810Y-124488095D01*
X140261905Y-124488095D01*
X140357143Y-124535714D01*
X140404762Y-124583333D01*
X140452381Y-124678571D01*
X140452381Y-124964286D01*
X140404762Y-125059524D01*
X140357143Y-125107143D01*
X140452381Y-118892857D02*
X139976190Y-119226191D01*
X140452381Y-119464286D02*
X139452381Y-119464286D01*
X139452381Y-119083333D01*
X139500000Y-118988095D01*
X139547619Y-118940476D01*
X139642857Y-118892857D01*
X139785714Y-118892857D01*
X139880952Y-118940476D01*
X139928571Y-118988095D01*
X139976190Y-119083333D01*
X139976190Y-119464286D01*
X139547619Y-118511905D02*
X139500000Y-118464286D01*
X139452381Y-118369048D01*
X139452381Y-118130952D01*
X139500000Y-118035714D01*
X139547619Y-117988095D01*
X139642857Y-117940476D01*
X139738095Y-117940476D01*
X139880952Y-117988095D01*
X140452381Y-118559524D01*
X140452381Y-117940476D01*
X139785714Y-117083333D02*
X140452381Y-117083333D01*
X139404762Y-117321429D02*
X140119048Y-117559524D01*
X140119048Y-116940476D01*
X101888095Y-116952381D02*
X101888095Y-117761905D01*
X101935714Y-117857143D01*
X101983333Y-117904762D01*
X102078571Y-117952381D01*
X102269048Y-117952381D01*
X102364286Y-117904762D01*
X102411905Y-117857143D01*
X102459524Y-117761905D01*
X102459524Y-116952381D01*
X102888095Y-117047619D02*
X102935714Y-117000000D01*
X103030952Y-116952381D01*
X103269048Y-116952381D01*
X103364286Y-117000000D01*
X103411905Y-117047619D01*
X103459524Y-117142857D01*
X103459524Y-117238095D01*
X103411905Y-117380952D01*
X102840476Y-117952381D01*
X103459524Y-117952381D01*
X141890476Y-126252381D02*
X142557143Y-127252381D01*
X142557143Y-126252381D02*
X141890476Y-127252381D01*
X143461905Y-127252381D02*
X142890476Y-127252381D01*
X143176190Y-127252381D02*
X143176190Y-126252381D01*
X143080952Y-126395238D01*
X142985714Y-126490476D01*
X142890476Y-126538095D01*
D13*
X146280333Y-128713167D02*
X146873000Y-129602167D01*
X146873000Y-128713167D02*
X146280333Y-129602167D01*
X147169333Y-128797833D02*
X147211667Y-128755500D01*
X147296333Y-128713167D01*
X147508000Y-128713167D01*
X147592667Y-128755500D01*
X147635000Y-128797833D01*
X147677333Y-128882500D01*
X147677333Y-128967167D01*
X147635000Y-129094167D01*
X147127000Y-129602167D01*
X147677333Y-129602167D01*
D11*
X161271429Y-100728571D02*
X161414286Y-100776190D01*
X161461905Y-100823810D01*
X161509524Y-100919048D01*
X161509524Y-101061905D01*
X161461905Y-101157143D01*
X161414286Y-101204762D01*
X161319048Y-101252381D01*
X160938095Y-101252381D01*
X160938095Y-100252381D01*
X161271429Y-100252381D01*
X161366667Y-100300000D01*
X161414286Y-100347619D01*
X161461905Y-100442857D01*
X161461905Y-100538095D01*
X161414286Y-100633333D01*
X161366667Y-100680952D01*
X161271429Y-100728571D01*
X160938095Y-100728571D01*
X161938095Y-100252381D02*
X161938095Y-101061905D01*
X161985714Y-101157143D01*
X162033333Y-101204762D01*
X162128571Y-101252381D01*
X162319048Y-101252381D01*
X162414286Y-101204762D01*
X162461905Y-101157143D01*
X162509524Y-101061905D01*
X162509524Y-100252381D01*
X162938095Y-101204762D02*
X163080952Y-101252381D01*
X163319048Y-101252381D01*
X163414286Y-101204762D01*
X163461905Y-101157143D01*
X163509524Y-101061905D01*
X163509524Y-100966667D01*
X163461905Y-100871429D01*
X163414286Y-100823810D01*
X163319048Y-100776190D01*
X163128571Y-100728571D01*
X163033333Y-100680952D01*
X162985714Y-100633333D01*
X162938095Y-100538095D01*
X162938095Y-100442857D01*
X162985714Y-100347619D01*
X163033333Y-100300000D01*
X163128571Y-100252381D01*
X163366667Y-100252381D01*
X163509524Y-100300000D01*
X109328571Y-130528571D02*
X109471428Y-130576190D01*
X109519047Y-130623810D01*
X109566666Y-130719048D01*
X109566666Y-130861905D01*
X109519047Y-130957143D01*
X109471428Y-131004762D01*
X109376190Y-131052381D01*
X108995237Y-131052381D01*
X108995237Y-130052381D01*
X109328571Y-130052381D01*
X109423809Y-130100000D01*
X109471428Y-130147619D01*
X109519047Y-130242857D01*
X109519047Y-130338095D01*
X109471428Y-130433333D01*
X109423809Y-130480952D01*
X109328571Y-130528571D01*
X108995237Y-130528571D01*
X110423809Y-131052381D02*
X110423809Y-130528571D01*
X110376190Y-130433333D01*
X110280952Y-130385714D01*
X110090475Y-130385714D01*
X109995237Y-130433333D01*
X110423809Y-131004762D02*
X110328571Y-131052381D01*
X110090475Y-131052381D01*
X109995237Y-131004762D01*
X109947618Y-130909524D01*
X109947618Y-130814286D01*
X109995237Y-130719048D01*
X110090475Y-130671429D01*
X110328571Y-130671429D01*
X110423809Y-130623810D01*
X110757142Y-130385714D02*
X111138094Y-130385714D01*
X110899999Y-130052381D02*
X110899999Y-130909524D01*
X110947618Y-131004762D01*
X111042856Y-131052381D01*
X111138094Y-131052381D01*
X111328571Y-130385714D02*
X111709523Y-130385714D01*
X111471428Y-130052381D02*
X111471428Y-130909524D01*
X111519047Y-131004762D01*
X111614285Y-131052381D01*
X111709523Y-131052381D01*
X112423810Y-131004762D02*
X112328572Y-131052381D01*
X112138095Y-131052381D01*
X112042857Y-131004762D01*
X111995238Y-130909524D01*
X111995238Y-130528571D01*
X112042857Y-130433333D01*
X112138095Y-130385714D01*
X112328572Y-130385714D01*
X112423810Y-130433333D01*
X112471429Y-130528571D01*
X112471429Y-130623810D01*
X111995238Y-130719048D01*
X112900000Y-131052381D02*
X112900000Y-130385714D01*
X112900000Y-130576190D02*
X112947619Y-130480952D01*
X112995238Y-130433333D01*
X113090476Y-130385714D01*
X113185715Y-130385714D01*
X113423810Y-130385714D02*
X113661905Y-131052381D01*
X113900001Y-130385714D02*
X113661905Y-131052381D01*
X113566667Y-131290476D01*
X113519048Y-131338095D01*
X113423810Y-131385714D01*
X132754762Y-127716667D02*
X133230953Y-127716667D01*
X132659524Y-128002381D02*
X132992857Y-127002381D01*
X133326191Y-128002381D01*
X134135715Y-128002381D02*
X133659524Y-128002381D01*
X133659524Y-127002381D01*
X134326191Y-127002381D02*
X134897620Y-127002381D01*
X134611905Y-128002381D02*
X134611905Y-127002381D01*
X134992858Y-128097619D02*
X135754763Y-128097619D01*
X135897620Y-127002381D02*
X136516668Y-127002381D01*
X136183334Y-127383333D01*
X136326192Y-127383333D01*
X136421430Y-127430952D01*
X136469049Y-127478571D01*
X136516668Y-127573810D01*
X136516668Y-127811905D01*
X136469049Y-127907143D01*
X136421430Y-127954762D01*
X136326192Y-128002381D01*
X136040477Y-128002381D01*
X135945239Y-127954762D01*
X135897620Y-127907143D01*
X136945239Y-127907143D02*
X136992858Y-127954762D01*
X136945239Y-128002381D01*
X136897620Y-127954762D01*
X136945239Y-127907143D01*
X136945239Y-128002381D01*
X137326191Y-127002381D02*
X137945239Y-127002381D01*
X137611905Y-127383333D01*
X137754763Y-127383333D01*
X137850001Y-127430952D01*
X137897620Y-127478571D01*
X137945239Y-127573810D01*
X137945239Y-127811905D01*
X137897620Y-127907143D01*
X137850001Y-127954762D01*
X137754763Y-128002381D01*
X137469048Y-128002381D01*
X137373810Y-127954762D01*
X137326191Y-127907143D01*
X139557143Y-136502381D02*
X139890476Y-137502381D01*
X140223810Y-136502381D01*
X140890477Y-136978571D02*
X141033334Y-137026190D01*
X141080953Y-137073810D01*
X141128572Y-137169048D01*
X141128572Y-137311905D01*
X141080953Y-137407143D01*
X141033334Y-137454762D01*
X140938096Y-137502381D01*
X140557143Y-137502381D01*
X140557143Y-136502381D01*
X140890477Y-136502381D01*
X140985715Y-136550000D01*
X141033334Y-136597619D01*
X141080953Y-136692857D01*
X141080953Y-136788095D01*
X141033334Y-136883333D01*
X140985715Y-136930952D01*
X140890477Y-136978571D01*
X140557143Y-136978571D01*
X141509524Y-137216667D02*
X141985715Y-137216667D01*
X141414286Y-137502381D02*
X141747619Y-136502381D01*
X142080953Y-137502381D01*
X142271429Y-136502381D02*
X142842858Y-136502381D01*
X142557143Y-137502381D02*
X142557143Y-136502381D01*
X156057143Y-116857143D02*
X156009524Y-116904762D01*
X155866667Y-116952381D01*
X155771429Y-116952381D01*
X155628571Y-116904762D01*
X155533333Y-116809524D01*
X155485714Y-116714286D01*
X155438095Y-116523810D01*
X155438095Y-116380952D01*
X155485714Y-116190476D01*
X155533333Y-116095238D01*
X155628571Y-116000000D01*
X155771429Y-115952381D01*
X155866667Y-115952381D01*
X156009524Y-116000000D01*
X156057143Y-116047619D01*
X157009524Y-116952381D02*
X156438095Y-116952381D01*
X156723809Y-116952381D02*
X156723809Y-115952381D01*
X156628571Y-116095238D01*
X156533333Y-116190476D01*
X156438095Y-116238095D01*
X157342857Y-115952381D02*
X157961905Y-115952381D01*
X157628571Y-116333333D01*
X157771429Y-116333333D01*
X157866667Y-116380952D01*
X157914286Y-116428571D01*
X157961905Y-116523810D01*
X157961905Y-116761905D01*
X157914286Y-116857143D01*
X157866667Y-116904762D01*
X157771429Y-116952381D01*
X157485714Y-116952381D01*
X157390476Y-116904762D01*
X157342857Y-116857143D01*
X146040476Y-135152381D02*
X146040476Y-134485714D01*
X146040476Y-134676190D02*
X146088095Y-134580952D01*
X146135714Y-134533333D01*
X146230952Y-134485714D01*
X146326191Y-134485714D01*
X146659524Y-135152381D02*
X146659524Y-134152381D01*
X147040477Y-134152381D01*
X147135715Y-134200000D01*
X147183334Y-134247619D01*
X147230953Y-134342857D01*
X147230953Y-134485714D01*
X147183334Y-134580952D01*
X147135715Y-134628571D01*
X147040477Y-134676190D01*
X146659524Y-134676190D01*
X147659524Y-135152381D02*
X147659524Y-134485714D01*
X147659524Y-134152381D02*
X147611905Y-134200000D01*
X147659524Y-134247619D01*
X147707143Y-134200000D01*
X147659524Y-134152381D01*
X147659524Y-134247619D01*
X127552381Y-119630953D02*
X126552381Y-119630953D01*
X126552381Y-119250000D01*
X126600000Y-119154762D01*
X126647619Y-119107143D01*
X126742857Y-119059524D01*
X126885714Y-119059524D01*
X126980952Y-119107143D01*
X127028571Y-119154762D01*
X127076190Y-119250000D01*
X127076190Y-119630953D01*
X127552381Y-118488096D02*
X127504762Y-118583334D01*
X127457143Y-118630953D01*
X127361905Y-118678572D01*
X127076190Y-118678572D01*
X126980952Y-118630953D01*
X126933333Y-118583334D01*
X126885714Y-118488096D01*
X126885714Y-118345238D01*
X126933333Y-118250000D01*
X126980952Y-118202381D01*
X127076190Y-118154762D01*
X127361905Y-118154762D01*
X127457143Y-118202381D01*
X127504762Y-118250000D01*
X127552381Y-118345238D01*
X127552381Y-118488096D01*
X126885714Y-117821429D02*
X127552381Y-117630953D01*
X127076190Y-117440476D01*
X127552381Y-117250000D01*
X126885714Y-117059524D01*
X127504762Y-116297619D02*
X127552381Y-116392857D01*
X127552381Y-116583334D01*
X127504762Y-116678572D01*
X127409524Y-116726191D01*
X127028571Y-116726191D01*
X126933333Y-116678572D01*
X126885714Y-116583334D01*
X126885714Y-116392857D01*
X126933333Y-116297619D01*
X127028571Y-116250000D01*
X127123810Y-116250000D01*
X127219048Y-116726191D01*
X127552381Y-115821429D02*
X126885714Y-115821429D01*
X127076190Y-115821429D02*
X126980952Y-115773810D01*
X126933333Y-115726191D01*
X126885714Y-115630953D01*
X126885714Y-115535714D01*
X127504762Y-115250000D02*
X127552381Y-115107143D01*
X127552381Y-114869047D01*
X127504762Y-114773809D01*
X127457143Y-114726190D01*
X127361905Y-114678571D01*
X127266667Y-114678571D01*
X127171429Y-114726190D01*
X127123810Y-114773809D01*
X127076190Y-114869047D01*
X127028571Y-115059524D01*
X126980952Y-115154762D01*
X126933333Y-115202381D01*
X126838095Y-115250000D01*
X126742857Y-115250000D01*
X126647619Y-115202381D01*
X126600000Y-115154762D01*
X126552381Y-115059524D01*
X126552381Y-114821428D01*
X126600000Y-114678571D01*
X126885714Y-114345238D02*
X127552381Y-114154762D01*
X127076190Y-113964285D01*
X127552381Y-113773809D01*
X126885714Y-113583333D01*
X127552381Y-113202381D02*
X126885714Y-113202381D01*
X126552381Y-113202381D02*
X126600000Y-113250000D01*
X126647619Y-113202381D01*
X126600000Y-113154762D01*
X126552381Y-113202381D01*
X126647619Y-113202381D01*
X126885714Y-112869048D02*
X126885714Y-112488096D01*
X126552381Y-112726191D02*
X127409524Y-112726191D01*
X127504762Y-112678572D01*
X127552381Y-112583334D01*
X127552381Y-112488096D01*
X127504762Y-111726190D02*
X127552381Y-111821428D01*
X127552381Y-112011905D01*
X127504762Y-112107143D01*
X127457143Y-112154762D01*
X127361905Y-112202381D01*
X127076190Y-112202381D01*
X126980952Y-112154762D01*
X126933333Y-112107143D01*
X126885714Y-112011905D01*
X126885714Y-111821428D01*
X126933333Y-111726190D01*
X127552381Y-111297619D02*
X126552381Y-111297619D01*
X127552381Y-110869047D02*
X127028571Y-110869047D01*
X126933333Y-110916666D01*
X126885714Y-111011904D01*
X126885714Y-111154762D01*
X126933333Y-111250000D01*
X126980952Y-111297619D01*
X162861905Y-141237143D02*
X163004762Y-141279048D01*
X163052381Y-141320952D01*
X163100000Y-141404762D01*
X163100000Y-141530476D01*
X163052381Y-141614286D01*
X163004762Y-141656190D01*
X162909524Y-141698095D01*
X162528571Y-141698095D01*
X162528571Y-140818095D01*
X162861905Y-140818095D01*
X162957143Y-140860000D01*
X163004762Y-140901905D01*
X163052381Y-140985714D01*
X163052381Y-141069524D01*
X163004762Y-141153333D01*
X162957143Y-141195238D01*
X162861905Y-141237143D01*
X162528571Y-141237143D01*
X163480952Y-141446667D02*
X163957143Y-141446667D01*
X163385714Y-141698095D02*
X163719047Y-140818095D01*
X164052381Y-141698095D01*
X164242857Y-140818095D02*
X164814286Y-140818095D01*
X164528571Y-141698095D02*
X164528571Y-140818095D01*
X165004762Y-140818095D02*
X165576191Y-140818095D01*
X165290476Y-141698095D02*
X165290476Y-140818095D01*
X165671429Y-141781905D02*
X166433334Y-141781905D01*
X167004763Y-141237143D02*
X167147620Y-141279048D01*
X167195239Y-141320952D01*
X167242858Y-141404762D01*
X167242858Y-141530476D01*
X167195239Y-141614286D01*
X167147620Y-141656190D01*
X167052382Y-141698095D01*
X166671429Y-141698095D01*
X166671429Y-140818095D01*
X167004763Y-140818095D01*
X167100001Y-140860000D01*
X167147620Y-140901905D01*
X167195239Y-140985714D01*
X167195239Y-141069524D01*
X167147620Y-141153333D01*
X167100001Y-141195238D01*
X167004763Y-141237143D01*
X166671429Y-141237143D01*
X167623810Y-141446667D02*
X168100001Y-141446667D01*
X167528572Y-141698095D02*
X167861905Y-140818095D01*
X168195239Y-141698095D01*
X169004763Y-141698095D02*
X168528572Y-141698095D01*
X168528572Y-140818095D01*
X169290477Y-141446667D02*
X169766668Y-141446667D01*
X169195239Y-141698095D02*
X169528572Y-140818095D01*
X169861906Y-141698095D01*
X170195239Y-141698095D02*
X170195239Y-140818095D01*
X170766668Y-141698095D01*
X170766668Y-140818095D01*
X171814287Y-141614286D02*
X171766668Y-141656190D01*
X171623811Y-141698095D01*
X171528573Y-141698095D01*
X171385715Y-141656190D01*
X171290477Y-141572381D01*
X171242858Y-141488571D01*
X171195239Y-141320952D01*
X171195239Y-141195238D01*
X171242858Y-141027619D01*
X171290477Y-140943810D01*
X171385715Y-140860000D01*
X171528573Y-140818095D01*
X171623811Y-140818095D01*
X171766668Y-140860000D01*
X171814287Y-140901905D01*
X172242858Y-141237143D02*
X172576192Y-141237143D01*
X172719049Y-141698095D02*
X172242858Y-141698095D01*
X172242858Y-140818095D01*
X172719049Y-140818095D01*
X165157143Y-115052381D02*
X164680952Y-115052381D01*
X164680952Y-114052381D01*
X165490476Y-114528571D02*
X165823810Y-114528571D01*
X165966667Y-115052381D02*
X165490476Y-115052381D01*
X165490476Y-114052381D01*
X165966667Y-114052381D01*
X166395238Y-115052381D02*
X166395238Y-114052381D01*
X166633333Y-114052381D01*
X166776191Y-114100000D01*
X166871429Y-114195238D01*
X166919048Y-114290476D01*
X166966667Y-114480952D01*
X166966667Y-114623810D01*
X166919048Y-114814286D01*
X166871429Y-114909524D01*
X166776191Y-115004762D01*
X166633333Y-115052381D01*
X166395238Y-115052381D01*
X111402381Y-117100001D02*
X112402381Y-116861906D01*
X111688095Y-116671429D01*
X112402381Y-116480953D01*
X111402381Y-116242858D01*
X112402381Y-115433334D02*
X111878571Y-115433334D01*
X111783333Y-115480953D01*
X111735714Y-115576191D01*
X111735714Y-115766668D01*
X111783333Y-115861906D01*
X112354762Y-115433334D02*
X112402381Y-115528572D01*
X112402381Y-115766668D01*
X112354762Y-115861906D01*
X112259524Y-115909525D01*
X112164286Y-115909525D01*
X112069048Y-115861906D01*
X112021429Y-115766668D01*
X112021429Y-115528572D01*
X111973810Y-115433334D01*
X112402381Y-114814287D02*
X112354762Y-114909525D01*
X112259524Y-114957144D01*
X111402381Y-114957144D01*
X112402381Y-114290477D02*
X112354762Y-114385715D01*
X112259524Y-114433334D01*
X111402381Y-114433334D01*
X112402381Y-113147619D02*
X111402381Y-113147619D01*
X111402381Y-112766666D01*
X111450000Y-112671428D01*
X111497619Y-112623809D01*
X111592857Y-112576190D01*
X111735714Y-112576190D01*
X111830952Y-112623809D01*
X111878571Y-112671428D01*
X111926190Y-112766666D01*
X111926190Y-113147619D01*
X112402381Y-112004762D02*
X112354762Y-112100000D01*
X112307143Y-112147619D01*
X112211905Y-112195238D01*
X111926190Y-112195238D01*
X111830952Y-112147619D01*
X111783333Y-112100000D01*
X111735714Y-112004762D01*
X111735714Y-111861904D01*
X111783333Y-111766666D01*
X111830952Y-111719047D01*
X111926190Y-111671428D01*
X112211905Y-111671428D01*
X112307143Y-111719047D01*
X112354762Y-111766666D01*
X112402381Y-111861904D01*
X112402381Y-112004762D01*
X111735714Y-111338095D02*
X112402381Y-111147619D01*
X111926190Y-110957142D01*
X112402381Y-110766666D01*
X111735714Y-110576190D01*
X112354762Y-109814285D02*
X112402381Y-109909523D01*
X112402381Y-110100000D01*
X112354762Y-110195238D01*
X112259524Y-110242857D01*
X111878571Y-110242857D01*
X111783333Y-110195238D01*
X111735714Y-110100000D01*
X111735714Y-109909523D01*
X111783333Y-109814285D01*
X111878571Y-109766666D01*
X111973810Y-109766666D01*
X112069048Y-110242857D01*
X112402381Y-109338095D02*
X111735714Y-109338095D01*
X111926190Y-109338095D02*
X111830952Y-109290476D01*
X111783333Y-109242857D01*
X111735714Y-109147619D01*
X111735714Y-109052380D01*
X159719048Y-111404762D02*
X159861905Y-111452381D01*
X160100001Y-111452381D01*
X160195239Y-111404762D01*
X160242858Y-111357143D01*
X160290477Y-111261905D01*
X160290477Y-111166667D01*
X160242858Y-111071429D01*
X160195239Y-111023810D01*
X160100001Y-110976190D01*
X159909524Y-110928571D01*
X159814286Y-110880952D01*
X159766667Y-110833333D01*
X159719048Y-110738095D01*
X159719048Y-110642857D01*
X159766667Y-110547619D01*
X159814286Y-110500000D01*
X159909524Y-110452381D01*
X160147620Y-110452381D01*
X160290477Y-110500000D01*
X160719048Y-111452381D02*
X160719048Y-110452381D01*
X161100001Y-110452381D01*
X161195239Y-110500000D01*
X161242858Y-110547619D01*
X161290477Y-110642857D01*
X161290477Y-110785714D01*
X161242858Y-110880952D01*
X161195239Y-110928571D01*
X161100001Y-110976190D01*
X160719048Y-110976190D01*
X161719048Y-111452381D02*
X161719048Y-110452381D01*
X161957143Y-111547619D02*
X162719048Y-111547619D01*
X162909524Y-110547619D02*
X162957143Y-110500000D01*
X163052381Y-110452381D01*
X163290477Y-110452381D01*
X163385715Y-110500000D01*
X163433334Y-110547619D01*
X163480953Y-110642857D01*
X163480953Y-110738095D01*
X163433334Y-110880952D01*
X162861905Y-111452381D01*
X163480953Y-111452381D01*
X123007143Y-111607143D02*
X122959524Y-111654762D01*
X122816667Y-111702381D01*
X122721429Y-111702381D01*
X122578571Y-111654762D01*
X122483333Y-111559524D01*
X122435714Y-111464286D01*
X122388095Y-111273810D01*
X122388095Y-111130952D01*
X122435714Y-110940476D01*
X122483333Y-110845238D01*
X122578571Y-110750000D01*
X122721429Y-110702381D01*
X122816667Y-110702381D01*
X122959524Y-110750000D01*
X123007143Y-110797619D01*
X123959524Y-111702381D02*
X123388095Y-111702381D01*
X123673809Y-111702381D02*
X123673809Y-110702381D01*
X123578571Y-110845238D01*
X123483333Y-110940476D01*
X123388095Y-110988095D01*
X124816667Y-111035714D02*
X124816667Y-111702381D01*
X124578571Y-110654762D02*
X124340476Y-111369048D01*
X124959524Y-111369048D01*
M02*
