M48
;DRILL file {KiCad 4.0.1-3.201512221402+6198~38~ubuntu15.04.1-stable} date Sun 03 Jan 2016 11:00:03 AM EST
;FORMAT={-:-/ absolute / inch / decimal}
FMAT,2
INCH,TZ
T1C0.016
T2C0.028
T3C0.030
T4C0.030
T5C0.031
T6C0.035
T7C0.039
T8C0.040
T9C0.042
T10C0.071
T11C0.079
T12C0.086
T13C0.123
%
G90
G05
M72
T1
X3.9921Y-4.7953
X4.0354Y-5.1811
X4.437Y-4.815
X4.5472Y-4.815
X4.9685Y-4.7441
X5.185Y-4.7323
X5.2244Y-4.7717
X5.3622Y-4.874
X5.4173Y-4.5394
X5.4409Y-4.3307
X5.4409Y-4.3858
X5.4567Y-4.5866
X5.4843Y-4.4724
X5.4961Y-5.378
X5.5079Y-5.2283
X5.5118Y-5.0197
X5.563Y-5.2283
X5.5669Y-4.3937
X5.5709Y-5.378
X5.5906Y-4.5748
X5.6339Y-4.6339
X5.6339Y-4.6654
X5.6732Y-4.5315
X5.6969Y-5.2008
X5.7992Y-4.7008
X5.7992Y-5.0315
X5.878Y-4.4291
X5.9213Y-4.3898
X5.9488Y-4.5197
X5.9567Y-4.8583
X5.9724Y-4.6457
X5.9764Y-4.4724
X5.9764Y-4.5354
X5.9764Y-4.5709
X6.0315Y-5.3189
X6.1417Y-4.6339
X6.2953Y-4.5945
X6.3465Y-4.6417
X6.4094Y-4.3031
X6.5394Y-5.2402
X6.6339Y-5.2402
X6.6654Y-4.8661
X6.6654Y-5.0197
X6.6732Y-4.7047
X6.7008Y-4.6535
X6.7008Y-4.815
X6.7008Y-4.9764
X6.7008Y-5.1378
X6.7283Y-4.315
X6.7283Y-4.378
X6.7283Y-4.7047
X6.7283Y-4.8661
X6.7283Y-5.0197
X6.7323Y-4.4882
X6.7362Y-5.2402
X6.7953Y-4.5276
X6.8425Y-4.4803
T2
X5.1339Y-4.4665
X5.1339Y-4.5157
X5.1339Y-4.565
X5.1339Y-4.6142
X5.2953Y-5.0984
X5.3307Y-4.437
X5.3307Y-4.4862
X5.3307Y-4.5354
X5.3445Y-5.0984
X5.5354Y-5.5236
X5.5846Y-5.5236
X5.752Y-5.3878
X5.8012Y-5.3878
X6.0315Y-4.4567
X6.0807Y-4.4567
X6.1299Y-4.4567
X6.1791Y-4.4567
X6.2283Y-4.4567
X6.2776Y-4.4567
X6.3268Y-4.4567
X6.3602Y-4.0512
X6.4094Y-4.0512
X6.5039Y-4.5945
X6.5039Y-4.6437
X6.5039Y-4.6929
X6.5039Y-4.7421
X6.9016Y-4.6417
X6.9016Y-4.7992
X6.9016Y-4.9567
X6.9016Y-5.1181
X6.9508Y-4.6417
X6.9508Y-4.7992
X6.9508Y-4.9567
X6.9508Y-5.1181
X6.9665Y-4.3012
X6.9665Y-4.3504
X6.9665Y-4.3996
X6.9665Y-4.4488
X7.Y-4.6417
X7.Y-4.7992
X7.Y-4.9567
X7.Y-5.1181
T3
X4.0748Y-4.8937
X4.1732Y-4.7283
X4.7736Y-5.1654
X5.0276Y-5.0748
T4
X5.7339Y-5.5315
X5.8339Y-5.5315
X5.9339Y-5.5315
X6.0339Y-5.5315
X6.1339Y-5.5315
T5
X4.6358Y-4.5315
X4.7854Y-4.5315
T6
X6.563Y-4.1181
X6.7598Y-4.1181
T7
X5.1736Y-4.0575
X5.1736Y-4.1559
X5.1736Y-4.2543
X5.3736Y-4.0575
X5.3736Y-4.1559
X5.3736Y-4.2543
X5.5736Y-4.0575
X5.5736Y-4.1559
X5.5736Y-4.2543
X5.7736Y-4.0575
X5.7736Y-4.1559
X5.7736Y-4.2543
X5.9736Y-4.0575
X5.9736Y-4.1559
X5.9736Y-4.2543
X6.1736Y-4.0575
X6.1736Y-4.1559
X6.1736Y-4.2543
T8
X6.439Y-5.4862
X6.539Y-5.4862
X6.639Y-5.4862
X6.739Y-5.4862
T9
X6.5236Y-4.0118
X6.7992Y-4.0118
T10
X4.2146Y-4.2874
X4.2146Y-4.4843
X4.2815Y-5.3445
X4.4783Y-5.3445
X4.4921Y-4.1063
X4.689Y-4.1063
T12
X6.2854Y-5.4862
T13
X4.0551Y-4.0551
X4.0551Y-5.4724
X6.9685Y-4.0551
X6.9685Y-5.4724
T11
X4.8071Y-5.4626G85X4.9646Y-5.4626
G05
X5.1732Y-5.4626G85X5.3307Y-5.4626
G05
T0
M30
