G04 #@! TF.FileFunction,Legend,Bot*
%FSLAX46Y46*%
G04 Gerber Fmt 4.6, Leading zero omitted, Abs format (unit mm)*
G04 Created by KiCad (PCBNEW 4.0.1-3.201512221402+6198~38~ubuntu15.04.1-stable) date Sun 03 Jan 2016 10:59:58 AM EST*
%MOMM*%
G01*
G04 APERTURE LIST*
%ADD10C,0.100000*%
%ADD11C,0.150000*%
G04 APERTURE END LIST*
D10*
D11*
X173350000Y-110250000D02*
X173350000Y-113250000D01*
X173350000Y-113250000D02*
X175150000Y-113250000D01*
X175150000Y-113250000D02*
X175150000Y-110250000D01*
X175150000Y-110250000D02*
X173350000Y-110250000D01*
X171200000Y-128000000D02*
X171200000Y-131000000D01*
X171200000Y-131000000D02*
X173000000Y-131000000D01*
X173000000Y-131000000D02*
X173000000Y-128000000D01*
X173000000Y-128000000D02*
X171200000Y-128000000D01*
X171200000Y-124000000D02*
X171200000Y-127000000D01*
X171200000Y-127000000D02*
X173000000Y-127000000D01*
X173000000Y-127000000D02*
X173000000Y-124000000D01*
X173000000Y-124000000D02*
X171200000Y-124000000D01*
X171200000Y-119900000D02*
X171200000Y-122900000D01*
X171200000Y-122900000D02*
X173000000Y-122900000D01*
X173000000Y-122900000D02*
X173000000Y-119900000D01*
X173000000Y-119900000D02*
X171200000Y-119900000D01*
X171200000Y-115800000D02*
X171200000Y-118800000D01*
X171200000Y-118800000D02*
X173000000Y-118800000D01*
X173000000Y-118800000D02*
X173000000Y-115800000D01*
X173000000Y-115800000D02*
X171200000Y-115800000D01*
X143800000Y-141500000D02*
X161800000Y-141500000D01*
X161800000Y-141500000D02*
X161800000Y-120500000D01*
X161800000Y-120500000D02*
X143800000Y-120500000D01*
X143800000Y-120500000D02*
X143800000Y-141500000D01*
X155900000Y-109900000D02*
X152900000Y-109900000D01*
X152900000Y-109900000D02*
X152900000Y-111700000D01*
X152900000Y-111700000D02*
X155900000Y-111700000D01*
X155900000Y-111700000D02*
X155900000Y-109900000D01*
D10*
X172683333Y-110466667D02*
X173016666Y-110466667D01*
X173050000Y-110800000D01*
X173016666Y-110766667D01*
X172950000Y-110733333D01*
X172783333Y-110733333D01*
X172716666Y-110766667D01*
X172683333Y-110800000D01*
X172650000Y-110866667D01*
X172650000Y-111033333D01*
X172683333Y-111100000D01*
X172716666Y-111133333D01*
X172783333Y-111166667D01*
X172950000Y-111166667D01*
X173016666Y-111133333D01*
X173050000Y-111100000D01*
X172349999Y-111100000D02*
X172316666Y-111133333D01*
X172349999Y-111166667D01*
X172383333Y-111133333D01*
X172349999Y-111100000D01*
X172349999Y-111166667D01*
X171883333Y-110466667D02*
X171816666Y-110466667D01*
X171750000Y-110500000D01*
X171716666Y-110533333D01*
X171683333Y-110600000D01*
X171650000Y-110733333D01*
X171650000Y-110900000D01*
X171683333Y-111033333D01*
X171716666Y-111100000D01*
X171750000Y-111133333D01*
X171816666Y-111166667D01*
X171883333Y-111166667D01*
X171950000Y-111133333D01*
X171983333Y-111100000D01*
X172016666Y-111033333D01*
X172050000Y-110900000D01*
X172050000Y-110733333D01*
X172016666Y-110600000D01*
X171983333Y-110533333D01*
X171950000Y-110500000D01*
X171883333Y-110466667D01*
X173083333Y-112366667D02*
X172650000Y-112366667D01*
X172883333Y-112633333D01*
X172783333Y-112633333D01*
X172716666Y-112666667D01*
X172683333Y-112700000D01*
X172650000Y-112766667D01*
X172650000Y-112933333D01*
X172683333Y-113000000D01*
X172716666Y-113033333D01*
X172783333Y-113066667D01*
X172983333Y-113066667D01*
X173050000Y-113033333D01*
X173083333Y-113000000D01*
X172349999Y-113000000D02*
X172316666Y-113033333D01*
X172349999Y-113066667D01*
X172383333Y-113033333D01*
X172349999Y-113000000D01*
X172349999Y-113066667D01*
X172083333Y-112366667D02*
X171650000Y-112366667D01*
X171883333Y-112633333D01*
X171783333Y-112633333D01*
X171716666Y-112666667D01*
X171683333Y-112700000D01*
X171650000Y-112766667D01*
X171650000Y-112933333D01*
X171683333Y-113000000D01*
X171716666Y-113033333D01*
X171783333Y-113066667D01*
X171983333Y-113066667D01*
X172050000Y-113033333D01*
X172083333Y-113000000D01*
X170533333Y-128216667D02*
X170866666Y-128216667D01*
X170900000Y-128550000D01*
X170866666Y-128516667D01*
X170800000Y-128483333D01*
X170633333Y-128483333D01*
X170566666Y-128516667D01*
X170533333Y-128550000D01*
X170500000Y-128616667D01*
X170500000Y-128783333D01*
X170533333Y-128850000D01*
X170566666Y-128883333D01*
X170633333Y-128916667D01*
X170800000Y-128916667D01*
X170866666Y-128883333D01*
X170900000Y-128850000D01*
X170199999Y-128850000D02*
X170166666Y-128883333D01*
X170199999Y-128916667D01*
X170233333Y-128883333D01*
X170199999Y-128850000D01*
X170199999Y-128916667D01*
X169733333Y-128216667D02*
X169666666Y-128216667D01*
X169600000Y-128250000D01*
X169566666Y-128283333D01*
X169533333Y-128350000D01*
X169500000Y-128483333D01*
X169500000Y-128650000D01*
X169533333Y-128783333D01*
X169566666Y-128850000D01*
X169600000Y-128883333D01*
X169666666Y-128916667D01*
X169733333Y-128916667D01*
X169800000Y-128883333D01*
X169833333Y-128850000D01*
X169866666Y-128783333D01*
X169900000Y-128650000D01*
X169900000Y-128483333D01*
X169866666Y-128350000D01*
X169833333Y-128283333D01*
X169800000Y-128250000D01*
X169733333Y-128216667D01*
X170933333Y-130116667D02*
X170500000Y-130116667D01*
X170733333Y-130383333D01*
X170633333Y-130383333D01*
X170566666Y-130416667D01*
X170533333Y-130450000D01*
X170500000Y-130516667D01*
X170500000Y-130683333D01*
X170533333Y-130750000D01*
X170566666Y-130783333D01*
X170633333Y-130816667D01*
X170833333Y-130816667D01*
X170900000Y-130783333D01*
X170933333Y-130750000D01*
X170199999Y-130750000D02*
X170166666Y-130783333D01*
X170199999Y-130816667D01*
X170233333Y-130783333D01*
X170199999Y-130750000D01*
X170199999Y-130816667D01*
X169933333Y-130116667D02*
X169500000Y-130116667D01*
X169733333Y-130383333D01*
X169633333Y-130383333D01*
X169566666Y-130416667D01*
X169533333Y-130450000D01*
X169500000Y-130516667D01*
X169500000Y-130683333D01*
X169533333Y-130750000D01*
X169566666Y-130783333D01*
X169633333Y-130816667D01*
X169833333Y-130816667D01*
X169900000Y-130783333D01*
X169933333Y-130750000D01*
X170533333Y-124216667D02*
X170866666Y-124216667D01*
X170900000Y-124550000D01*
X170866666Y-124516667D01*
X170800000Y-124483333D01*
X170633333Y-124483333D01*
X170566666Y-124516667D01*
X170533333Y-124550000D01*
X170500000Y-124616667D01*
X170500000Y-124783333D01*
X170533333Y-124850000D01*
X170566666Y-124883333D01*
X170633333Y-124916667D01*
X170800000Y-124916667D01*
X170866666Y-124883333D01*
X170900000Y-124850000D01*
X170199999Y-124850000D02*
X170166666Y-124883333D01*
X170199999Y-124916667D01*
X170233333Y-124883333D01*
X170199999Y-124850000D01*
X170199999Y-124916667D01*
X169733333Y-124216667D02*
X169666666Y-124216667D01*
X169600000Y-124250000D01*
X169566666Y-124283333D01*
X169533333Y-124350000D01*
X169500000Y-124483333D01*
X169500000Y-124650000D01*
X169533333Y-124783333D01*
X169566666Y-124850000D01*
X169600000Y-124883333D01*
X169666666Y-124916667D01*
X169733333Y-124916667D01*
X169800000Y-124883333D01*
X169833333Y-124850000D01*
X169866666Y-124783333D01*
X169900000Y-124650000D01*
X169900000Y-124483333D01*
X169866666Y-124350000D01*
X169833333Y-124283333D01*
X169800000Y-124250000D01*
X169733333Y-124216667D01*
X170933333Y-126116667D02*
X170500000Y-126116667D01*
X170733333Y-126383333D01*
X170633333Y-126383333D01*
X170566666Y-126416667D01*
X170533333Y-126450000D01*
X170500000Y-126516667D01*
X170500000Y-126683333D01*
X170533333Y-126750000D01*
X170566666Y-126783333D01*
X170633333Y-126816667D01*
X170833333Y-126816667D01*
X170900000Y-126783333D01*
X170933333Y-126750000D01*
X170199999Y-126750000D02*
X170166666Y-126783333D01*
X170199999Y-126816667D01*
X170233333Y-126783333D01*
X170199999Y-126750000D01*
X170199999Y-126816667D01*
X169933333Y-126116667D02*
X169500000Y-126116667D01*
X169733333Y-126383333D01*
X169633333Y-126383333D01*
X169566666Y-126416667D01*
X169533333Y-126450000D01*
X169500000Y-126516667D01*
X169500000Y-126683333D01*
X169533333Y-126750000D01*
X169566666Y-126783333D01*
X169633333Y-126816667D01*
X169833333Y-126816667D01*
X169900000Y-126783333D01*
X169933333Y-126750000D01*
X170533333Y-120116667D02*
X170866666Y-120116667D01*
X170900000Y-120450000D01*
X170866666Y-120416667D01*
X170800000Y-120383333D01*
X170633333Y-120383333D01*
X170566666Y-120416667D01*
X170533333Y-120450000D01*
X170500000Y-120516667D01*
X170500000Y-120683333D01*
X170533333Y-120750000D01*
X170566666Y-120783333D01*
X170633333Y-120816667D01*
X170800000Y-120816667D01*
X170866666Y-120783333D01*
X170900000Y-120750000D01*
X170199999Y-120750000D02*
X170166666Y-120783333D01*
X170199999Y-120816667D01*
X170233333Y-120783333D01*
X170199999Y-120750000D01*
X170199999Y-120816667D01*
X169733333Y-120116667D02*
X169666666Y-120116667D01*
X169600000Y-120150000D01*
X169566666Y-120183333D01*
X169533333Y-120250000D01*
X169500000Y-120383333D01*
X169500000Y-120550000D01*
X169533333Y-120683333D01*
X169566666Y-120750000D01*
X169600000Y-120783333D01*
X169666666Y-120816667D01*
X169733333Y-120816667D01*
X169800000Y-120783333D01*
X169833333Y-120750000D01*
X169866666Y-120683333D01*
X169900000Y-120550000D01*
X169900000Y-120383333D01*
X169866666Y-120250000D01*
X169833333Y-120183333D01*
X169800000Y-120150000D01*
X169733333Y-120116667D01*
X170933333Y-122016667D02*
X170500000Y-122016667D01*
X170733333Y-122283333D01*
X170633333Y-122283333D01*
X170566666Y-122316667D01*
X170533333Y-122350000D01*
X170500000Y-122416667D01*
X170500000Y-122583333D01*
X170533333Y-122650000D01*
X170566666Y-122683333D01*
X170633333Y-122716667D01*
X170833333Y-122716667D01*
X170900000Y-122683333D01*
X170933333Y-122650000D01*
X170199999Y-122650000D02*
X170166666Y-122683333D01*
X170199999Y-122716667D01*
X170233333Y-122683333D01*
X170199999Y-122650000D01*
X170199999Y-122716667D01*
X169933333Y-122016667D02*
X169500000Y-122016667D01*
X169733333Y-122283333D01*
X169633333Y-122283333D01*
X169566666Y-122316667D01*
X169533333Y-122350000D01*
X169500000Y-122416667D01*
X169500000Y-122583333D01*
X169533333Y-122650000D01*
X169566666Y-122683333D01*
X169633333Y-122716667D01*
X169833333Y-122716667D01*
X169900000Y-122683333D01*
X169933333Y-122650000D01*
X170533333Y-116016667D02*
X170866666Y-116016667D01*
X170900000Y-116350000D01*
X170866666Y-116316667D01*
X170800000Y-116283333D01*
X170633333Y-116283333D01*
X170566666Y-116316667D01*
X170533333Y-116350000D01*
X170500000Y-116416667D01*
X170500000Y-116583333D01*
X170533333Y-116650000D01*
X170566666Y-116683333D01*
X170633333Y-116716667D01*
X170800000Y-116716667D01*
X170866666Y-116683333D01*
X170900000Y-116650000D01*
X170199999Y-116650000D02*
X170166666Y-116683333D01*
X170199999Y-116716667D01*
X170233333Y-116683333D01*
X170199999Y-116650000D01*
X170199999Y-116716667D01*
X169733333Y-116016667D02*
X169666666Y-116016667D01*
X169600000Y-116050000D01*
X169566666Y-116083333D01*
X169533333Y-116150000D01*
X169500000Y-116283333D01*
X169500000Y-116450000D01*
X169533333Y-116583333D01*
X169566666Y-116650000D01*
X169600000Y-116683333D01*
X169666666Y-116716667D01*
X169733333Y-116716667D01*
X169800000Y-116683333D01*
X169833333Y-116650000D01*
X169866666Y-116583333D01*
X169900000Y-116450000D01*
X169900000Y-116283333D01*
X169866666Y-116150000D01*
X169833333Y-116083333D01*
X169800000Y-116050000D01*
X169733333Y-116016667D01*
X170933333Y-117916667D02*
X170500000Y-117916667D01*
X170733333Y-118183333D01*
X170633333Y-118183333D01*
X170566666Y-118216667D01*
X170533333Y-118250000D01*
X170500000Y-118316667D01*
X170500000Y-118483333D01*
X170533333Y-118550000D01*
X170566666Y-118583333D01*
X170633333Y-118616667D01*
X170833333Y-118616667D01*
X170900000Y-118583333D01*
X170933333Y-118550000D01*
X170199999Y-118550000D02*
X170166666Y-118583333D01*
X170199999Y-118616667D01*
X170233333Y-118583333D01*
X170199999Y-118550000D01*
X170199999Y-118616667D01*
X169933333Y-117916667D02*
X169500000Y-117916667D01*
X169733333Y-118183333D01*
X169633333Y-118183333D01*
X169566666Y-118216667D01*
X169533333Y-118250000D01*
X169500000Y-118316667D01*
X169500000Y-118483333D01*
X169533333Y-118550000D01*
X169566666Y-118583333D01*
X169633333Y-118616667D01*
X169833333Y-118616667D01*
X169900000Y-118583333D01*
X169933333Y-118550000D01*
X154916667Y-108566667D02*
X154916667Y-108233334D01*
X155250000Y-108200000D01*
X155216667Y-108233334D01*
X155183333Y-108300000D01*
X155183333Y-108466667D01*
X155216667Y-108533334D01*
X155250000Y-108566667D01*
X155316667Y-108600000D01*
X155483333Y-108600000D01*
X155550000Y-108566667D01*
X155583333Y-108533334D01*
X155616667Y-108466667D01*
X155616667Y-108300000D01*
X155583333Y-108233334D01*
X155550000Y-108200000D01*
X155550000Y-108900001D02*
X155583333Y-108933334D01*
X155616667Y-108900001D01*
X155583333Y-108866667D01*
X155550000Y-108900001D01*
X155616667Y-108900001D01*
X154916667Y-109366667D02*
X154916667Y-109433334D01*
X154950000Y-109500000D01*
X154983333Y-109533334D01*
X155050000Y-109566667D01*
X155183333Y-109600000D01*
X155350000Y-109600000D01*
X155483333Y-109566667D01*
X155550000Y-109533334D01*
X155583333Y-109500000D01*
X155616667Y-109433334D01*
X155616667Y-109366667D01*
X155583333Y-109300000D01*
X155550000Y-109266667D01*
X155483333Y-109233334D01*
X155350000Y-109200000D01*
X155183333Y-109200000D01*
X155050000Y-109233334D01*
X154983333Y-109266667D01*
X154950000Y-109300000D01*
X154916667Y-109366667D01*
X153016667Y-108166667D02*
X153016667Y-108600000D01*
X153283333Y-108366667D01*
X153283333Y-108466667D01*
X153316667Y-108533334D01*
X153350000Y-108566667D01*
X153416667Y-108600000D01*
X153583333Y-108600000D01*
X153650000Y-108566667D01*
X153683333Y-108533334D01*
X153716667Y-108466667D01*
X153716667Y-108266667D01*
X153683333Y-108200000D01*
X153650000Y-108166667D01*
X153650000Y-108900001D02*
X153683333Y-108933334D01*
X153716667Y-108900001D01*
X153683333Y-108866667D01*
X153650000Y-108900001D01*
X153716667Y-108900001D01*
X153016667Y-109166667D02*
X153016667Y-109600000D01*
X153283333Y-109366667D01*
X153283333Y-109466667D01*
X153316667Y-109533334D01*
X153350000Y-109566667D01*
X153416667Y-109600000D01*
X153583333Y-109600000D01*
X153650000Y-109566667D01*
X153683333Y-109533334D01*
X153716667Y-109466667D01*
X153716667Y-109266667D01*
X153683333Y-109200000D01*
X153650000Y-109166667D01*
M02*
