G04 #@! TF.FileFunction,Soldermask,Bot*
%FSLAX46Y46*%
G04 Gerber Fmt 4.6, Leading zero omitted, Abs format (unit mm)*
G04 Created by KiCad (PCBNEW 4.0.1-3.201512221402+6198~38~ubuntu15.04.1-stable) date Sun 03 Jan 2016 10:59:58 AM EST*
%MOMM*%
G01*
G04 APERTURE LIST*
%ADD10C,0.100000*%
%ADD11C,2.150060*%
%ADD12C,1.649680*%
%ADD13O,8.400000X4.200000*%
%ADD14R,1.700000X1.100000*%
%ADD15O,1.900000X1.416000*%
%ADD16O,1.416000X1.900000*%
%ADD17O,2.400000X1.900000*%
%ADD18C,4.400000*%
%ADD19C,4.900000*%
%ADD20C,1.924000*%
%ADD21R,2.127200X2.432000*%
%ADD22O,2.127200X2.432000*%
%ADD23R,1.100000X1.700000*%
%ADD24C,3.042000*%
%ADD25R,1.700000X1.700000*%
%ADD26C,1.700000*%
G04 APERTURE END LIST*
D10*
D11*
X172700120Y-101899980D03*
D12*
X171699360Y-104600000D03*
X166700640Y-104600000D03*
D11*
X165699880Y-101899980D03*
D13*
X124100000Y-138750000D03*
X133400000Y-138750000D03*
D14*
X174250000Y-110850000D03*
X174250000Y-111750000D03*
X174250000Y-112650000D03*
X172100000Y-128600000D03*
X172100000Y-129500000D03*
X172100000Y-130400000D03*
X172100000Y-124600000D03*
X172100000Y-125500000D03*
X172100000Y-126400000D03*
X172100000Y-120500000D03*
X172100000Y-121400000D03*
X172100000Y-122300000D03*
X172100000Y-116400000D03*
X172100000Y-117300000D03*
X172100000Y-118200000D03*
D15*
X135400000Y-112700000D03*
X135400000Y-113950000D03*
X135400000Y-115200000D03*
X176950000Y-109250000D03*
X176950000Y-110500000D03*
X176950000Y-111750000D03*
X176950000Y-113000000D03*
D16*
X175300000Y-130000000D03*
X176550000Y-130000000D03*
X177800000Y-130000000D03*
X175300000Y-125900000D03*
X176550000Y-125900000D03*
X177800000Y-125900000D03*
X175300000Y-121900000D03*
X176550000Y-121900000D03*
X177800000Y-121900000D03*
X175300000Y-117900000D03*
X176550000Y-117900000D03*
X177800000Y-117900000D03*
D17*
X156810000Y-108060000D03*
X156810000Y-105560000D03*
X156810000Y-103060000D03*
X151730000Y-108060000D03*
X151730000Y-105560000D03*
X151730000Y-103060000D03*
X146650000Y-108060000D03*
X146650000Y-105560000D03*
X146650000Y-103060000D03*
X141570000Y-108060000D03*
X141570000Y-105560000D03*
X141570000Y-103060000D03*
X136490000Y-108060000D03*
X136490000Y-105560000D03*
X136490000Y-103060000D03*
X131410000Y-108060000D03*
X131410000Y-105560000D03*
X131410000Y-103060000D03*
D16*
X162800000Y-102900000D03*
X161550000Y-102900000D03*
D18*
X108750000Y-135750000D03*
X113750000Y-135750000D03*
D16*
X135750000Y-129500000D03*
X134500000Y-129500000D03*
X140600000Y-140300000D03*
X141850000Y-140300000D03*
D19*
X177000000Y-103000000D03*
X177000000Y-139000000D03*
X103000000Y-139000000D03*
D20*
X155800000Y-140500000D03*
X153260000Y-140500000D03*
X150720000Y-140500000D03*
X148180000Y-140500000D03*
X145640000Y-140500000D03*
D16*
X147350000Y-136850000D03*
X146100000Y-136850000D03*
D15*
X130400000Y-117200000D03*
X130400000Y-115950000D03*
X130400000Y-114700000D03*
X130400000Y-113450000D03*
D21*
X163550000Y-139350000D03*
D22*
X166090000Y-139350000D03*
X168630000Y-139350000D03*
X171170000Y-139350000D03*
D15*
X165200000Y-116700000D03*
X165200000Y-117950000D03*
X165200000Y-119200000D03*
X165200000Y-120450000D03*
D18*
X119100000Y-104300000D03*
X114100000Y-104300000D03*
X107050000Y-108900000D03*
X107050000Y-113900000D03*
D23*
X155300000Y-110800000D03*
X154400000Y-110800000D03*
X153500000Y-110800000D03*
D16*
X153200000Y-113200000D03*
X160700000Y-113200000D03*
X159450000Y-113200000D03*
X158200000Y-113200000D03*
X156950000Y-113200000D03*
X155700000Y-113200000D03*
X154450000Y-113200000D03*
D19*
X103000000Y-103000000D03*
D24*
X159650000Y-139350000D03*
D25*
X117750000Y-115100000D03*
D26*
X121550000Y-115100000D03*
M02*
