G04 #@! TF.FileFunction,Copper,L2,Bot,Signal*
%FSLAX46Y46*%
G04 Gerber Fmt 4.6, Leading zero omitted, Abs format (unit mm)*
G04 Created by KiCad (PCBNEW 4.0.1-3.201512221402+6198~38~ubuntu15.04.1-stable) date Sun 03 Jan 2016 10:59:58 AM EST*
%MOMM*%
G01*
G04 APERTURE LIST*
%ADD10C,0.100000*%
%ADD11C,0.200000*%
%ADD12C,1.750060*%
%ADD13C,1.249680*%
%ADD14O,8.000000X3.800000*%
%ADD15R,1.300000X0.700000*%
%ADD16O,1.500000X1.016000*%
%ADD17O,1.016000X1.500000*%
%ADD18O,2.000000X1.500000*%
%ADD19C,4.000000*%
%ADD20C,4.500000*%
%ADD21C,1.524000*%
%ADD22R,1.727200X2.032000*%
%ADD23O,1.727200X2.032000*%
%ADD24R,0.700000X1.300000*%
%ADD25C,2.642000*%
%ADD26R,1.300000X1.300000*%
%ADD27C,1.300000*%
%ADD28C,0.600000*%
%ADD29C,1.000000*%
%ADD30C,0.500000*%
%ADD31C,1.500000*%
%ADD32C,0.254000*%
G04 APERTURE END LIST*
D10*
D11*
X174250000Y-111750000D02*
X174250000Y-112650000D01*
X172100000Y-129500000D02*
X172100000Y-130400000D01*
X172100000Y-125500000D02*
X172100000Y-126400000D01*
X172100000Y-121400000D02*
X172100000Y-122300000D01*
X172100000Y-117300000D02*
X172100000Y-118200000D01*
X154400000Y-110800000D02*
X153500000Y-110800000D01*
D12*
X172700120Y-101899980D03*
D13*
X171699360Y-104600000D03*
X166700640Y-104600000D03*
D12*
X165699880Y-101899980D03*
D14*
X124100000Y-138750000D03*
X133400000Y-138750000D03*
D15*
X174250000Y-110850000D03*
X174250000Y-111750000D03*
X174250000Y-112650000D03*
X172100000Y-128600000D03*
X172100000Y-129500000D03*
X172100000Y-130400000D03*
X172100000Y-124600000D03*
X172100000Y-125500000D03*
X172100000Y-126400000D03*
X172100000Y-120500000D03*
X172100000Y-121400000D03*
X172100000Y-122300000D03*
X172100000Y-116400000D03*
X172100000Y-117300000D03*
X172100000Y-118200000D03*
D16*
X135400000Y-112700000D03*
X135400000Y-113950000D03*
X135400000Y-115200000D03*
X176950000Y-109250000D03*
X176950000Y-110500000D03*
X176950000Y-111750000D03*
X176950000Y-113000000D03*
D17*
X175300000Y-130000000D03*
X176550000Y-130000000D03*
X177800000Y-130000000D03*
X175300000Y-125900000D03*
X176550000Y-125900000D03*
X177800000Y-125900000D03*
X175300000Y-121900000D03*
X176550000Y-121900000D03*
X177800000Y-121900000D03*
X175300000Y-117900000D03*
X176550000Y-117900000D03*
X177800000Y-117900000D03*
D18*
X156810000Y-108060000D03*
X156810000Y-105560000D03*
X156810000Y-103060000D03*
X151730000Y-108060000D03*
X151730000Y-105560000D03*
X151730000Y-103060000D03*
X146650000Y-108060000D03*
X146650000Y-105560000D03*
X146650000Y-103060000D03*
X141570000Y-108060000D03*
X141570000Y-105560000D03*
X141570000Y-103060000D03*
X136490000Y-108060000D03*
X136490000Y-105560000D03*
X136490000Y-103060000D03*
X131410000Y-108060000D03*
X131410000Y-105560000D03*
X131410000Y-103060000D03*
D17*
X162800000Y-102900000D03*
X161550000Y-102900000D03*
D19*
X108750000Y-135750000D03*
X113750000Y-135750000D03*
D17*
X135750000Y-129500000D03*
X134500000Y-129500000D03*
X140600000Y-140300000D03*
X141850000Y-140300000D03*
D20*
X177000000Y-103000000D03*
X177000000Y-139000000D03*
X103000000Y-139000000D03*
D21*
X155800000Y-140500000D03*
X153260000Y-140500000D03*
X150720000Y-140500000D03*
X148180000Y-140500000D03*
X145640000Y-140500000D03*
D17*
X147350000Y-136850000D03*
X146100000Y-136850000D03*
D16*
X130400000Y-117200000D03*
X130400000Y-115950000D03*
X130400000Y-114700000D03*
X130400000Y-113450000D03*
D22*
X163550000Y-139350000D03*
D23*
X166090000Y-139350000D03*
X168630000Y-139350000D03*
X171170000Y-139350000D03*
D16*
X165200000Y-116700000D03*
X165200000Y-117950000D03*
X165200000Y-119200000D03*
X165200000Y-120450000D03*
D19*
X119100000Y-104300000D03*
X114100000Y-104300000D03*
X107050000Y-108900000D03*
X107050000Y-113900000D03*
D24*
X155300000Y-110800000D03*
X154400000Y-110800000D03*
X153500000Y-110800000D03*
D17*
X153200000Y-113200000D03*
X160700000Y-113200000D03*
X159450000Y-113200000D03*
X158200000Y-113200000D03*
X156950000Y-113200000D03*
X155700000Y-113200000D03*
X154450000Y-113200000D03*
D20*
X103000000Y-103000000D03*
D25*
X159650000Y-139350000D03*
D26*
X117750000Y-115100000D03*
D27*
X121550000Y-115100000D03*
D28*
X139600000Y-136600000D03*
X141500000Y-136600000D03*
X153200000Y-135100000D03*
X150400000Y-111500000D03*
X151100000Y-114800000D03*
X144100000Y-115100000D03*
X132700000Y-121200000D03*
X131700000Y-120200000D03*
X170200000Y-130500000D03*
X170200000Y-126400000D03*
X170200000Y-122300000D03*
X170200000Y-118200000D03*
X141300000Y-132800000D03*
X139900000Y-132800000D03*
X141400000Y-111600000D03*
X138600000Y-116500000D03*
X173800000Y-113800000D03*
X159900000Y-116700000D03*
X156000000Y-117700000D03*
X102500000Y-131600000D03*
X142000000Y-116200000D03*
X144700000Y-132100000D03*
X136200000Y-123800000D03*
X126200000Y-120500000D03*
X147300000Y-119400000D03*
X101400000Y-121800000D03*
X171100000Y-133100000D03*
X168500000Y-133100000D03*
X166100000Y-133100000D03*
X140000000Y-127500000D03*
X147300000Y-127800000D03*
X151700000Y-118000000D03*
X170900000Y-109600000D03*
X170900000Y-111200000D03*
X151800000Y-116100000D03*
X143100000Y-117700000D03*
X151800000Y-115200000D03*
X151800000Y-113600000D03*
X149300000Y-112500000D03*
D29*
X127700000Y-128900000D03*
D28*
X170900000Y-127500000D03*
X169300000Y-127500000D03*
X170900000Y-123600000D03*
X169300000Y-123600000D03*
X170900000Y-119500000D03*
X169500000Y-119500000D03*
X172600000Y-115000000D03*
X171000000Y-114000000D03*
X162800000Y-109300000D03*
X151300000Y-123400000D03*
X137600000Y-115300000D03*
X139300000Y-113600000D03*
X138200000Y-111400000D03*
X138200000Y-110000000D03*
X115500000Y-122300000D03*
X112700000Y-122300000D03*
X161200000Y-117900000D03*
X143100000Y-118500000D03*
D29*
X103500000Y-124300000D03*
X106000000Y-120100000D03*
X121250000Y-131200000D03*
D30*
X169500000Y-114500000D02*
X167300000Y-114500000D01*
X158400000Y-110800000D02*
X155300000Y-110800000D01*
X160900000Y-108300000D02*
X158400000Y-110800000D01*
X163800000Y-108300000D02*
X160900000Y-108300000D01*
X164800000Y-109300000D02*
X163800000Y-108300000D01*
X164800000Y-112000000D02*
X164800000Y-109300000D01*
X167300000Y-114500000D02*
X164800000Y-112000000D01*
X169500000Y-116400000D02*
X169500000Y-114500000D01*
X169500000Y-114500000D02*
X169500000Y-114100000D01*
X172750000Y-110850000D02*
X174250000Y-110850000D01*
X169500000Y-114100000D02*
X172750000Y-110850000D01*
X141500000Y-136600000D02*
X139600000Y-136600000D01*
X159700000Y-128600000D02*
X168200000Y-128600000D01*
X153200000Y-135100000D02*
X159700000Y-128600000D01*
X172100000Y-128600000D02*
X168200000Y-128600000D01*
X172100000Y-124600000D02*
X168200000Y-124600000D01*
X172100000Y-120500000D02*
X168200000Y-120500000D01*
X169200000Y-116400000D02*
X169500000Y-116400000D01*
X169500000Y-116400000D02*
X172100000Y-116400000D01*
X168200000Y-117400000D02*
X169200000Y-116400000D01*
X168200000Y-128600000D02*
X168200000Y-124600000D01*
X168200000Y-124600000D02*
X168200000Y-120500000D01*
X168200000Y-120500000D02*
X168200000Y-117400000D01*
D11*
X150400000Y-111500000D02*
X150400000Y-110800000D01*
X141400000Y-111600000D02*
X144900000Y-111600000D01*
X145700000Y-110800000D02*
X150400000Y-110800000D01*
X150400000Y-110800000D02*
X153500000Y-110800000D01*
X144900000Y-111600000D02*
X145700000Y-110800000D01*
X147400000Y-115300000D02*
X150600000Y-115300000D01*
X150600000Y-115300000D02*
X151100000Y-114800000D01*
X144300000Y-115300000D02*
X147400000Y-115300000D01*
X144100000Y-115100000D02*
X144300000Y-115300000D01*
X132700000Y-121200000D02*
X131700000Y-120200000D01*
X172100000Y-130400000D02*
X170300000Y-130400000D01*
X170300000Y-130400000D02*
X170200000Y-130500000D01*
X172100000Y-126400000D02*
X170200000Y-126400000D01*
X172100000Y-122300000D02*
X170200000Y-122300000D01*
X172100000Y-118200000D02*
X170200000Y-118200000D01*
X139900000Y-132800000D02*
X141300000Y-132800000D01*
X141400000Y-113700000D02*
X141400000Y-111600000D01*
X138600000Y-116500000D02*
X141400000Y-113700000D01*
X174250000Y-113350000D02*
X174250000Y-112650000D01*
X173800000Y-113800000D02*
X174250000Y-113350000D01*
X147000000Y-127500000D02*
X140000000Y-127500000D01*
X147300000Y-127800000D02*
X147000000Y-127500000D01*
D30*
X174250000Y-111750000D02*
X176950000Y-111750000D01*
X154450000Y-113200000D02*
X154450000Y-110850000D01*
X154450000Y-110850000D02*
X154400000Y-110800000D01*
X172100000Y-129500000D02*
X172900000Y-129500000D01*
X172900000Y-129500000D02*
X174700000Y-131300000D01*
X174700000Y-131300000D02*
X176200000Y-131300000D01*
X176200000Y-131300000D02*
X176550000Y-130950000D01*
X176550000Y-130950000D02*
X176550000Y-130000000D01*
X172100000Y-125500000D02*
X172900000Y-125500000D01*
X172900000Y-125500000D02*
X174600000Y-127200000D01*
X174600000Y-127200000D02*
X176200000Y-127200000D01*
X176200000Y-127200000D02*
X176550000Y-126850000D01*
X176550000Y-126850000D02*
X176550000Y-125900000D01*
X172100000Y-121400000D02*
X172900000Y-121400000D01*
X172900000Y-121400000D02*
X174700000Y-123200000D01*
X174700000Y-123200000D02*
X176200000Y-123200000D01*
X176200000Y-123200000D02*
X176550000Y-122850000D01*
X176550000Y-122850000D02*
X176550000Y-121900000D01*
X172100000Y-117300000D02*
X172900000Y-117300000D01*
X172900000Y-117300000D02*
X174800000Y-119200000D01*
X174800000Y-119200000D02*
X176200000Y-119200000D01*
X176200000Y-119200000D02*
X176550000Y-118850000D01*
X176550000Y-118850000D02*
X176550000Y-117900000D01*
D11*
X170900000Y-111200000D02*
X170900000Y-109600000D01*
X151700000Y-116200000D02*
X151700000Y-118000000D01*
X151800000Y-116100000D02*
X151700000Y-116200000D01*
X149300000Y-117700000D02*
X143100000Y-117700000D01*
X151800000Y-115200000D02*
X149300000Y-117700000D01*
X151800000Y-113600000D02*
X150700000Y-112500000D01*
X150700000Y-112500000D02*
X149300000Y-112500000D01*
D31*
X153260000Y-140500000D02*
X153260000Y-137660000D01*
X153260000Y-137660000D02*
X150200000Y-134600000D01*
X150200000Y-134600000D02*
X133400000Y-134600000D01*
X133400000Y-134600000D02*
X127700000Y-128900000D01*
D11*
X170900000Y-127500000D02*
X169300000Y-127500000D01*
X169300000Y-123600000D02*
X170900000Y-123600000D01*
X169500000Y-119500000D02*
X170900000Y-119500000D01*
X172600000Y-115000000D02*
X171600000Y-114000000D01*
X171600000Y-114000000D02*
X171000000Y-114000000D01*
X162800000Y-117800000D02*
X162800000Y-109300000D01*
X160600000Y-120000000D02*
X162800000Y-117800000D01*
X154700000Y-120000000D02*
X160600000Y-120000000D01*
X151300000Y-123400000D02*
X154700000Y-120000000D01*
X139300000Y-113600000D02*
X137600000Y-115300000D01*
X138200000Y-110000000D02*
X138200000Y-111400000D01*
X112700000Y-122300000D02*
X115500000Y-122300000D01*
X143100000Y-118500000D02*
X147700000Y-118500000D01*
X147900000Y-118700000D02*
X148600000Y-119400000D01*
X148600000Y-119400000D02*
X159700000Y-119400000D01*
X159700000Y-119400000D02*
X161200000Y-117900000D01*
X147700000Y-118500000D02*
X147900000Y-118700000D01*
X103500000Y-124300000D02*
X106850000Y-120950000D01*
D31*
X124100000Y-138750000D02*
X124100000Y-138200000D01*
X124100000Y-138200000D02*
X106850000Y-120950000D01*
X106850000Y-120950000D02*
X106000000Y-120100000D01*
X133400000Y-138750000D02*
X125750000Y-131100000D01*
X121350000Y-131100000D02*
X125750000Y-131100000D01*
X121350000Y-131100000D02*
X121250000Y-131200000D01*
D32*
G36*
X164817404Y-100837899D02*
X165699880Y-101720375D01*
X166582356Y-100837899D01*
X166540372Y-100710000D01*
X171859628Y-100710000D01*
X171817644Y-100837899D01*
X172700120Y-101720375D01*
X173582596Y-100837899D01*
X173540612Y-100710000D01*
X175210429Y-100710000D01*
X174555643Y-101363645D01*
X174123384Y-102404638D01*
X174221739Y-102134680D01*
X174195729Y-101534516D01*
X174016097Y-101100848D01*
X173762201Y-101017504D01*
X172879725Y-101899980D01*
X173762201Y-102782456D01*
X174016097Y-102699112D01*
X174115500Y-102426278D01*
X174114501Y-103571344D01*
X174552790Y-104632086D01*
X175363645Y-105444357D01*
X176423620Y-105884498D01*
X177571344Y-105885499D01*
X178632086Y-105447210D01*
X179290000Y-104790443D01*
X179290000Y-137210429D01*
X178636355Y-136555643D01*
X177576380Y-136115502D01*
X176428656Y-136114501D01*
X175367914Y-136552790D01*
X174555643Y-137363645D01*
X174115502Y-138423620D01*
X174114501Y-139571344D01*
X174552790Y-140632086D01*
X175209557Y-141290000D01*
X160076906Y-141290000D01*
X160756537Y-141009183D01*
X161307249Y-140459431D01*
X161605659Y-139740779D01*
X161605750Y-139635750D01*
X162051400Y-139635750D01*
X162051400Y-140492310D01*
X162148073Y-140725699D01*
X162326702Y-140904327D01*
X162560091Y-141001000D01*
X163264250Y-141001000D01*
X163423000Y-140842250D01*
X163423000Y-139477000D01*
X162210150Y-139477000D01*
X162051400Y-139635750D01*
X161605750Y-139635750D01*
X161606338Y-138962635D01*
X161309183Y-138243463D01*
X161273473Y-138207690D01*
X162051400Y-138207690D01*
X162051400Y-139064250D01*
X162210150Y-139223000D01*
X163423000Y-139223000D01*
X163423000Y-137857750D01*
X163677000Y-137857750D01*
X163677000Y-139223000D01*
X163697000Y-139223000D01*
X163697000Y-139477000D01*
X163677000Y-139477000D01*
X163677000Y-140842250D01*
X163835750Y-141001000D01*
X164539909Y-141001000D01*
X164773298Y-140904327D01*
X164951927Y-140725699D01*
X165015500Y-140572220D01*
X165030330Y-140594415D01*
X165516511Y-140919271D01*
X166090000Y-141033345D01*
X166663489Y-140919271D01*
X167149670Y-140594415D01*
X167360000Y-140279634D01*
X167570330Y-140594415D01*
X168056511Y-140919271D01*
X168630000Y-141033345D01*
X169203489Y-140919271D01*
X169689670Y-140594415D01*
X169900000Y-140279634D01*
X170110330Y-140594415D01*
X170596511Y-140919271D01*
X171170000Y-141033345D01*
X171743489Y-140919271D01*
X172229670Y-140594415D01*
X172554526Y-140108234D01*
X172668600Y-139534745D01*
X172668600Y-139165255D01*
X172554526Y-138591766D01*
X172229670Y-138105585D01*
X171743489Y-137780729D01*
X171170000Y-137666655D01*
X170596511Y-137780729D01*
X170110330Y-138105585D01*
X169900000Y-138420366D01*
X169689670Y-138105585D01*
X169203489Y-137780729D01*
X168630000Y-137666655D01*
X168056511Y-137780729D01*
X167570330Y-138105585D01*
X167360000Y-138420366D01*
X167149670Y-138105585D01*
X166663489Y-137780729D01*
X166090000Y-137666655D01*
X165516511Y-137780729D01*
X165030330Y-138105585D01*
X165015500Y-138127780D01*
X164951927Y-137974301D01*
X164773298Y-137795673D01*
X164539909Y-137699000D01*
X163835750Y-137699000D01*
X163677000Y-137857750D01*
X163423000Y-137857750D01*
X163264250Y-137699000D01*
X162560091Y-137699000D01*
X162326702Y-137795673D01*
X162148073Y-137974301D01*
X162051400Y-138207690D01*
X161273473Y-138207690D01*
X160759431Y-137692751D01*
X160040779Y-137394341D01*
X159262635Y-137393662D01*
X158543463Y-137690817D01*
X157992751Y-138240569D01*
X157694341Y-138959221D01*
X157693662Y-139737365D01*
X157990817Y-140456537D01*
X158540569Y-141007249D01*
X159221510Y-141290000D01*
X156984613Y-141290000D01*
X157196757Y-140779100D01*
X157197242Y-140223339D01*
X156985010Y-139709697D01*
X156592370Y-139316371D01*
X156079100Y-139103243D01*
X155523339Y-139102758D01*
X155009697Y-139314990D01*
X154645000Y-139679051D01*
X154645000Y-137660005D01*
X154645001Y-137660000D01*
X154539574Y-137129984D01*
X154239343Y-136680657D01*
X153532834Y-135974148D01*
X153728943Y-135893117D01*
X153992192Y-135630327D01*
X154042566Y-135509014D01*
X160066579Y-129485000D01*
X170802560Y-129485000D01*
X170802560Y-129665000D01*
X170627234Y-129665000D01*
X170386799Y-129565162D01*
X170014833Y-129564838D01*
X169671057Y-129706883D01*
X169407808Y-129969673D01*
X169265162Y-130313201D01*
X169264838Y-130685167D01*
X169406883Y-131028943D01*
X169669673Y-131292192D01*
X170013201Y-131434838D01*
X170385167Y-131435162D01*
X170728943Y-131293117D01*
X170887336Y-131135000D01*
X170943156Y-131135000D01*
X170985910Y-131201441D01*
X171198110Y-131346431D01*
X171450000Y-131397440D01*
X172750000Y-131397440D01*
X172985317Y-131353162D01*
X173201441Y-131214090D01*
X173266822Y-131118402D01*
X174074208Y-131925787D01*
X174074210Y-131925790D01*
X174282554Y-132065000D01*
X174361325Y-132117633D01*
X174700000Y-132185000D01*
X176199995Y-132185000D01*
X176200000Y-132185001D01*
X176522004Y-132120949D01*
X176538675Y-132117633D01*
X176825790Y-131925790D01*
X176825791Y-131925789D01*
X177175787Y-131575792D01*
X177175790Y-131575790D01*
X177361225Y-131298266D01*
X177419864Y-131332757D01*
X177496866Y-131344071D01*
X177673000Y-131218022D01*
X177673000Y-130369680D01*
X177693000Y-130269134D01*
X177693000Y-130127000D01*
X177927000Y-130127000D01*
X177927000Y-131218022D01*
X178103134Y-131344071D01*
X178180136Y-131332757D01*
X178568614Y-131104256D01*
X178840078Y-130744485D01*
X178953199Y-130308215D01*
X178790610Y-130127000D01*
X177927000Y-130127000D01*
X177693000Y-130127000D01*
X177693000Y-129730866D01*
X177673000Y-129630320D01*
X177673000Y-128781978D01*
X177927000Y-128781978D01*
X177927000Y-129873000D01*
X178790610Y-129873000D01*
X178953199Y-129691785D01*
X178840078Y-129255515D01*
X178568614Y-128895744D01*
X178180136Y-128667243D01*
X178103134Y-128655929D01*
X177927000Y-128781978D01*
X177673000Y-128781978D01*
X177496866Y-128655929D01*
X177419864Y-128667243D01*
X177183798Y-128806096D01*
X176987407Y-128674872D01*
X176550000Y-128587866D01*
X176112593Y-128674872D01*
X175925000Y-128800217D01*
X175737407Y-128674872D01*
X175300000Y-128587866D01*
X174862593Y-128674872D01*
X174491777Y-128922643D01*
X174244006Y-129293459D01*
X174194404Y-129542824D01*
X173525790Y-128874210D01*
X173446079Y-128820949D01*
X173397440Y-128788450D01*
X173397440Y-128250000D01*
X173353162Y-128014683D01*
X173214090Y-127798559D01*
X173001890Y-127653569D01*
X172750000Y-127602560D01*
X171834911Y-127602560D01*
X171835090Y-127397440D01*
X172750000Y-127397440D01*
X172985317Y-127353162D01*
X173201441Y-127214090D01*
X173266822Y-127118402D01*
X173974208Y-127825787D01*
X173974210Y-127825790D01*
X174261325Y-128017633D01*
X174317516Y-128028810D01*
X174600000Y-128085001D01*
X174600005Y-128085000D01*
X176199995Y-128085000D01*
X176200000Y-128085001D01*
X176482484Y-128028810D01*
X176538675Y-128017633D01*
X176825790Y-127825790D01*
X176825791Y-127825789D01*
X177175787Y-127475792D01*
X177175790Y-127475790D01*
X177361225Y-127198266D01*
X177419864Y-127232757D01*
X177496866Y-127244071D01*
X177673000Y-127118022D01*
X177673000Y-126269680D01*
X177693000Y-126169134D01*
X177693000Y-126027000D01*
X177927000Y-126027000D01*
X177927000Y-127118022D01*
X178103134Y-127244071D01*
X178180136Y-127232757D01*
X178568614Y-127004256D01*
X178840078Y-126644485D01*
X178953199Y-126208215D01*
X178790610Y-126027000D01*
X177927000Y-126027000D01*
X177693000Y-126027000D01*
X177693000Y-125630866D01*
X177673000Y-125530320D01*
X177673000Y-124681978D01*
X177927000Y-124681978D01*
X177927000Y-125773000D01*
X178790610Y-125773000D01*
X178953199Y-125591785D01*
X178840078Y-125155515D01*
X178568614Y-124795744D01*
X178180136Y-124567243D01*
X178103134Y-124555929D01*
X177927000Y-124681978D01*
X177673000Y-124681978D01*
X177496866Y-124555929D01*
X177419864Y-124567243D01*
X177183798Y-124706096D01*
X176987407Y-124574872D01*
X176550000Y-124487866D01*
X176112593Y-124574872D01*
X175925000Y-124700217D01*
X175737407Y-124574872D01*
X175300000Y-124487866D01*
X174862593Y-124574872D01*
X174491777Y-124822643D01*
X174244006Y-125193459D01*
X174177813Y-125526233D01*
X173525790Y-124874210D01*
X173444244Y-124819723D01*
X173397440Y-124788450D01*
X173397440Y-124250000D01*
X173353162Y-124014683D01*
X173214090Y-123798559D01*
X173001890Y-123653569D01*
X172750000Y-123602560D01*
X171834998Y-123602560D01*
X171835162Y-123414833D01*
X171786656Y-123297440D01*
X172750000Y-123297440D01*
X172985317Y-123253162D01*
X173201441Y-123114090D01*
X173266822Y-123018402D01*
X174074208Y-123825787D01*
X174074210Y-123825790D01*
X174361325Y-124017633D01*
X174700000Y-124085000D01*
X176199995Y-124085000D01*
X176200000Y-124085001D01*
X176482484Y-124028810D01*
X176538675Y-124017633D01*
X176825790Y-123825790D01*
X176825791Y-123825789D01*
X177175787Y-123475792D01*
X177175790Y-123475790D01*
X177361225Y-123198266D01*
X177419864Y-123232757D01*
X177496866Y-123244071D01*
X177673000Y-123118022D01*
X177673000Y-122269680D01*
X177693000Y-122169134D01*
X177693000Y-122027000D01*
X177927000Y-122027000D01*
X177927000Y-123118022D01*
X178103134Y-123244071D01*
X178180136Y-123232757D01*
X178568614Y-123004256D01*
X178840078Y-122644485D01*
X178953199Y-122208215D01*
X178790610Y-122027000D01*
X177927000Y-122027000D01*
X177693000Y-122027000D01*
X177693000Y-121630866D01*
X177673000Y-121530320D01*
X177673000Y-120681978D01*
X177927000Y-120681978D01*
X177927000Y-121773000D01*
X178790610Y-121773000D01*
X178953199Y-121591785D01*
X178840078Y-121155515D01*
X178568614Y-120795744D01*
X178180136Y-120567243D01*
X178103134Y-120555929D01*
X177927000Y-120681978D01*
X177673000Y-120681978D01*
X177496866Y-120555929D01*
X177419864Y-120567243D01*
X177183798Y-120706096D01*
X176987407Y-120574872D01*
X176550000Y-120487866D01*
X176112593Y-120574872D01*
X175925000Y-120700217D01*
X175737407Y-120574872D01*
X175300000Y-120487866D01*
X174862593Y-120574872D01*
X174491777Y-120822643D01*
X174244006Y-121193459D01*
X174194404Y-121442824D01*
X173525790Y-120774210D01*
X173397440Y-120688450D01*
X173397440Y-120150000D01*
X173353162Y-119914683D01*
X173214090Y-119698559D01*
X173001890Y-119553569D01*
X172750000Y-119502560D01*
X171834998Y-119502560D01*
X171835162Y-119314833D01*
X171786656Y-119197440D01*
X172750000Y-119197440D01*
X172985317Y-119153162D01*
X173201441Y-119014090D01*
X173266822Y-118918402D01*
X174174208Y-119825787D01*
X174174210Y-119825790D01*
X174461325Y-120017633D01*
X174517516Y-120028810D01*
X174800000Y-120085001D01*
X174800005Y-120085000D01*
X176199995Y-120085000D01*
X176200000Y-120085001D01*
X176482484Y-120028810D01*
X176538675Y-120017633D01*
X176825790Y-119825790D01*
X177175787Y-119475792D01*
X177175790Y-119475790D01*
X177361225Y-119198266D01*
X177419864Y-119232757D01*
X177496866Y-119244071D01*
X177673000Y-119118022D01*
X177673000Y-118269680D01*
X177693000Y-118169134D01*
X177693000Y-118027000D01*
X177927000Y-118027000D01*
X177927000Y-119118022D01*
X178103134Y-119244071D01*
X178180136Y-119232757D01*
X178568614Y-119004256D01*
X178840078Y-118644485D01*
X178953199Y-118208215D01*
X178790610Y-118027000D01*
X177927000Y-118027000D01*
X177693000Y-118027000D01*
X177693000Y-117630866D01*
X177673000Y-117530320D01*
X177673000Y-116681978D01*
X177927000Y-116681978D01*
X177927000Y-117773000D01*
X178790610Y-117773000D01*
X178953199Y-117591785D01*
X178840078Y-117155515D01*
X178568614Y-116795744D01*
X178180136Y-116567243D01*
X178103134Y-116555929D01*
X177927000Y-116681978D01*
X177673000Y-116681978D01*
X177496866Y-116555929D01*
X177419864Y-116567243D01*
X177183798Y-116706096D01*
X176987407Y-116574872D01*
X176550000Y-116487866D01*
X176112593Y-116574872D01*
X175925000Y-116700217D01*
X175737407Y-116574872D01*
X175300000Y-116487866D01*
X174862593Y-116574872D01*
X174491777Y-116822643D01*
X174244006Y-117193459D01*
X174210995Y-117359415D01*
X173525790Y-116674210D01*
X173397440Y-116588450D01*
X173397440Y-116050000D01*
X173353162Y-115814683D01*
X173257016Y-115665268D01*
X173392192Y-115530327D01*
X173534838Y-115186799D01*
X173535162Y-114814833D01*
X173479101Y-114679155D01*
X173613201Y-114734838D01*
X173985167Y-114735162D01*
X174328943Y-114593117D01*
X174592192Y-114330327D01*
X174734838Y-113986799D01*
X174734910Y-113904537D01*
X174769723Y-113869724D01*
X174920872Y-113643513D01*
X175135317Y-113603162D01*
X175351441Y-113464090D01*
X175461417Y-113303134D01*
X175605929Y-113303134D01*
X175617243Y-113380136D01*
X175845744Y-113768614D01*
X176205515Y-114040078D01*
X176641785Y-114153199D01*
X176823000Y-113990610D01*
X176823000Y-113127000D01*
X177077000Y-113127000D01*
X177077000Y-113990610D01*
X177258215Y-114153199D01*
X177694485Y-114040078D01*
X178054256Y-113768614D01*
X178282757Y-113380136D01*
X178294071Y-113303134D01*
X178168022Y-113127000D01*
X177077000Y-113127000D01*
X176823000Y-113127000D01*
X175731978Y-113127000D01*
X175605929Y-113303134D01*
X175461417Y-113303134D01*
X175496431Y-113251890D01*
X175547440Y-113000000D01*
X175547440Y-112635000D01*
X175615019Y-112635000D01*
X175605929Y-112696866D01*
X175731978Y-112873000D01*
X176580320Y-112873000D01*
X176680866Y-112893000D01*
X177219134Y-112893000D01*
X177319680Y-112873000D01*
X178168022Y-112873000D01*
X178294071Y-112696866D01*
X178282757Y-112619864D01*
X178143904Y-112383798D01*
X178275128Y-112187407D01*
X178362134Y-111750000D01*
X178275128Y-111312593D01*
X178149783Y-111125000D01*
X178275128Y-110937407D01*
X178362134Y-110500000D01*
X178275128Y-110062593D01*
X178149783Y-109875000D01*
X178275128Y-109687407D01*
X178362134Y-109250000D01*
X178275128Y-108812593D01*
X178027357Y-108441777D01*
X177656541Y-108194006D01*
X177219134Y-108107000D01*
X176680866Y-108107000D01*
X176243459Y-108194006D01*
X175872643Y-108441777D01*
X175624872Y-108812593D01*
X175537866Y-109250000D01*
X175624872Y-109687407D01*
X175750217Y-109875000D01*
X175624872Y-110062593D01*
X175542786Y-110475266D01*
X175503162Y-110264683D01*
X175364090Y-110048559D01*
X175151890Y-109903569D01*
X174900000Y-109852560D01*
X173600000Y-109852560D01*
X173364683Y-109896838D01*
X173258756Y-109965000D01*
X172750005Y-109965000D01*
X172750000Y-109964999D01*
X172411325Y-110032367D01*
X172124210Y-110224210D01*
X172124208Y-110224213D01*
X171685247Y-110663174D01*
X171635000Y-110612838D01*
X171635000Y-110187419D01*
X171692192Y-110130327D01*
X171834838Y-109786799D01*
X171835162Y-109414833D01*
X171693117Y-109071057D01*
X171430327Y-108807808D01*
X171086799Y-108665162D01*
X170714833Y-108664838D01*
X170371057Y-108806883D01*
X170107808Y-109069673D01*
X169965162Y-109413201D01*
X169964838Y-109785167D01*
X170106883Y-110128943D01*
X170165000Y-110187162D01*
X170165000Y-110612581D01*
X170107808Y-110669673D01*
X169965162Y-111013201D01*
X169964838Y-111385167D01*
X170106883Y-111728943D01*
X170362957Y-111985464D01*
X168874210Y-113474210D01*
X168780138Y-113615000D01*
X167666579Y-113615000D01*
X165685000Y-111633420D01*
X165685000Y-109300005D01*
X165685001Y-109300000D01*
X165617634Y-108961326D01*
X165496661Y-108780277D01*
X165425790Y-108674210D01*
X165425787Y-108674208D01*
X164425790Y-107674210D01*
X164138675Y-107482367D01*
X164082484Y-107471190D01*
X163800000Y-107414999D01*
X163799995Y-107415000D01*
X160900005Y-107415000D01*
X160900000Y-107414999D01*
X160617516Y-107471190D01*
X160561325Y-107482367D01*
X160274210Y-107674210D01*
X160274208Y-107674213D01*
X158033420Y-109915000D01*
X156253222Y-109915000D01*
X156253162Y-109914683D01*
X156114090Y-109698559D01*
X155901890Y-109553569D01*
X155650000Y-109502560D01*
X154950000Y-109502560D01*
X154846329Y-109522067D01*
X154750000Y-109502560D01*
X154050000Y-109502560D01*
X153946329Y-109522067D01*
X153850000Y-109502560D01*
X153150000Y-109502560D01*
X152914683Y-109546838D01*
X152698559Y-109685910D01*
X152553569Y-109898110D01*
X152519773Y-110065000D01*
X145700000Y-110065000D01*
X145418728Y-110120949D01*
X145180277Y-110280276D01*
X144595554Y-110865000D01*
X141987419Y-110865000D01*
X141930327Y-110807808D01*
X141586799Y-110665162D01*
X141214833Y-110664838D01*
X140871057Y-110806883D01*
X140607808Y-111069673D01*
X140465162Y-111413201D01*
X140464838Y-111785167D01*
X140606883Y-112128943D01*
X140665000Y-112187162D01*
X140665000Y-113395553D01*
X140207204Y-113853350D01*
X140234838Y-113786799D01*
X140235162Y-113414833D01*
X140093117Y-113071057D01*
X139830327Y-112807808D01*
X139486799Y-112665162D01*
X139114833Y-112664838D01*
X138771057Y-112806883D01*
X138507808Y-113069673D01*
X138365162Y-113413201D01*
X138365090Y-113495463D01*
X137495645Y-114364908D01*
X137414833Y-114364838D01*
X137071057Y-114506883D01*
X136807808Y-114769673D01*
X136681856Y-115072998D01*
X136618023Y-115072998D01*
X136744071Y-114896866D01*
X136732757Y-114819864D01*
X136593904Y-114583798D01*
X136725128Y-114387407D01*
X136812134Y-113950000D01*
X136725128Y-113512593D01*
X136599783Y-113325000D01*
X136725128Y-113137407D01*
X136812134Y-112700000D01*
X136725128Y-112262593D01*
X136477357Y-111891777D01*
X136106541Y-111644006D01*
X135669134Y-111557000D01*
X135130866Y-111557000D01*
X134693459Y-111644006D01*
X134322643Y-111891777D01*
X134074872Y-112262593D01*
X133987866Y-112700000D01*
X134074872Y-113137407D01*
X134200217Y-113325000D01*
X134074872Y-113512593D01*
X133987866Y-113950000D01*
X134074872Y-114387407D01*
X134206096Y-114583798D01*
X134067243Y-114819864D01*
X134055929Y-114896866D01*
X134181978Y-115073000D01*
X135030320Y-115073000D01*
X135130866Y-115093000D01*
X135547000Y-115093000D01*
X135547000Y-115327000D01*
X135527000Y-115327000D01*
X135527000Y-116190610D01*
X135708215Y-116353199D01*
X136144485Y-116240078D01*
X136504256Y-115968614D01*
X136715912Y-115608775D01*
X136806883Y-115828943D01*
X137069673Y-116092192D01*
X137413201Y-116234838D01*
X137697598Y-116235086D01*
X137665162Y-116313201D01*
X137664838Y-116685167D01*
X137806883Y-117028943D01*
X138069673Y-117292192D01*
X138413201Y-117434838D01*
X138785167Y-117435162D01*
X139128943Y-117293117D01*
X139392192Y-117030327D01*
X139534838Y-116686799D01*
X139534910Y-116604536D01*
X141919724Y-114219723D01*
X142079051Y-113981272D01*
X142101239Y-113869724D01*
X142135000Y-113700000D01*
X142135000Y-112335000D01*
X144900000Y-112335000D01*
X145181272Y-112279051D01*
X145419723Y-112119723D01*
X146004447Y-111535000D01*
X149464969Y-111535000D01*
X149464943Y-111565143D01*
X149114833Y-111564838D01*
X148771057Y-111706883D01*
X148507808Y-111969673D01*
X148365162Y-112313201D01*
X148364838Y-112685167D01*
X148506883Y-113028943D01*
X148769673Y-113292192D01*
X149113201Y-113434838D01*
X149485167Y-113435162D01*
X149828943Y-113293117D01*
X149887162Y-113235000D01*
X150395554Y-113235000D01*
X150864908Y-113704355D01*
X150864838Y-113785167D01*
X150900247Y-113870865D01*
X150571057Y-114006883D01*
X150307808Y-114269673D01*
X150185177Y-114565000D01*
X144887071Y-114565000D01*
X144630327Y-114307808D01*
X144286799Y-114165162D01*
X143914833Y-114164838D01*
X143571057Y-114306883D01*
X143307808Y-114569673D01*
X143165162Y-114913201D01*
X143164838Y-115285167D01*
X143306883Y-115628943D01*
X143569673Y-115892192D01*
X143913201Y-116034838D01*
X144285167Y-116035162D01*
X144290252Y-116033061D01*
X144300000Y-116035000D01*
X149925554Y-116035000D01*
X148995554Y-116965000D01*
X143687419Y-116965000D01*
X143630327Y-116907808D01*
X143286799Y-116765162D01*
X142914833Y-116764838D01*
X142571057Y-116906883D01*
X142307808Y-117169673D01*
X142165162Y-117513201D01*
X142164838Y-117885167D01*
X142253648Y-118100104D01*
X142165162Y-118313201D01*
X142164838Y-118685167D01*
X142306883Y-119028943D01*
X142569673Y-119292192D01*
X142913201Y-119434838D01*
X143285167Y-119435162D01*
X143628943Y-119293117D01*
X143687162Y-119235000D01*
X147395554Y-119235000D01*
X148080276Y-119919723D01*
X148318727Y-120079051D01*
X148348635Y-120085000D01*
X148600000Y-120135000D01*
X153525553Y-120135000D01*
X151195645Y-122464908D01*
X151114833Y-122464838D01*
X150771057Y-122606883D01*
X150507808Y-122869673D01*
X150365162Y-123213201D01*
X150364838Y-123585167D01*
X150506883Y-123928943D01*
X150769673Y-124192192D01*
X151113201Y-124334838D01*
X151485167Y-124335162D01*
X151828943Y-124193117D01*
X152092192Y-123930327D01*
X152234838Y-123586799D01*
X152234910Y-123504536D01*
X155004447Y-120735000D01*
X160600000Y-120735000D01*
X160881272Y-120679051D01*
X161119723Y-120519723D01*
X163319724Y-118319723D01*
X163479051Y-118081272D01*
X163491050Y-118020949D01*
X163505162Y-117950000D01*
X163787866Y-117950000D01*
X163874872Y-118387407D01*
X164000217Y-118575000D01*
X163874872Y-118762593D01*
X163787866Y-119200000D01*
X163874872Y-119637407D01*
X164000217Y-119825000D01*
X163874872Y-120012593D01*
X163787866Y-120450000D01*
X163874872Y-120887407D01*
X164122643Y-121258223D01*
X164493459Y-121505994D01*
X164930866Y-121593000D01*
X165469134Y-121593000D01*
X165906541Y-121505994D01*
X166277357Y-121258223D01*
X166525128Y-120887407D01*
X166612134Y-120450000D01*
X166525128Y-120012593D01*
X166399783Y-119825000D01*
X166525128Y-119637407D01*
X166612134Y-119200000D01*
X166525128Y-118762593D01*
X166399783Y-118575000D01*
X166525128Y-118387407D01*
X166612134Y-117950000D01*
X166525128Y-117512593D01*
X166393904Y-117316202D01*
X166532757Y-117080136D01*
X166544071Y-117003134D01*
X166418022Y-116827000D01*
X165569680Y-116827000D01*
X165469134Y-116807000D01*
X164930866Y-116807000D01*
X164830320Y-116827000D01*
X163981978Y-116827000D01*
X163855929Y-117003134D01*
X163867243Y-117080136D01*
X164006096Y-117316202D01*
X163874872Y-117512593D01*
X163787866Y-117950000D01*
X163505162Y-117950000D01*
X163535000Y-117800000D01*
X163535000Y-116396866D01*
X163855929Y-116396866D01*
X163981978Y-116573000D01*
X165073000Y-116573000D01*
X165073000Y-115709390D01*
X165327000Y-115709390D01*
X165327000Y-116573000D01*
X166418022Y-116573000D01*
X166544071Y-116396866D01*
X166532757Y-116319864D01*
X166304256Y-115931386D01*
X165944485Y-115659922D01*
X165508215Y-115546801D01*
X165327000Y-115709390D01*
X165073000Y-115709390D01*
X164891785Y-115546801D01*
X164455515Y-115659922D01*
X164095744Y-115931386D01*
X163867243Y-116319864D01*
X163855929Y-116396866D01*
X163535000Y-116396866D01*
X163535000Y-109887419D01*
X163592192Y-109830327D01*
X163734838Y-109486799D01*
X163734838Y-109486418D01*
X163915000Y-109666579D01*
X163915000Y-111999995D01*
X163914999Y-112000000D01*
X163967233Y-112262593D01*
X163982367Y-112338675D01*
X164132984Y-112564090D01*
X164174210Y-112625790D01*
X166674208Y-115125787D01*
X166674210Y-115125790D01*
X166961325Y-115317633D01*
X167008416Y-115327000D01*
X167300000Y-115385001D01*
X167300005Y-115385000D01*
X168615000Y-115385000D01*
X168615000Y-115746955D01*
X168574210Y-115774210D01*
X168574208Y-115774213D01*
X167574210Y-116774210D01*
X167382367Y-117061325D01*
X167374038Y-117103199D01*
X167314999Y-117400000D01*
X167315000Y-117400005D01*
X167315000Y-127715000D01*
X159700005Y-127715000D01*
X159700000Y-127714999D01*
X159366830Y-127781272D01*
X159361325Y-127782367D01*
X159074210Y-127974210D01*
X159074208Y-127974213D01*
X152791164Y-134257256D01*
X152671057Y-134306883D01*
X152407808Y-134569673D01*
X152325816Y-134767130D01*
X151179343Y-133620657D01*
X151051148Y-133535000D01*
X150730017Y-133320427D01*
X150200000Y-133215000D01*
X142140080Y-133215000D01*
X142234838Y-132986799D01*
X142235162Y-132614833D01*
X142093117Y-132271057D01*
X141830327Y-132007808D01*
X141486799Y-131865162D01*
X141114833Y-131864838D01*
X140771057Y-132006883D01*
X140712838Y-132065000D01*
X140487419Y-132065000D01*
X140430327Y-132007808D01*
X140086799Y-131865162D01*
X139714833Y-131864838D01*
X139371057Y-132006883D01*
X139107808Y-132269673D01*
X138965162Y-132613201D01*
X138964838Y-132985167D01*
X139059803Y-133215000D01*
X133973686Y-133215000D01*
X130566901Y-129808215D01*
X133346801Y-129808215D01*
X133459922Y-130244485D01*
X133731386Y-130604256D01*
X134119864Y-130832757D01*
X134196866Y-130844071D01*
X134373000Y-130718022D01*
X134373000Y-129627000D01*
X133509390Y-129627000D01*
X133346801Y-129808215D01*
X130566901Y-129808215D01*
X129950471Y-129191785D01*
X133346801Y-129191785D01*
X133509390Y-129373000D01*
X134373000Y-129373000D01*
X134373000Y-129230866D01*
X134607000Y-129230866D01*
X134607000Y-129769134D01*
X134627000Y-129869680D01*
X134627000Y-130718022D01*
X134803134Y-130844071D01*
X134880136Y-130832757D01*
X135116202Y-130693904D01*
X135312593Y-130825128D01*
X135750000Y-130912134D01*
X136187407Y-130825128D01*
X136558223Y-130577357D01*
X136805994Y-130206541D01*
X136893000Y-129769134D01*
X136893000Y-129230866D01*
X136805994Y-128793459D01*
X136558223Y-128422643D01*
X136187407Y-128174872D01*
X135750000Y-128087866D01*
X135312593Y-128174872D01*
X135116202Y-128306096D01*
X134880136Y-128167243D01*
X134803134Y-128155929D01*
X134627000Y-128281978D01*
X134627000Y-129130320D01*
X134607000Y-129230866D01*
X134373000Y-129230866D01*
X134373000Y-128281978D01*
X134196866Y-128155929D01*
X134119864Y-128167243D01*
X133731386Y-128395744D01*
X133459922Y-128755515D01*
X133346801Y-129191785D01*
X129950471Y-129191785D01*
X128679343Y-127920657D01*
X128326907Y-127685167D01*
X139064838Y-127685167D01*
X139206883Y-128028943D01*
X139469673Y-128292192D01*
X139813201Y-128434838D01*
X140185167Y-128435162D01*
X140528943Y-128293117D01*
X140587162Y-128235000D01*
X146468067Y-128235000D01*
X146506883Y-128328943D01*
X146769673Y-128592192D01*
X147113201Y-128734838D01*
X147485167Y-128735162D01*
X147828943Y-128593117D01*
X148092192Y-128330327D01*
X148234838Y-127986799D01*
X148235162Y-127614833D01*
X148093117Y-127271057D01*
X147830327Y-127007808D01*
X147486799Y-126865162D01*
X147347259Y-126865040D01*
X147281272Y-126820949D01*
X147000000Y-126765000D01*
X140587419Y-126765000D01*
X140530327Y-126707808D01*
X140186799Y-126565162D01*
X139814833Y-126564838D01*
X139471057Y-126706883D01*
X139207808Y-126969673D01*
X139065162Y-127313201D01*
X139064838Y-127685167D01*
X128326907Y-127685167D01*
X128230016Y-127620427D01*
X127700000Y-127515000D01*
X127169984Y-127620427D01*
X126720657Y-127920657D01*
X126420427Y-128369984D01*
X126315000Y-128900000D01*
X126420427Y-129430016D01*
X126720657Y-129879343D01*
X132420657Y-135579343D01*
X132869983Y-135879573D01*
X133400000Y-135985000D01*
X138892629Y-135985000D01*
X138807808Y-136069673D01*
X138665162Y-136413201D01*
X138664838Y-136785167D01*
X138806883Y-137128943D01*
X139069673Y-137392192D01*
X139413201Y-137534838D01*
X139785167Y-137535162D01*
X139906569Y-137485000D01*
X141193178Y-137485000D01*
X141313201Y-137534838D01*
X141685167Y-137535162D01*
X142028943Y-137393117D01*
X142264255Y-137158215D01*
X144946801Y-137158215D01*
X145059922Y-137594485D01*
X145331386Y-137954256D01*
X145719864Y-138182757D01*
X145796866Y-138194071D01*
X145973000Y-138068022D01*
X145973000Y-136977000D01*
X145109390Y-136977000D01*
X144946801Y-137158215D01*
X142264255Y-137158215D01*
X142292192Y-137130327D01*
X142434838Y-136786799D01*
X142435162Y-136414833D01*
X142293117Y-136071057D01*
X142207210Y-135985000D01*
X145150856Y-135985000D01*
X145059922Y-136105515D01*
X144946801Y-136541785D01*
X145109390Y-136723000D01*
X145973000Y-136723000D01*
X145973000Y-136703000D01*
X146207000Y-136703000D01*
X146207000Y-137119134D01*
X146227000Y-137219680D01*
X146227000Y-138068022D01*
X146403134Y-138194071D01*
X146480136Y-138182757D01*
X146716202Y-138043904D01*
X146912593Y-138175128D01*
X147350000Y-138262134D01*
X147787407Y-138175128D01*
X148158223Y-137927357D01*
X148405994Y-137556541D01*
X148493000Y-137119134D01*
X148493000Y-136580866D01*
X148405994Y-136143459D01*
X148300115Y-135985000D01*
X149626314Y-135985000D01*
X151875000Y-138233686D01*
X151875000Y-139749526D01*
X151700213Y-139699392D01*
X150899605Y-140500000D01*
X150913748Y-140514143D01*
X150734143Y-140693748D01*
X150720000Y-140679605D01*
X150705858Y-140693748D01*
X150526253Y-140514143D01*
X150540395Y-140500000D01*
X149739787Y-139699392D01*
X149497603Y-139768857D01*
X149453547Y-139892344D01*
X149402397Y-139768857D01*
X149160213Y-139699392D01*
X148359605Y-140500000D01*
X148373748Y-140514143D01*
X148194143Y-140693748D01*
X148180000Y-140679605D01*
X148165858Y-140693748D01*
X147986253Y-140514143D01*
X148000395Y-140500000D01*
X147199787Y-139699392D01*
X146957603Y-139768857D01*
X146907491Y-139909318D01*
X146825010Y-139709697D01*
X146635432Y-139519787D01*
X147379392Y-139519787D01*
X148180000Y-140320395D01*
X148980608Y-139519787D01*
X149919392Y-139519787D01*
X150720000Y-140320395D01*
X151520608Y-139519787D01*
X151451143Y-139277603D01*
X150927698Y-139090856D01*
X150372632Y-139118638D01*
X149988857Y-139277603D01*
X149919392Y-139519787D01*
X148980608Y-139519787D01*
X148911143Y-139277603D01*
X148387698Y-139090856D01*
X147832632Y-139118638D01*
X147448857Y-139277603D01*
X147379392Y-139519787D01*
X146635432Y-139519787D01*
X146432370Y-139316371D01*
X145919100Y-139103243D01*
X145363339Y-139102758D01*
X144849697Y-139314990D01*
X144456371Y-139707630D01*
X144243243Y-140220900D01*
X144242758Y-140776661D01*
X144454865Y-141290000D01*
X142704825Y-141290000D01*
X142890078Y-141044485D01*
X143003199Y-140608215D01*
X142840610Y-140427000D01*
X141977000Y-140427000D01*
X141977000Y-140447000D01*
X141743000Y-140447000D01*
X141743000Y-140030866D01*
X141723000Y-139930320D01*
X141723000Y-139081978D01*
X141977000Y-139081978D01*
X141977000Y-140173000D01*
X142840610Y-140173000D01*
X143003199Y-139991785D01*
X142890078Y-139555515D01*
X142618614Y-139195744D01*
X142230136Y-138967243D01*
X142153134Y-138955929D01*
X141977000Y-139081978D01*
X141723000Y-139081978D01*
X141546866Y-138955929D01*
X141469864Y-138967243D01*
X141233798Y-139106096D01*
X141037407Y-138974872D01*
X140600000Y-138887866D01*
X140162593Y-138974872D01*
X139791777Y-139222643D01*
X139544006Y-139593459D01*
X139457000Y-140030866D01*
X139457000Y-140569134D01*
X139544006Y-141006541D01*
X139733407Y-141290000D01*
X104789571Y-141290000D01*
X105444357Y-140636355D01*
X105884498Y-139576380D01*
X105885499Y-138428656D01*
X105553445Y-137625022D01*
X107054584Y-137625022D01*
X107275353Y-137995743D01*
X108247012Y-138389119D01*
X109295247Y-138380713D01*
X110224647Y-137995743D01*
X110445416Y-137625022D01*
X108750000Y-135929605D01*
X107054584Y-137625022D01*
X105553445Y-137625022D01*
X105447210Y-137367914D01*
X104636355Y-136555643D01*
X103576380Y-136115502D01*
X102428656Y-136114501D01*
X101367914Y-136552790D01*
X100710000Y-137209557D01*
X100710000Y-135247012D01*
X106110881Y-135247012D01*
X106119287Y-136295247D01*
X106504257Y-137224647D01*
X106874978Y-137445416D01*
X108570395Y-135750000D01*
X108929605Y-135750000D01*
X110625022Y-137445416D01*
X110995743Y-137224647D01*
X111249377Y-136598158D01*
X111514853Y-137240658D01*
X112255443Y-137982542D01*
X113223567Y-138384542D01*
X114271834Y-138385457D01*
X115240658Y-137985147D01*
X115982542Y-137244557D01*
X116384542Y-136276433D01*
X116385457Y-135228166D01*
X115985147Y-134259342D01*
X115244557Y-133517458D01*
X114276433Y-133115458D01*
X113228166Y-133114543D01*
X112259342Y-133514853D01*
X111517458Y-134255443D01*
X111252150Y-134894375D01*
X110995743Y-134275353D01*
X110625022Y-134054584D01*
X108929605Y-135750000D01*
X108570395Y-135750000D01*
X106874978Y-134054584D01*
X106504257Y-134275353D01*
X106110881Y-135247012D01*
X100710000Y-135247012D01*
X100710000Y-133874978D01*
X107054584Y-133874978D01*
X108750000Y-135570395D01*
X110445416Y-133874978D01*
X110224647Y-133504257D01*
X109252988Y-133110881D01*
X108204753Y-133119287D01*
X107275353Y-133504257D01*
X107054584Y-133874978D01*
X100710000Y-133874978D01*
X100710000Y-124524775D01*
X102364803Y-124524775D01*
X102537233Y-124942086D01*
X102856235Y-125261645D01*
X103273244Y-125434803D01*
X103724775Y-125435197D01*
X104142086Y-125262767D01*
X104461645Y-124943765D01*
X104634803Y-124526756D01*
X104635084Y-124204362D01*
X106390380Y-122449066D01*
X120585525Y-136644211D01*
X120116679Y-136957484D01*
X119567160Y-137779897D01*
X119374195Y-138750000D01*
X119567160Y-139720103D01*
X120116679Y-140542516D01*
X120939092Y-141092035D01*
X121909195Y-141285000D01*
X126290805Y-141285000D01*
X127260908Y-141092035D01*
X128083321Y-140542516D01*
X128632840Y-139720103D01*
X128750000Y-139131098D01*
X128867160Y-139720103D01*
X129416679Y-140542516D01*
X130239092Y-141092035D01*
X131209195Y-141285000D01*
X135590805Y-141285000D01*
X136560908Y-141092035D01*
X137383321Y-140542516D01*
X137932840Y-139720103D01*
X138125805Y-138750000D01*
X137932840Y-137779897D01*
X137383321Y-136957484D01*
X136560908Y-136407965D01*
X135590805Y-136215000D01*
X132823686Y-136215000D01*
X126729343Y-130120657D01*
X126646045Y-130064999D01*
X126280017Y-129820427D01*
X125750000Y-129715000D01*
X121350000Y-129715000D01*
X120819983Y-129820427D01*
X120453955Y-130064999D01*
X120370657Y-130120657D01*
X120270657Y-130220657D01*
X119970427Y-130669984D01*
X119865000Y-131200000D01*
X119970427Y-131730016D01*
X120270657Y-132179343D01*
X120719984Y-132479573D01*
X121250000Y-132585000D01*
X121752733Y-132485000D01*
X125176314Y-132485000D01*
X129555824Y-136864510D01*
X129416679Y-136957484D01*
X128867160Y-137779897D01*
X128750000Y-138368902D01*
X128632840Y-137779897D01*
X128083321Y-136957484D01*
X127260908Y-136407965D01*
X126290805Y-136215000D01*
X124073686Y-136215000D01*
X110343853Y-122485167D01*
X111764838Y-122485167D01*
X111906883Y-122828943D01*
X112169673Y-123092192D01*
X112513201Y-123234838D01*
X112885167Y-123235162D01*
X113228943Y-123093117D01*
X113287162Y-123035000D01*
X114912581Y-123035000D01*
X114969673Y-123092192D01*
X115313201Y-123234838D01*
X115685167Y-123235162D01*
X116028943Y-123093117D01*
X116292192Y-122830327D01*
X116434838Y-122486799D01*
X116435162Y-122114833D01*
X116293117Y-121771057D01*
X116030327Y-121507808D01*
X115686799Y-121365162D01*
X115314833Y-121364838D01*
X114971057Y-121506883D01*
X114912838Y-121565000D01*
X113287419Y-121565000D01*
X113230327Y-121507808D01*
X112886799Y-121365162D01*
X112514833Y-121364838D01*
X112171057Y-121506883D01*
X111907808Y-121769673D01*
X111765162Y-122113201D01*
X111764838Y-122485167D01*
X110343853Y-122485167D01*
X108243853Y-120385167D01*
X130764838Y-120385167D01*
X130906883Y-120728943D01*
X131169673Y-120992192D01*
X131513201Y-121134838D01*
X131595463Y-121134910D01*
X131764908Y-121304355D01*
X131764838Y-121385167D01*
X131906883Y-121728943D01*
X132169673Y-121992192D01*
X132513201Y-122134838D01*
X132885167Y-122135162D01*
X133228943Y-121993117D01*
X133492192Y-121730327D01*
X133634838Y-121386799D01*
X133635162Y-121014833D01*
X133493117Y-120671057D01*
X133230327Y-120407808D01*
X132886799Y-120265162D01*
X132804537Y-120265090D01*
X132635092Y-120095645D01*
X132635162Y-120014833D01*
X132493117Y-119671057D01*
X132230327Y-119407808D01*
X131886799Y-119265162D01*
X131514833Y-119264838D01*
X131171057Y-119406883D01*
X130907808Y-119669673D01*
X130765162Y-120013201D01*
X130764838Y-120385167D01*
X108243853Y-120385167D01*
X106979343Y-119120657D01*
X106530016Y-118820427D01*
X106000000Y-118715000D01*
X105469984Y-118820427D01*
X105020657Y-119120657D01*
X104720427Y-119569984D01*
X104615000Y-120100000D01*
X104720427Y-120630016D01*
X105020657Y-121079343D01*
X105350934Y-121409620D01*
X103595471Y-123165082D01*
X103275225Y-123164803D01*
X102857914Y-123337233D01*
X102538355Y-123656235D01*
X102365197Y-124073244D01*
X102364803Y-124524775D01*
X100710000Y-124524775D01*
X100710000Y-117200000D01*
X128987866Y-117200000D01*
X129074872Y-117637407D01*
X129322643Y-118008223D01*
X129693459Y-118255994D01*
X130130866Y-118343000D01*
X130669134Y-118343000D01*
X131106541Y-118255994D01*
X131477357Y-118008223D01*
X131725128Y-117637407D01*
X131812134Y-117200000D01*
X131725128Y-116762593D01*
X131593904Y-116566202D01*
X131732757Y-116330136D01*
X131744071Y-116253134D01*
X131618022Y-116077000D01*
X130769680Y-116077000D01*
X130669134Y-116057000D01*
X130130866Y-116057000D01*
X130030320Y-116077000D01*
X129181978Y-116077000D01*
X129055929Y-116253134D01*
X129067243Y-116330136D01*
X129206096Y-116566202D01*
X129074872Y-116762593D01*
X128987866Y-117200000D01*
X100710000Y-117200000D01*
X100710000Y-114421834D01*
X104414543Y-114421834D01*
X104814853Y-115390658D01*
X105555443Y-116132542D01*
X106523567Y-116534542D01*
X107571834Y-116535457D01*
X108540658Y-116135147D01*
X109282542Y-115394557D01*
X109674756Y-114450000D01*
X116452560Y-114450000D01*
X116452560Y-115750000D01*
X116496838Y-115985317D01*
X116635910Y-116201441D01*
X116848110Y-116346431D01*
X117100000Y-116397440D01*
X118400000Y-116397440D01*
X118635317Y-116353162D01*
X118851441Y-116214090D01*
X118996431Y-116001890D01*
X118997012Y-115999016D01*
X120830590Y-115999016D01*
X120886271Y-116229611D01*
X121369078Y-116397622D01*
X121879428Y-116368083D01*
X122213729Y-116229611D01*
X122269410Y-115999016D01*
X121550000Y-115279605D01*
X120830590Y-115999016D01*
X118997012Y-115999016D01*
X119047440Y-115750000D01*
X119047440Y-114919078D01*
X120252378Y-114919078D01*
X120281917Y-115429428D01*
X120420389Y-115763729D01*
X120650984Y-115819410D01*
X121370395Y-115100000D01*
X121729605Y-115100000D01*
X122449016Y-115819410D01*
X122679611Y-115763729D01*
X122847622Y-115280922D01*
X122818083Y-114770572D01*
X122679611Y-114436271D01*
X122449016Y-114380590D01*
X121729605Y-115100000D01*
X121370395Y-115100000D01*
X120650984Y-114380590D01*
X120420389Y-114436271D01*
X120252378Y-114919078D01*
X119047440Y-114919078D01*
X119047440Y-114450000D01*
X119003162Y-114214683D01*
X118994347Y-114200984D01*
X120830590Y-114200984D01*
X121550000Y-114920395D01*
X122269410Y-114200984D01*
X122213729Y-113970389D01*
X121730922Y-113802378D01*
X121220572Y-113831917D01*
X120886271Y-113970389D01*
X120830590Y-114200984D01*
X118994347Y-114200984D01*
X118864090Y-113998559D01*
X118651890Y-113853569D01*
X118400000Y-113802560D01*
X117100000Y-113802560D01*
X116864683Y-113846838D01*
X116648559Y-113985910D01*
X116503569Y-114198110D01*
X116452560Y-114450000D01*
X109674756Y-114450000D01*
X109684542Y-114426433D01*
X109685394Y-113450000D01*
X128987866Y-113450000D01*
X129074872Y-113887407D01*
X129200217Y-114075000D01*
X129074872Y-114262593D01*
X128987866Y-114700000D01*
X129074872Y-115137407D01*
X129206096Y-115333798D01*
X129067243Y-115569864D01*
X129055929Y-115646866D01*
X129181978Y-115823000D01*
X130030320Y-115823000D01*
X130130866Y-115843000D01*
X130669134Y-115843000D01*
X130769680Y-115823000D01*
X131618022Y-115823000D01*
X131744071Y-115646866D01*
X131732757Y-115569864D01*
X131693507Y-115503134D01*
X134055929Y-115503134D01*
X134067243Y-115580136D01*
X134295744Y-115968614D01*
X134655515Y-116240078D01*
X135091785Y-116353199D01*
X135273000Y-116190610D01*
X135273000Y-115327000D01*
X134181978Y-115327000D01*
X134055929Y-115503134D01*
X131693507Y-115503134D01*
X131593904Y-115333798D01*
X131725128Y-115137407D01*
X131812134Y-114700000D01*
X131725128Y-114262593D01*
X131599783Y-114075000D01*
X131725128Y-113887407D01*
X131812134Y-113450000D01*
X131725128Y-113012593D01*
X131477357Y-112641777D01*
X131106541Y-112394006D01*
X130669134Y-112307000D01*
X130130866Y-112307000D01*
X129693459Y-112394006D01*
X129322643Y-112641777D01*
X129074872Y-113012593D01*
X128987866Y-113450000D01*
X109685394Y-113450000D01*
X109685457Y-113378166D01*
X109285147Y-112409342D01*
X108544557Y-111667458D01*
X107905625Y-111402150D01*
X108524647Y-111145743D01*
X108745416Y-110775022D01*
X107050000Y-109079605D01*
X105354584Y-110775022D01*
X105575353Y-111145743D01*
X106201842Y-111399377D01*
X105559342Y-111664853D01*
X104817458Y-112405443D01*
X104415458Y-113373567D01*
X104414543Y-114421834D01*
X100710000Y-114421834D01*
X100710000Y-108397012D01*
X104410881Y-108397012D01*
X104419287Y-109445247D01*
X104804257Y-110374647D01*
X105174978Y-110595416D01*
X106870395Y-108900000D01*
X107229605Y-108900000D01*
X108925022Y-110595416D01*
X109295743Y-110374647D01*
X109372453Y-110185167D01*
X137264838Y-110185167D01*
X137406883Y-110528943D01*
X137465000Y-110587162D01*
X137465000Y-110812581D01*
X137407808Y-110869673D01*
X137265162Y-111213201D01*
X137264838Y-111585167D01*
X137406883Y-111928943D01*
X137669673Y-112192192D01*
X138013201Y-112334838D01*
X138385167Y-112335162D01*
X138728943Y-112193117D01*
X138992192Y-111930327D01*
X139134838Y-111586799D01*
X139135162Y-111214833D01*
X138993117Y-110871057D01*
X138935000Y-110812838D01*
X138935000Y-110587419D01*
X138992192Y-110530327D01*
X139134838Y-110186799D01*
X139135162Y-109814833D01*
X138993117Y-109471057D01*
X138730327Y-109207808D01*
X138386799Y-109065162D01*
X138014833Y-109064838D01*
X137671057Y-109206883D01*
X137407808Y-109469673D01*
X137265162Y-109813201D01*
X137264838Y-110185167D01*
X109372453Y-110185167D01*
X109689119Y-109402988D01*
X109680713Y-108354753D01*
X109295743Y-107425353D01*
X108925022Y-107204584D01*
X107229605Y-108900000D01*
X106870395Y-108900000D01*
X105174978Y-107204584D01*
X104804257Y-107425353D01*
X104410881Y-108397012D01*
X100710000Y-108397012D01*
X100710000Y-107024978D01*
X105354584Y-107024978D01*
X107050000Y-108720395D01*
X108745416Y-107024978D01*
X108524647Y-106654257D01*
X107552988Y-106260881D01*
X106504753Y-106269287D01*
X105575353Y-106654257D01*
X105354584Y-107024978D01*
X100710000Y-107024978D01*
X100710000Y-104789571D01*
X101363645Y-105444357D01*
X102423620Y-105884498D01*
X103571344Y-105885499D01*
X104632086Y-105447210D01*
X105258554Y-104821834D01*
X111464543Y-104821834D01*
X111864853Y-105790658D01*
X112605443Y-106532542D01*
X113573567Y-106934542D01*
X114621834Y-106935457D01*
X115590658Y-106535147D01*
X116332542Y-105794557D01*
X116600162Y-105150057D01*
X116864853Y-105790658D01*
X117605443Y-106532542D01*
X118573567Y-106934542D01*
X119621834Y-106935457D01*
X120590658Y-106535147D01*
X121332542Y-105794557D01*
X121429938Y-105560000D01*
X129742968Y-105560000D01*
X129848395Y-106090017D01*
X130148625Y-106539343D01*
X130553692Y-106810000D01*
X130148625Y-107080657D01*
X129848395Y-107529983D01*
X129742968Y-108060000D01*
X129848395Y-108590017D01*
X130148625Y-109039343D01*
X130597951Y-109339573D01*
X131127968Y-109445000D01*
X131692032Y-109445000D01*
X132222049Y-109339573D01*
X132671375Y-109039343D01*
X132971605Y-108590017D01*
X133077032Y-108060000D01*
X132971605Y-107529983D01*
X132671375Y-107080657D01*
X132266308Y-106810000D01*
X132671375Y-106539343D01*
X132971605Y-106090017D01*
X133077032Y-105560000D01*
X134822968Y-105560000D01*
X134928395Y-106090017D01*
X135228625Y-106539343D01*
X135633692Y-106810000D01*
X135228625Y-107080657D01*
X134928395Y-107529983D01*
X134822968Y-108060000D01*
X134928395Y-108590017D01*
X135228625Y-109039343D01*
X135677951Y-109339573D01*
X136207968Y-109445000D01*
X136772032Y-109445000D01*
X137302049Y-109339573D01*
X137751375Y-109039343D01*
X138051605Y-108590017D01*
X138157032Y-108060000D01*
X138051605Y-107529983D01*
X137751375Y-107080657D01*
X137346308Y-106810000D01*
X137751375Y-106539343D01*
X138051605Y-106090017D01*
X138157032Y-105560000D01*
X139902968Y-105560000D01*
X140008395Y-106090017D01*
X140308625Y-106539343D01*
X140713692Y-106810000D01*
X140308625Y-107080657D01*
X140008395Y-107529983D01*
X139902968Y-108060000D01*
X140008395Y-108590017D01*
X140308625Y-109039343D01*
X140757951Y-109339573D01*
X141287968Y-109445000D01*
X141852032Y-109445000D01*
X142382049Y-109339573D01*
X142831375Y-109039343D01*
X143131605Y-108590017D01*
X143237032Y-108060000D01*
X143131605Y-107529983D01*
X142831375Y-107080657D01*
X142426308Y-106810000D01*
X142831375Y-106539343D01*
X143131605Y-106090017D01*
X143237032Y-105560000D01*
X144982968Y-105560000D01*
X145088395Y-106090017D01*
X145388625Y-106539343D01*
X145793692Y-106810000D01*
X145388625Y-107080657D01*
X145088395Y-107529983D01*
X144982968Y-108060000D01*
X145088395Y-108590017D01*
X145388625Y-109039343D01*
X145837951Y-109339573D01*
X146367968Y-109445000D01*
X146932032Y-109445000D01*
X147462049Y-109339573D01*
X147911375Y-109039343D01*
X148211605Y-108590017D01*
X148317032Y-108060000D01*
X148211605Y-107529983D01*
X147911375Y-107080657D01*
X147506308Y-106810000D01*
X147911375Y-106539343D01*
X148211605Y-106090017D01*
X148317032Y-105560000D01*
X150062968Y-105560000D01*
X150168395Y-106090017D01*
X150468625Y-106539343D01*
X150873692Y-106810000D01*
X150468625Y-107080657D01*
X150168395Y-107529983D01*
X150062968Y-108060000D01*
X150168395Y-108590017D01*
X150468625Y-109039343D01*
X150917951Y-109339573D01*
X151447968Y-109445000D01*
X152012032Y-109445000D01*
X152542049Y-109339573D01*
X152991375Y-109039343D01*
X153291605Y-108590017D01*
X153397032Y-108060000D01*
X153291605Y-107529983D01*
X152991375Y-107080657D01*
X152586308Y-106810000D01*
X152991375Y-106539343D01*
X153291605Y-106090017D01*
X153397032Y-105560000D01*
X155142968Y-105560000D01*
X155248395Y-106090017D01*
X155548625Y-106539343D01*
X155953692Y-106810000D01*
X155548625Y-107080657D01*
X155248395Y-107529983D01*
X155142968Y-108060000D01*
X155248395Y-108590017D01*
X155548625Y-109039343D01*
X155997951Y-109339573D01*
X156527968Y-109445000D01*
X157092032Y-109445000D01*
X157622049Y-109339573D01*
X158071375Y-109039343D01*
X158371605Y-108590017D01*
X158477032Y-108060000D01*
X158371605Y-107529983D01*
X158071375Y-107080657D01*
X157666308Y-106810000D01*
X158071375Y-106539343D01*
X158371605Y-106090017D01*
X158477032Y-105560000D01*
X158461271Y-105480762D01*
X165999483Y-105480762D01*
X166052061Y-105708757D01*
X166525734Y-105872558D01*
X167026035Y-105842624D01*
X167349219Y-105708757D01*
X167401797Y-105480762D01*
X170998203Y-105480762D01*
X171050781Y-105708757D01*
X171524454Y-105872558D01*
X172024755Y-105842624D01*
X172347939Y-105708757D01*
X172400517Y-105480762D01*
X171699360Y-104779605D01*
X170998203Y-105480762D01*
X167401797Y-105480762D01*
X166700640Y-104779605D01*
X165999483Y-105480762D01*
X158461271Y-105480762D01*
X158371605Y-105029983D01*
X158071375Y-104580657D01*
X157838559Y-104425094D01*
X165428082Y-104425094D01*
X165458016Y-104925395D01*
X165591883Y-105248579D01*
X165819878Y-105301157D01*
X166521035Y-104600000D01*
X166880245Y-104600000D01*
X167581402Y-105301157D01*
X167809397Y-105248579D01*
X167973198Y-104774906D01*
X167952269Y-104425094D01*
X170426802Y-104425094D01*
X170456736Y-104925395D01*
X170590603Y-105248579D01*
X170818598Y-105301157D01*
X171519755Y-104600000D01*
X171878965Y-104600000D01*
X172580122Y-105301157D01*
X172808117Y-105248579D01*
X172971918Y-104774906D01*
X172941984Y-104274605D01*
X172808117Y-103951421D01*
X172580122Y-103898843D01*
X171878965Y-104600000D01*
X171519755Y-104600000D01*
X170818598Y-103898843D01*
X170590603Y-103951421D01*
X170426802Y-104425094D01*
X167952269Y-104425094D01*
X167943264Y-104274605D01*
X167809397Y-103951421D01*
X167581402Y-103898843D01*
X166880245Y-104600000D01*
X166521035Y-104600000D01*
X165819878Y-103898843D01*
X165591883Y-103951421D01*
X165428082Y-104425094D01*
X157838559Y-104425094D01*
X157670724Y-104312951D01*
X157681721Y-104309964D01*
X158112736Y-103976894D01*
X158383481Y-103504235D01*
X158402318Y-103401185D01*
X158291806Y-103208215D01*
X160396801Y-103208215D01*
X160509922Y-103644485D01*
X160781386Y-104004256D01*
X161169864Y-104232757D01*
X161246866Y-104244071D01*
X161423000Y-104118022D01*
X161423000Y-103027000D01*
X160559390Y-103027000D01*
X160396801Y-103208215D01*
X158291806Y-103208215D01*
X158279656Y-103187000D01*
X156937000Y-103187000D01*
X156937000Y-103207000D01*
X156683000Y-103207000D01*
X156683000Y-103187000D01*
X155340344Y-103187000D01*
X155217682Y-103401185D01*
X155236519Y-103504235D01*
X155507264Y-103976894D01*
X155938279Y-104309964D01*
X155949276Y-104312951D01*
X155548625Y-104580657D01*
X155248395Y-105029983D01*
X155142968Y-105560000D01*
X153397032Y-105560000D01*
X153291605Y-105029983D01*
X152991375Y-104580657D01*
X152590724Y-104312951D01*
X152601721Y-104309964D01*
X153032736Y-103976894D01*
X153303481Y-103504235D01*
X153322318Y-103401185D01*
X153199656Y-103187000D01*
X151857000Y-103187000D01*
X151857000Y-103207000D01*
X151603000Y-103207000D01*
X151603000Y-103187000D01*
X150260344Y-103187000D01*
X150137682Y-103401185D01*
X150156519Y-103504235D01*
X150427264Y-103976894D01*
X150858279Y-104309964D01*
X150869276Y-104312951D01*
X150468625Y-104580657D01*
X150168395Y-105029983D01*
X150062968Y-105560000D01*
X148317032Y-105560000D01*
X148211605Y-105029983D01*
X147911375Y-104580657D01*
X147510724Y-104312951D01*
X147521721Y-104309964D01*
X147952736Y-103976894D01*
X148223481Y-103504235D01*
X148242318Y-103401185D01*
X148119656Y-103187000D01*
X146777000Y-103187000D01*
X146777000Y-103207000D01*
X146523000Y-103207000D01*
X146523000Y-103187000D01*
X145180344Y-103187000D01*
X145057682Y-103401185D01*
X145076519Y-103504235D01*
X145347264Y-103976894D01*
X145778279Y-104309964D01*
X145789276Y-104312951D01*
X145388625Y-104580657D01*
X145088395Y-105029983D01*
X144982968Y-105560000D01*
X143237032Y-105560000D01*
X143131605Y-105029983D01*
X142831375Y-104580657D01*
X142430724Y-104312951D01*
X142441721Y-104309964D01*
X142872736Y-103976894D01*
X143143481Y-103504235D01*
X143162318Y-103401185D01*
X143039656Y-103187000D01*
X141697000Y-103187000D01*
X141697000Y-103207000D01*
X141443000Y-103207000D01*
X141443000Y-103187000D01*
X140100344Y-103187000D01*
X139977682Y-103401185D01*
X139996519Y-103504235D01*
X140267264Y-103976894D01*
X140698279Y-104309964D01*
X140709276Y-104312951D01*
X140308625Y-104580657D01*
X140008395Y-105029983D01*
X139902968Y-105560000D01*
X138157032Y-105560000D01*
X138051605Y-105029983D01*
X137751375Y-104580657D01*
X137350724Y-104312951D01*
X137361721Y-104309964D01*
X137792736Y-103976894D01*
X138063481Y-103504235D01*
X138082318Y-103401185D01*
X137959656Y-103187000D01*
X136617000Y-103187000D01*
X136617000Y-103207000D01*
X136363000Y-103207000D01*
X136363000Y-103187000D01*
X135020344Y-103187000D01*
X134897682Y-103401185D01*
X134916519Y-103504235D01*
X135187264Y-103976894D01*
X135618279Y-104309964D01*
X135629276Y-104312951D01*
X135228625Y-104580657D01*
X134928395Y-105029983D01*
X134822968Y-105560000D01*
X133077032Y-105560000D01*
X132971605Y-105029983D01*
X132671375Y-104580657D01*
X132270724Y-104312951D01*
X132281721Y-104309964D01*
X132712736Y-103976894D01*
X132983481Y-103504235D01*
X133002318Y-103401185D01*
X132879656Y-103187000D01*
X131537000Y-103187000D01*
X131537000Y-103207000D01*
X131283000Y-103207000D01*
X131283000Y-103187000D01*
X129940344Y-103187000D01*
X129817682Y-103401185D01*
X129836519Y-103504235D01*
X130107264Y-103976894D01*
X130538279Y-104309964D01*
X130549276Y-104312951D01*
X130148625Y-104580657D01*
X129848395Y-105029983D01*
X129742968Y-105560000D01*
X121429938Y-105560000D01*
X121734542Y-104826433D01*
X121735457Y-103778166D01*
X121335147Y-102809342D01*
X121244778Y-102718815D01*
X129817682Y-102718815D01*
X129940344Y-102933000D01*
X131283000Y-102933000D01*
X131283000Y-101828132D01*
X131537000Y-101828132D01*
X131537000Y-102933000D01*
X132879656Y-102933000D01*
X133002318Y-102718815D01*
X134897682Y-102718815D01*
X135020344Y-102933000D01*
X136363000Y-102933000D01*
X136363000Y-101828132D01*
X136617000Y-101828132D01*
X136617000Y-102933000D01*
X137959656Y-102933000D01*
X138082318Y-102718815D01*
X139977682Y-102718815D01*
X140100344Y-102933000D01*
X141443000Y-102933000D01*
X141443000Y-101828132D01*
X141697000Y-101828132D01*
X141697000Y-102933000D01*
X143039656Y-102933000D01*
X143162318Y-102718815D01*
X145057682Y-102718815D01*
X145180344Y-102933000D01*
X146523000Y-102933000D01*
X146523000Y-101828132D01*
X146777000Y-101828132D01*
X146777000Y-102933000D01*
X148119656Y-102933000D01*
X148242318Y-102718815D01*
X150137682Y-102718815D01*
X150260344Y-102933000D01*
X151603000Y-102933000D01*
X151603000Y-101828132D01*
X151857000Y-101828132D01*
X151857000Y-102933000D01*
X153199656Y-102933000D01*
X153322318Y-102718815D01*
X155217682Y-102718815D01*
X155340344Y-102933000D01*
X156683000Y-102933000D01*
X156683000Y-101828132D01*
X156937000Y-101828132D01*
X156937000Y-102933000D01*
X158279656Y-102933000D01*
X158402318Y-102718815D01*
X158383481Y-102615765D01*
X158369745Y-102591785D01*
X160396801Y-102591785D01*
X160559390Y-102773000D01*
X161423000Y-102773000D01*
X161423000Y-102630866D01*
X161657000Y-102630866D01*
X161657000Y-103169134D01*
X161677000Y-103269680D01*
X161677000Y-104118022D01*
X161853134Y-104244071D01*
X161930136Y-104232757D01*
X162166202Y-104093904D01*
X162362593Y-104225128D01*
X162800000Y-104312134D01*
X163237407Y-104225128D01*
X163608223Y-103977357D01*
X163780692Y-103719238D01*
X165999483Y-103719238D01*
X166700640Y-104420395D01*
X167401797Y-103719238D01*
X170998203Y-103719238D01*
X171699360Y-104420395D01*
X172400517Y-103719238D01*
X172347939Y-103491243D01*
X171874266Y-103327442D01*
X171373965Y-103357376D01*
X171050781Y-103491243D01*
X170998203Y-103719238D01*
X167401797Y-103719238D01*
X167349219Y-103491243D01*
X166875546Y-103327442D01*
X166375245Y-103357376D01*
X166052061Y-103491243D01*
X165999483Y-103719238D01*
X163780692Y-103719238D01*
X163855994Y-103606541D01*
X163943000Y-103169134D01*
X163943000Y-102962061D01*
X164817404Y-102962061D01*
X164900748Y-103215957D01*
X165465180Y-103421599D01*
X166065344Y-103395589D01*
X166499012Y-103215957D01*
X166582356Y-102962061D01*
X171817644Y-102962061D01*
X171900988Y-103215957D01*
X172465420Y-103421599D01*
X173065584Y-103395589D01*
X173499252Y-103215957D01*
X173582596Y-102962061D01*
X172700120Y-102079585D01*
X171817644Y-102962061D01*
X166582356Y-102962061D01*
X165699880Y-102079585D01*
X164817404Y-102962061D01*
X163943000Y-102962061D01*
X163943000Y-102630866D01*
X163855994Y-102193459D01*
X163608223Y-101822643D01*
X163372713Y-101665280D01*
X164178261Y-101665280D01*
X164204271Y-102265444D01*
X164383903Y-102699112D01*
X164637799Y-102782456D01*
X165520275Y-101899980D01*
X165879485Y-101899980D01*
X166761961Y-102782456D01*
X167015857Y-102699112D01*
X167221499Y-102134680D01*
X167201157Y-101665280D01*
X171178501Y-101665280D01*
X171204511Y-102265444D01*
X171384143Y-102699112D01*
X171638039Y-102782456D01*
X172520515Y-101899980D01*
X171638039Y-101017504D01*
X171384143Y-101100848D01*
X171178501Y-101665280D01*
X167201157Y-101665280D01*
X167195489Y-101534516D01*
X167015857Y-101100848D01*
X166761961Y-101017504D01*
X165879485Y-101899980D01*
X165520275Y-101899980D01*
X164637799Y-101017504D01*
X164383903Y-101100848D01*
X164178261Y-101665280D01*
X163372713Y-101665280D01*
X163237407Y-101574872D01*
X162800000Y-101487866D01*
X162362593Y-101574872D01*
X162166202Y-101706096D01*
X161930136Y-101567243D01*
X161853134Y-101555929D01*
X161677000Y-101681978D01*
X161677000Y-102530320D01*
X161657000Y-102630866D01*
X161423000Y-102630866D01*
X161423000Y-101681978D01*
X161246866Y-101555929D01*
X161169864Y-101567243D01*
X160781386Y-101795744D01*
X160509922Y-102155515D01*
X160396801Y-102591785D01*
X158369745Y-102591785D01*
X158112736Y-102143106D01*
X157681721Y-101810036D01*
X157156055Y-101667261D01*
X156937000Y-101828132D01*
X156683000Y-101828132D01*
X156463945Y-101667261D01*
X155938279Y-101810036D01*
X155507264Y-102143106D01*
X155236519Y-102615765D01*
X155217682Y-102718815D01*
X153322318Y-102718815D01*
X153303481Y-102615765D01*
X153032736Y-102143106D01*
X152601721Y-101810036D01*
X152076055Y-101667261D01*
X151857000Y-101828132D01*
X151603000Y-101828132D01*
X151383945Y-101667261D01*
X150858279Y-101810036D01*
X150427264Y-102143106D01*
X150156519Y-102615765D01*
X150137682Y-102718815D01*
X148242318Y-102718815D01*
X148223481Y-102615765D01*
X147952736Y-102143106D01*
X147521721Y-101810036D01*
X146996055Y-101667261D01*
X146777000Y-101828132D01*
X146523000Y-101828132D01*
X146303945Y-101667261D01*
X145778279Y-101810036D01*
X145347264Y-102143106D01*
X145076519Y-102615765D01*
X145057682Y-102718815D01*
X143162318Y-102718815D01*
X143143481Y-102615765D01*
X142872736Y-102143106D01*
X142441721Y-101810036D01*
X141916055Y-101667261D01*
X141697000Y-101828132D01*
X141443000Y-101828132D01*
X141223945Y-101667261D01*
X140698279Y-101810036D01*
X140267264Y-102143106D01*
X139996519Y-102615765D01*
X139977682Y-102718815D01*
X138082318Y-102718815D01*
X138063481Y-102615765D01*
X137792736Y-102143106D01*
X137361721Y-101810036D01*
X136836055Y-101667261D01*
X136617000Y-101828132D01*
X136363000Y-101828132D01*
X136143945Y-101667261D01*
X135618279Y-101810036D01*
X135187264Y-102143106D01*
X134916519Y-102615765D01*
X134897682Y-102718815D01*
X133002318Y-102718815D01*
X132983481Y-102615765D01*
X132712736Y-102143106D01*
X132281721Y-101810036D01*
X131756055Y-101667261D01*
X131537000Y-101828132D01*
X131283000Y-101828132D01*
X131063945Y-101667261D01*
X130538279Y-101810036D01*
X130107264Y-102143106D01*
X129836519Y-102615765D01*
X129817682Y-102718815D01*
X121244778Y-102718815D01*
X120594557Y-102067458D01*
X119626433Y-101665458D01*
X118578166Y-101664543D01*
X117609342Y-102064853D01*
X116867458Y-102805443D01*
X116599838Y-103449943D01*
X116335147Y-102809342D01*
X115594557Y-102067458D01*
X114626433Y-101665458D01*
X113578166Y-101664543D01*
X112609342Y-102064853D01*
X111867458Y-102805443D01*
X111465458Y-103773567D01*
X111464543Y-104821834D01*
X105258554Y-104821834D01*
X105444357Y-104636355D01*
X105884498Y-103576380D01*
X105885499Y-102428656D01*
X105447210Y-101367914D01*
X104790443Y-100710000D01*
X164859388Y-100710000D01*
X164817404Y-100837899D01*
X164817404Y-100837899D01*
G37*
X164817404Y-100837899D02*
X165699880Y-101720375D01*
X166582356Y-100837899D01*
X166540372Y-100710000D01*
X171859628Y-100710000D01*
X171817644Y-100837899D01*
X172700120Y-101720375D01*
X173582596Y-100837899D01*
X173540612Y-100710000D01*
X175210429Y-100710000D01*
X174555643Y-101363645D01*
X174123384Y-102404638D01*
X174221739Y-102134680D01*
X174195729Y-101534516D01*
X174016097Y-101100848D01*
X173762201Y-101017504D01*
X172879725Y-101899980D01*
X173762201Y-102782456D01*
X174016097Y-102699112D01*
X174115500Y-102426278D01*
X174114501Y-103571344D01*
X174552790Y-104632086D01*
X175363645Y-105444357D01*
X176423620Y-105884498D01*
X177571344Y-105885499D01*
X178632086Y-105447210D01*
X179290000Y-104790443D01*
X179290000Y-137210429D01*
X178636355Y-136555643D01*
X177576380Y-136115502D01*
X176428656Y-136114501D01*
X175367914Y-136552790D01*
X174555643Y-137363645D01*
X174115502Y-138423620D01*
X174114501Y-139571344D01*
X174552790Y-140632086D01*
X175209557Y-141290000D01*
X160076906Y-141290000D01*
X160756537Y-141009183D01*
X161307249Y-140459431D01*
X161605659Y-139740779D01*
X161605750Y-139635750D01*
X162051400Y-139635750D01*
X162051400Y-140492310D01*
X162148073Y-140725699D01*
X162326702Y-140904327D01*
X162560091Y-141001000D01*
X163264250Y-141001000D01*
X163423000Y-140842250D01*
X163423000Y-139477000D01*
X162210150Y-139477000D01*
X162051400Y-139635750D01*
X161605750Y-139635750D01*
X161606338Y-138962635D01*
X161309183Y-138243463D01*
X161273473Y-138207690D01*
X162051400Y-138207690D01*
X162051400Y-139064250D01*
X162210150Y-139223000D01*
X163423000Y-139223000D01*
X163423000Y-137857750D01*
X163677000Y-137857750D01*
X163677000Y-139223000D01*
X163697000Y-139223000D01*
X163697000Y-139477000D01*
X163677000Y-139477000D01*
X163677000Y-140842250D01*
X163835750Y-141001000D01*
X164539909Y-141001000D01*
X164773298Y-140904327D01*
X164951927Y-140725699D01*
X165015500Y-140572220D01*
X165030330Y-140594415D01*
X165516511Y-140919271D01*
X166090000Y-141033345D01*
X166663489Y-140919271D01*
X167149670Y-140594415D01*
X167360000Y-140279634D01*
X167570330Y-140594415D01*
X168056511Y-140919271D01*
X168630000Y-141033345D01*
X169203489Y-140919271D01*
X169689670Y-140594415D01*
X169900000Y-140279634D01*
X170110330Y-140594415D01*
X170596511Y-140919271D01*
X171170000Y-141033345D01*
X171743489Y-140919271D01*
X172229670Y-140594415D01*
X172554526Y-140108234D01*
X172668600Y-139534745D01*
X172668600Y-139165255D01*
X172554526Y-138591766D01*
X172229670Y-138105585D01*
X171743489Y-137780729D01*
X171170000Y-137666655D01*
X170596511Y-137780729D01*
X170110330Y-138105585D01*
X169900000Y-138420366D01*
X169689670Y-138105585D01*
X169203489Y-137780729D01*
X168630000Y-137666655D01*
X168056511Y-137780729D01*
X167570330Y-138105585D01*
X167360000Y-138420366D01*
X167149670Y-138105585D01*
X166663489Y-137780729D01*
X166090000Y-137666655D01*
X165516511Y-137780729D01*
X165030330Y-138105585D01*
X165015500Y-138127780D01*
X164951927Y-137974301D01*
X164773298Y-137795673D01*
X164539909Y-137699000D01*
X163835750Y-137699000D01*
X163677000Y-137857750D01*
X163423000Y-137857750D01*
X163264250Y-137699000D01*
X162560091Y-137699000D01*
X162326702Y-137795673D01*
X162148073Y-137974301D01*
X162051400Y-138207690D01*
X161273473Y-138207690D01*
X160759431Y-137692751D01*
X160040779Y-137394341D01*
X159262635Y-137393662D01*
X158543463Y-137690817D01*
X157992751Y-138240569D01*
X157694341Y-138959221D01*
X157693662Y-139737365D01*
X157990817Y-140456537D01*
X158540569Y-141007249D01*
X159221510Y-141290000D01*
X156984613Y-141290000D01*
X157196757Y-140779100D01*
X157197242Y-140223339D01*
X156985010Y-139709697D01*
X156592370Y-139316371D01*
X156079100Y-139103243D01*
X155523339Y-139102758D01*
X155009697Y-139314990D01*
X154645000Y-139679051D01*
X154645000Y-137660005D01*
X154645001Y-137660000D01*
X154539574Y-137129984D01*
X154239343Y-136680657D01*
X153532834Y-135974148D01*
X153728943Y-135893117D01*
X153992192Y-135630327D01*
X154042566Y-135509014D01*
X160066579Y-129485000D01*
X170802560Y-129485000D01*
X170802560Y-129665000D01*
X170627234Y-129665000D01*
X170386799Y-129565162D01*
X170014833Y-129564838D01*
X169671057Y-129706883D01*
X169407808Y-129969673D01*
X169265162Y-130313201D01*
X169264838Y-130685167D01*
X169406883Y-131028943D01*
X169669673Y-131292192D01*
X170013201Y-131434838D01*
X170385167Y-131435162D01*
X170728943Y-131293117D01*
X170887336Y-131135000D01*
X170943156Y-131135000D01*
X170985910Y-131201441D01*
X171198110Y-131346431D01*
X171450000Y-131397440D01*
X172750000Y-131397440D01*
X172985317Y-131353162D01*
X173201441Y-131214090D01*
X173266822Y-131118402D01*
X174074208Y-131925787D01*
X174074210Y-131925790D01*
X174282554Y-132065000D01*
X174361325Y-132117633D01*
X174700000Y-132185000D01*
X176199995Y-132185000D01*
X176200000Y-132185001D01*
X176522004Y-132120949D01*
X176538675Y-132117633D01*
X176825790Y-131925790D01*
X176825791Y-131925789D01*
X177175787Y-131575792D01*
X177175790Y-131575790D01*
X177361225Y-131298266D01*
X177419864Y-131332757D01*
X177496866Y-131344071D01*
X177673000Y-131218022D01*
X177673000Y-130369680D01*
X177693000Y-130269134D01*
X177693000Y-130127000D01*
X177927000Y-130127000D01*
X177927000Y-131218022D01*
X178103134Y-131344071D01*
X178180136Y-131332757D01*
X178568614Y-131104256D01*
X178840078Y-130744485D01*
X178953199Y-130308215D01*
X178790610Y-130127000D01*
X177927000Y-130127000D01*
X177693000Y-130127000D01*
X177693000Y-129730866D01*
X177673000Y-129630320D01*
X177673000Y-128781978D01*
X177927000Y-128781978D01*
X177927000Y-129873000D01*
X178790610Y-129873000D01*
X178953199Y-129691785D01*
X178840078Y-129255515D01*
X178568614Y-128895744D01*
X178180136Y-128667243D01*
X178103134Y-128655929D01*
X177927000Y-128781978D01*
X177673000Y-128781978D01*
X177496866Y-128655929D01*
X177419864Y-128667243D01*
X177183798Y-128806096D01*
X176987407Y-128674872D01*
X176550000Y-128587866D01*
X176112593Y-128674872D01*
X175925000Y-128800217D01*
X175737407Y-128674872D01*
X175300000Y-128587866D01*
X174862593Y-128674872D01*
X174491777Y-128922643D01*
X174244006Y-129293459D01*
X174194404Y-129542824D01*
X173525790Y-128874210D01*
X173446079Y-128820949D01*
X173397440Y-128788450D01*
X173397440Y-128250000D01*
X173353162Y-128014683D01*
X173214090Y-127798559D01*
X173001890Y-127653569D01*
X172750000Y-127602560D01*
X171834911Y-127602560D01*
X171835090Y-127397440D01*
X172750000Y-127397440D01*
X172985317Y-127353162D01*
X173201441Y-127214090D01*
X173266822Y-127118402D01*
X173974208Y-127825787D01*
X173974210Y-127825790D01*
X174261325Y-128017633D01*
X174317516Y-128028810D01*
X174600000Y-128085001D01*
X174600005Y-128085000D01*
X176199995Y-128085000D01*
X176200000Y-128085001D01*
X176482484Y-128028810D01*
X176538675Y-128017633D01*
X176825790Y-127825790D01*
X176825791Y-127825789D01*
X177175787Y-127475792D01*
X177175790Y-127475790D01*
X177361225Y-127198266D01*
X177419864Y-127232757D01*
X177496866Y-127244071D01*
X177673000Y-127118022D01*
X177673000Y-126269680D01*
X177693000Y-126169134D01*
X177693000Y-126027000D01*
X177927000Y-126027000D01*
X177927000Y-127118022D01*
X178103134Y-127244071D01*
X178180136Y-127232757D01*
X178568614Y-127004256D01*
X178840078Y-126644485D01*
X178953199Y-126208215D01*
X178790610Y-126027000D01*
X177927000Y-126027000D01*
X177693000Y-126027000D01*
X177693000Y-125630866D01*
X177673000Y-125530320D01*
X177673000Y-124681978D01*
X177927000Y-124681978D01*
X177927000Y-125773000D01*
X178790610Y-125773000D01*
X178953199Y-125591785D01*
X178840078Y-125155515D01*
X178568614Y-124795744D01*
X178180136Y-124567243D01*
X178103134Y-124555929D01*
X177927000Y-124681978D01*
X177673000Y-124681978D01*
X177496866Y-124555929D01*
X177419864Y-124567243D01*
X177183798Y-124706096D01*
X176987407Y-124574872D01*
X176550000Y-124487866D01*
X176112593Y-124574872D01*
X175925000Y-124700217D01*
X175737407Y-124574872D01*
X175300000Y-124487866D01*
X174862593Y-124574872D01*
X174491777Y-124822643D01*
X174244006Y-125193459D01*
X174177813Y-125526233D01*
X173525790Y-124874210D01*
X173444244Y-124819723D01*
X173397440Y-124788450D01*
X173397440Y-124250000D01*
X173353162Y-124014683D01*
X173214090Y-123798559D01*
X173001890Y-123653569D01*
X172750000Y-123602560D01*
X171834998Y-123602560D01*
X171835162Y-123414833D01*
X171786656Y-123297440D01*
X172750000Y-123297440D01*
X172985317Y-123253162D01*
X173201441Y-123114090D01*
X173266822Y-123018402D01*
X174074208Y-123825787D01*
X174074210Y-123825790D01*
X174361325Y-124017633D01*
X174700000Y-124085000D01*
X176199995Y-124085000D01*
X176200000Y-124085001D01*
X176482484Y-124028810D01*
X176538675Y-124017633D01*
X176825790Y-123825790D01*
X176825791Y-123825789D01*
X177175787Y-123475792D01*
X177175790Y-123475790D01*
X177361225Y-123198266D01*
X177419864Y-123232757D01*
X177496866Y-123244071D01*
X177673000Y-123118022D01*
X177673000Y-122269680D01*
X177693000Y-122169134D01*
X177693000Y-122027000D01*
X177927000Y-122027000D01*
X177927000Y-123118022D01*
X178103134Y-123244071D01*
X178180136Y-123232757D01*
X178568614Y-123004256D01*
X178840078Y-122644485D01*
X178953199Y-122208215D01*
X178790610Y-122027000D01*
X177927000Y-122027000D01*
X177693000Y-122027000D01*
X177693000Y-121630866D01*
X177673000Y-121530320D01*
X177673000Y-120681978D01*
X177927000Y-120681978D01*
X177927000Y-121773000D01*
X178790610Y-121773000D01*
X178953199Y-121591785D01*
X178840078Y-121155515D01*
X178568614Y-120795744D01*
X178180136Y-120567243D01*
X178103134Y-120555929D01*
X177927000Y-120681978D01*
X177673000Y-120681978D01*
X177496866Y-120555929D01*
X177419864Y-120567243D01*
X177183798Y-120706096D01*
X176987407Y-120574872D01*
X176550000Y-120487866D01*
X176112593Y-120574872D01*
X175925000Y-120700217D01*
X175737407Y-120574872D01*
X175300000Y-120487866D01*
X174862593Y-120574872D01*
X174491777Y-120822643D01*
X174244006Y-121193459D01*
X174194404Y-121442824D01*
X173525790Y-120774210D01*
X173397440Y-120688450D01*
X173397440Y-120150000D01*
X173353162Y-119914683D01*
X173214090Y-119698559D01*
X173001890Y-119553569D01*
X172750000Y-119502560D01*
X171834998Y-119502560D01*
X171835162Y-119314833D01*
X171786656Y-119197440D01*
X172750000Y-119197440D01*
X172985317Y-119153162D01*
X173201441Y-119014090D01*
X173266822Y-118918402D01*
X174174208Y-119825787D01*
X174174210Y-119825790D01*
X174461325Y-120017633D01*
X174517516Y-120028810D01*
X174800000Y-120085001D01*
X174800005Y-120085000D01*
X176199995Y-120085000D01*
X176200000Y-120085001D01*
X176482484Y-120028810D01*
X176538675Y-120017633D01*
X176825790Y-119825790D01*
X177175787Y-119475792D01*
X177175790Y-119475790D01*
X177361225Y-119198266D01*
X177419864Y-119232757D01*
X177496866Y-119244071D01*
X177673000Y-119118022D01*
X177673000Y-118269680D01*
X177693000Y-118169134D01*
X177693000Y-118027000D01*
X177927000Y-118027000D01*
X177927000Y-119118022D01*
X178103134Y-119244071D01*
X178180136Y-119232757D01*
X178568614Y-119004256D01*
X178840078Y-118644485D01*
X178953199Y-118208215D01*
X178790610Y-118027000D01*
X177927000Y-118027000D01*
X177693000Y-118027000D01*
X177693000Y-117630866D01*
X177673000Y-117530320D01*
X177673000Y-116681978D01*
X177927000Y-116681978D01*
X177927000Y-117773000D01*
X178790610Y-117773000D01*
X178953199Y-117591785D01*
X178840078Y-117155515D01*
X178568614Y-116795744D01*
X178180136Y-116567243D01*
X178103134Y-116555929D01*
X177927000Y-116681978D01*
X177673000Y-116681978D01*
X177496866Y-116555929D01*
X177419864Y-116567243D01*
X177183798Y-116706096D01*
X176987407Y-116574872D01*
X176550000Y-116487866D01*
X176112593Y-116574872D01*
X175925000Y-116700217D01*
X175737407Y-116574872D01*
X175300000Y-116487866D01*
X174862593Y-116574872D01*
X174491777Y-116822643D01*
X174244006Y-117193459D01*
X174210995Y-117359415D01*
X173525790Y-116674210D01*
X173397440Y-116588450D01*
X173397440Y-116050000D01*
X173353162Y-115814683D01*
X173257016Y-115665268D01*
X173392192Y-115530327D01*
X173534838Y-115186799D01*
X173535162Y-114814833D01*
X173479101Y-114679155D01*
X173613201Y-114734838D01*
X173985167Y-114735162D01*
X174328943Y-114593117D01*
X174592192Y-114330327D01*
X174734838Y-113986799D01*
X174734910Y-113904537D01*
X174769723Y-113869724D01*
X174920872Y-113643513D01*
X175135317Y-113603162D01*
X175351441Y-113464090D01*
X175461417Y-113303134D01*
X175605929Y-113303134D01*
X175617243Y-113380136D01*
X175845744Y-113768614D01*
X176205515Y-114040078D01*
X176641785Y-114153199D01*
X176823000Y-113990610D01*
X176823000Y-113127000D01*
X177077000Y-113127000D01*
X177077000Y-113990610D01*
X177258215Y-114153199D01*
X177694485Y-114040078D01*
X178054256Y-113768614D01*
X178282757Y-113380136D01*
X178294071Y-113303134D01*
X178168022Y-113127000D01*
X177077000Y-113127000D01*
X176823000Y-113127000D01*
X175731978Y-113127000D01*
X175605929Y-113303134D01*
X175461417Y-113303134D01*
X175496431Y-113251890D01*
X175547440Y-113000000D01*
X175547440Y-112635000D01*
X175615019Y-112635000D01*
X175605929Y-112696866D01*
X175731978Y-112873000D01*
X176580320Y-112873000D01*
X176680866Y-112893000D01*
X177219134Y-112893000D01*
X177319680Y-112873000D01*
X178168022Y-112873000D01*
X178294071Y-112696866D01*
X178282757Y-112619864D01*
X178143904Y-112383798D01*
X178275128Y-112187407D01*
X178362134Y-111750000D01*
X178275128Y-111312593D01*
X178149783Y-111125000D01*
X178275128Y-110937407D01*
X178362134Y-110500000D01*
X178275128Y-110062593D01*
X178149783Y-109875000D01*
X178275128Y-109687407D01*
X178362134Y-109250000D01*
X178275128Y-108812593D01*
X178027357Y-108441777D01*
X177656541Y-108194006D01*
X177219134Y-108107000D01*
X176680866Y-108107000D01*
X176243459Y-108194006D01*
X175872643Y-108441777D01*
X175624872Y-108812593D01*
X175537866Y-109250000D01*
X175624872Y-109687407D01*
X175750217Y-109875000D01*
X175624872Y-110062593D01*
X175542786Y-110475266D01*
X175503162Y-110264683D01*
X175364090Y-110048559D01*
X175151890Y-109903569D01*
X174900000Y-109852560D01*
X173600000Y-109852560D01*
X173364683Y-109896838D01*
X173258756Y-109965000D01*
X172750005Y-109965000D01*
X172750000Y-109964999D01*
X172411325Y-110032367D01*
X172124210Y-110224210D01*
X172124208Y-110224213D01*
X171685247Y-110663174D01*
X171635000Y-110612838D01*
X171635000Y-110187419D01*
X171692192Y-110130327D01*
X171834838Y-109786799D01*
X171835162Y-109414833D01*
X171693117Y-109071057D01*
X171430327Y-108807808D01*
X171086799Y-108665162D01*
X170714833Y-108664838D01*
X170371057Y-108806883D01*
X170107808Y-109069673D01*
X169965162Y-109413201D01*
X169964838Y-109785167D01*
X170106883Y-110128943D01*
X170165000Y-110187162D01*
X170165000Y-110612581D01*
X170107808Y-110669673D01*
X169965162Y-111013201D01*
X169964838Y-111385167D01*
X170106883Y-111728943D01*
X170362957Y-111985464D01*
X168874210Y-113474210D01*
X168780138Y-113615000D01*
X167666579Y-113615000D01*
X165685000Y-111633420D01*
X165685000Y-109300005D01*
X165685001Y-109300000D01*
X165617634Y-108961326D01*
X165496661Y-108780277D01*
X165425790Y-108674210D01*
X165425787Y-108674208D01*
X164425790Y-107674210D01*
X164138675Y-107482367D01*
X164082484Y-107471190D01*
X163800000Y-107414999D01*
X163799995Y-107415000D01*
X160900005Y-107415000D01*
X160900000Y-107414999D01*
X160617516Y-107471190D01*
X160561325Y-107482367D01*
X160274210Y-107674210D01*
X160274208Y-107674213D01*
X158033420Y-109915000D01*
X156253222Y-109915000D01*
X156253162Y-109914683D01*
X156114090Y-109698559D01*
X155901890Y-109553569D01*
X155650000Y-109502560D01*
X154950000Y-109502560D01*
X154846329Y-109522067D01*
X154750000Y-109502560D01*
X154050000Y-109502560D01*
X153946329Y-109522067D01*
X153850000Y-109502560D01*
X153150000Y-109502560D01*
X152914683Y-109546838D01*
X152698559Y-109685910D01*
X152553569Y-109898110D01*
X152519773Y-110065000D01*
X145700000Y-110065000D01*
X145418728Y-110120949D01*
X145180277Y-110280276D01*
X144595554Y-110865000D01*
X141987419Y-110865000D01*
X141930327Y-110807808D01*
X141586799Y-110665162D01*
X141214833Y-110664838D01*
X140871057Y-110806883D01*
X140607808Y-111069673D01*
X140465162Y-111413201D01*
X140464838Y-111785167D01*
X140606883Y-112128943D01*
X140665000Y-112187162D01*
X140665000Y-113395553D01*
X140207204Y-113853350D01*
X140234838Y-113786799D01*
X140235162Y-113414833D01*
X140093117Y-113071057D01*
X139830327Y-112807808D01*
X139486799Y-112665162D01*
X139114833Y-112664838D01*
X138771057Y-112806883D01*
X138507808Y-113069673D01*
X138365162Y-113413201D01*
X138365090Y-113495463D01*
X137495645Y-114364908D01*
X137414833Y-114364838D01*
X137071057Y-114506883D01*
X136807808Y-114769673D01*
X136681856Y-115072998D01*
X136618023Y-115072998D01*
X136744071Y-114896866D01*
X136732757Y-114819864D01*
X136593904Y-114583798D01*
X136725128Y-114387407D01*
X136812134Y-113950000D01*
X136725128Y-113512593D01*
X136599783Y-113325000D01*
X136725128Y-113137407D01*
X136812134Y-112700000D01*
X136725128Y-112262593D01*
X136477357Y-111891777D01*
X136106541Y-111644006D01*
X135669134Y-111557000D01*
X135130866Y-111557000D01*
X134693459Y-111644006D01*
X134322643Y-111891777D01*
X134074872Y-112262593D01*
X133987866Y-112700000D01*
X134074872Y-113137407D01*
X134200217Y-113325000D01*
X134074872Y-113512593D01*
X133987866Y-113950000D01*
X134074872Y-114387407D01*
X134206096Y-114583798D01*
X134067243Y-114819864D01*
X134055929Y-114896866D01*
X134181978Y-115073000D01*
X135030320Y-115073000D01*
X135130866Y-115093000D01*
X135547000Y-115093000D01*
X135547000Y-115327000D01*
X135527000Y-115327000D01*
X135527000Y-116190610D01*
X135708215Y-116353199D01*
X136144485Y-116240078D01*
X136504256Y-115968614D01*
X136715912Y-115608775D01*
X136806883Y-115828943D01*
X137069673Y-116092192D01*
X137413201Y-116234838D01*
X137697598Y-116235086D01*
X137665162Y-116313201D01*
X137664838Y-116685167D01*
X137806883Y-117028943D01*
X138069673Y-117292192D01*
X138413201Y-117434838D01*
X138785167Y-117435162D01*
X139128943Y-117293117D01*
X139392192Y-117030327D01*
X139534838Y-116686799D01*
X139534910Y-116604536D01*
X141919724Y-114219723D01*
X142079051Y-113981272D01*
X142101239Y-113869724D01*
X142135000Y-113700000D01*
X142135000Y-112335000D01*
X144900000Y-112335000D01*
X145181272Y-112279051D01*
X145419723Y-112119723D01*
X146004447Y-111535000D01*
X149464969Y-111535000D01*
X149464943Y-111565143D01*
X149114833Y-111564838D01*
X148771057Y-111706883D01*
X148507808Y-111969673D01*
X148365162Y-112313201D01*
X148364838Y-112685167D01*
X148506883Y-113028943D01*
X148769673Y-113292192D01*
X149113201Y-113434838D01*
X149485167Y-113435162D01*
X149828943Y-113293117D01*
X149887162Y-113235000D01*
X150395554Y-113235000D01*
X150864908Y-113704355D01*
X150864838Y-113785167D01*
X150900247Y-113870865D01*
X150571057Y-114006883D01*
X150307808Y-114269673D01*
X150185177Y-114565000D01*
X144887071Y-114565000D01*
X144630327Y-114307808D01*
X144286799Y-114165162D01*
X143914833Y-114164838D01*
X143571057Y-114306883D01*
X143307808Y-114569673D01*
X143165162Y-114913201D01*
X143164838Y-115285167D01*
X143306883Y-115628943D01*
X143569673Y-115892192D01*
X143913201Y-116034838D01*
X144285167Y-116035162D01*
X144290252Y-116033061D01*
X144300000Y-116035000D01*
X149925554Y-116035000D01*
X148995554Y-116965000D01*
X143687419Y-116965000D01*
X143630327Y-116907808D01*
X143286799Y-116765162D01*
X142914833Y-116764838D01*
X142571057Y-116906883D01*
X142307808Y-117169673D01*
X142165162Y-117513201D01*
X142164838Y-117885167D01*
X142253648Y-118100104D01*
X142165162Y-118313201D01*
X142164838Y-118685167D01*
X142306883Y-119028943D01*
X142569673Y-119292192D01*
X142913201Y-119434838D01*
X143285167Y-119435162D01*
X143628943Y-119293117D01*
X143687162Y-119235000D01*
X147395554Y-119235000D01*
X148080276Y-119919723D01*
X148318727Y-120079051D01*
X148348635Y-120085000D01*
X148600000Y-120135000D01*
X153525553Y-120135000D01*
X151195645Y-122464908D01*
X151114833Y-122464838D01*
X150771057Y-122606883D01*
X150507808Y-122869673D01*
X150365162Y-123213201D01*
X150364838Y-123585167D01*
X150506883Y-123928943D01*
X150769673Y-124192192D01*
X151113201Y-124334838D01*
X151485167Y-124335162D01*
X151828943Y-124193117D01*
X152092192Y-123930327D01*
X152234838Y-123586799D01*
X152234910Y-123504536D01*
X155004447Y-120735000D01*
X160600000Y-120735000D01*
X160881272Y-120679051D01*
X161119723Y-120519723D01*
X163319724Y-118319723D01*
X163479051Y-118081272D01*
X163491050Y-118020949D01*
X163505162Y-117950000D01*
X163787866Y-117950000D01*
X163874872Y-118387407D01*
X164000217Y-118575000D01*
X163874872Y-118762593D01*
X163787866Y-119200000D01*
X163874872Y-119637407D01*
X164000217Y-119825000D01*
X163874872Y-120012593D01*
X163787866Y-120450000D01*
X163874872Y-120887407D01*
X164122643Y-121258223D01*
X164493459Y-121505994D01*
X164930866Y-121593000D01*
X165469134Y-121593000D01*
X165906541Y-121505994D01*
X166277357Y-121258223D01*
X166525128Y-120887407D01*
X166612134Y-120450000D01*
X166525128Y-120012593D01*
X166399783Y-119825000D01*
X166525128Y-119637407D01*
X166612134Y-119200000D01*
X166525128Y-118762593D01*
X166399783Y-118575000D01*
X166525128Y-118387407D01*
X166612134Y-117950000D01*
X166525128Y-117512593D01*
X166393904Y-117316202D01*
X166532757Y-117080136D01*
X166544071Y-117003134D01*
X166418022Y-116827000D01*
X165569680Y-116827000D01*
X165469134Y-116807000D01*
X164930866Y-116807000D01*
X164830320Y-116827000D01*
X163981978Y-116827000D01*
X163855929Y-117003134D01*
X163867243Y-117080136D01*
X164006096Y-117316202D01*
X163874872Y-117512593D01*
X163787866Y-117950000D01*
X163505162Y-117950000D01*
X163535000Y-117800000D01*
X163535000Y-116396866D01*
X163855929Y-116396866D01*
X163981978Y-116573000D01*
X165073000Y-116573000D01*
X165073000Y-115709390D01*
X165327000Y-115709390D01*
X165327000Y-116573000D01*
X166418022Y-116573000D01*
X166544071Y-116396866D01*
X166532757Y-116319864D01*
X166304256Y-115931386D01*
X165944485Y-115659922D01*
X165508215Y-115546801D01*
X165327000Y-115709390D01*
X165073000Y-115709390D01*
X164891785Y-115546801D01*
X164455515Y-115659922D01*
X164095744Y-115931386D01*
X163867243Y-116319864D01*
X163855929Y-116396866D01*
X163535000Y-116396866D01*
X163535000Y-109887419D01*
X163592192Y-109830327D01*
X163734838Y-109486799D01*
X163734838Y-109486418D01*
X163915000Y-109666579D01*
X163915000Y-111999995D01*
X163914999Y-112000000D01*
X163967233Y-112262593D01*
X163982367Y-112338675D01*
X164132984Y-112564090D01*
X164174210Y-112625790D01*
X166674208Y-115125787D01*
X166674210Y-115125790D01*
X166961325Y-115317633D01*
X167008416Y-115327000D01*
X167300000Y-115385001D01*
X167300005Y-115385000D01*
X168615000Y-115385000D01*
X168615000Y-115746955D01*
X168574210Y-115774210D01*
X168574208Y-115774213D01*
X167574210Y-116774210D01*
X167382367Y-117061325D01*
X167374038Y-117103199D01*
X167314999Y-117400000D01*
X167315000Y-117400005D01*
X167315000Y-127715000D01*
X159700005Y-127715000D01*
X159700000Y-127714999D01*
X159366830Y-127781272D01*
X159361325Y-127782367D01*
X159074210Y-127974210D01*
X159074208Y-127974213D01*
X152791164Y-134257256D01*
X152671057Y-134306883D01*
X152407808Y-134569673D01*
X152325816Y-134767130D01*
X151179343Y-133620657D01*
X151051148Y-133535000D01*
X150730017Y-133320427D01*
X150200000Y-133215000D01*
X142140080Y-133215000D01*
X142234838Y-132986799D01*
X142235162Y-132614833D01*
X142093117Y-132271057D01*
X141830327Y-132007808D01*
X141486799Y-131865162D01*
X141114833Y-131864838D01*
X140771057Y-132006883D01*
X140712838Y-132065000D01*
X140487419Y-132065000D01*
X140430327Y-132007808D01*
X140086799Y-131865162D01*
X139714833Y-131864838D01*
X139371057Y-132006883D01*
X139107808Y-132269673D01*
X138965162Y-132613201D01*
X138964838Y-132985167D01*
X139059803Y-133215000D01*
X133973686Y-133215000D01*
X130566901Y-129808215D01*
X133346801Y-129808215D01*
X133459922Y-130244485D01*
X133731386Y-130604256D01*
X134119864Y-130832757D01*
X134196866Y-130844071D01*
X134373000Y-130718022D01*
X134373000Y-129627000D01*
X133509390Y-129627000D01*
X133346801Y-129808215D01*
X130566901Y-129808215D01*
X129950471Y-129191785D01*
X133346801Y-129191785D01*
X133509390Y-129373000D01*
X134373000Y-129373000D01*
X134373000Y-129230866D01*
X134607000Y-129230866D01*
X134607000Y-129769134D01*
X134627000Y-129869680D01*
X134627000Y-130718022D01*
X134803134Y-130844071D01*
X134880136Y-130832757D01*
X135116202Y-130693904D01*
X135312593Y-130825128D01*
X135750000Y-130912134D01*
X136187407Y-130825128D01*
X136558223Y-130577357D01*
X136805994Y-130206541D01*
X136893000Y-129769134D01*
X136893000Y-129230866D01*
X136805994Y-128793459D01*
X136558223Y-128422643D01*
X136187407Y-128174872D01*
X135750000Y-128087866D01*
X135312593Y-128174872D01*
X135116202Y-128306096D01*
X134880136Y-128167243D01*
X134803134Y-128155929D01*
X134627000Y-128281978D01*
X134627000Y-129130320D01*
X134607000Y-129230866D01*
X134373000Y-129230866D01*
X134373000Y-128281978D01*
X134196866Y-128155929D01*
X134119864Y-128167243D01*
X133731386Y-128395744D01*
X133459922Y-128755515D01*
X133346801Y-129191785D01*
X129950471Y-129191785D01*
X128679343Y-127920657D01*
X128326907Y-127685167D01*
X139064838Y-127685167D01*
X139206883Y-128028943D01*
X139469673Y-128292192D01*
X139813201Y-128434838D01*
X140185167Y-128435162D01*
X140528943Y-128293117D01*
X140587162Y-128235000D01*
X146468067Y-128235000D01*
X146506883Y-128328943D01*
X146769673Y-128592192D01*
X147113201Y-128734838D01*
X147485167Y-128735162D01*
X147828943Y-128593117D01*
X148092192Y-128330327D01*
X148234838Y-127986799D01*
X148235162Y-127614833D01*
X148093117Y-127271057D01*
X147830327Y-127007808D01*
X147486799Y-126865162D01*
X147347259Y-126865040D01*
X147281272Y-126820949D01*
X147000000Y-126765000D01*
X140587419Y-126765000D01*
X140530327Y-126707808D01*
X140186799Y-126565162D01*
X139814833Y-126564838D01*
X139471057Y-126706883D01*
X139207808Y-126969673D01*
X139065162Y-127313201D01*
X139064838Y-127685167D01*
X128326907Y-127685167D01*
X128230016Y-127620427D01*
X127700000Y-127515000D01*
X127169984Y-127620427D01*
X126720657Y-127920657D01*
X126420427Y-128369984D01*
X126315000Y-128900000D01*
X126420427Y-129430016D01*
X126720657Y-129879343D01*
X132420657Y-135579343D01*
X132869983Y-135879573D01*
X133400000Y-135985000D01*
X138892629Y-135985000D01*
X138807808Y-136069673D01*
X138665162Y-136413201D01*
X138664838Y-136785167D01*
X138806883Y-137128943D01*
X139069673Y-137392192D01*
X139413201Y-137534838D01*
X139785167Y-137535162D01*
X139906569Y-137485000D01*
X141193178Y-137485000D01*
X141313201Y-137534838D01*
X141685167Y-137535162D01*
X142028943Y-137393117D01*
X142264255Y-137158215D01*
X144946801Y-137158215D01*
X145059922Y-137594485D01*
X145331386Y-137954256D01*
X145719864Y-138182757D01*
X145796866Y-138194071D01*
X145973000Y-138068022D01*
X145973000Y-136977000D01*
X145109390Y-136977000D01*
X144946801Y-137158215D01*
X142264255Y-137158215D01*
X142292192Y-137130327D01*
X142434838Y-136786799D01*
X142435162Y-136414833D01*
X142293117Y-136071057D01*
X142207210Y-135985000D01*
X145150856Y-135985000D01*
X145059922Y-136105515D01*
X144946801Y-136541785D01*
X145109390Y-136723000D01*
X145973000Y-136723000D01*
X145973000Y-136703000D01*
X146207000Y-136703000D01*
X146207000Y-137119134D01*
X146227000Y-137219680D01*
X146227000Y-138068022D01*
X146403134Y-138194071D01*
X146480136Y-138182757D01*
X146716202Y-138043904D01*
X146912593Y-138175128D01*
X147350000Y-138262134D01*
X147787407Y-138175128D01*
X148158223Y-137927357D01*
X148405994Y-137556541D01*
X148493000Y-137119134D01*
X148493000Y-136580866D01*
X148405994Y-136143459D01*
X148300115Y-135985000D01*
X149626314Y-135985000D01*
X151875000Y-138233686D01*
X151875000Y-139749526D01*
X151700213Y-139699392D01*
X150899605Y-140500000D01*
X150913748Y-140514143D01*
X150734143Y-140693748D01*
X150720000Y-140679605D01*
X150705858Y-140693748D01*
X150526253Y-140514143D01*
X150540395Y-140500000D01*
X149739787Y-139699392D01*
X149497603Y-139768857D01*
X149453547Y-139892344D01*
X149402397Y-139768857D01*
X149160213Y-139699392D01*
X148359605Y-140500000D01*
X148373748Y-140514143D01*
X148194143Y-140693748D01*
X148180000Y-140679605D01*
X148165858Y-140693748D01*
X147986253Y-140514143D01*
X148000395Y-140500000D01*
X147199787Y-139699392D01*
X146957603Y-139768857D01*
X146907491Y-139909318D01*
X146825010Y-139709697D01*
X146635432Y-139519787D01*
X147379392Y-139519787D01*
X148180000Y-140320395D01*
X148980608Y-139519787D01*
X149919392Y-139519787D01*
X150720000Y-140320395D01*
X151520608Y-139519787D01*
X151451143Y-139277603D01*
X150927698Y-139090856D01*
X150372632Y-139118638D01*
X149988857Y-139277603D01*
X149919392Y-139519787D01*
X148980608Y-139519787D01*
X148911143Y-139277603D01*
X148387698Y-139090856D01*
X147832632Y-139118638D01*
X147448857Y-139277603D01*
X147379392Y-139519787D01*
X146635432Y-139519787D01*
X146432370Y-139316371D01*
X145919100Y-139103243D01*
X145363339Y-139102758D01*
X144849697Y-139314990D01*
X144456371Y-139707630D01*
X144243243Y-140220900D01*
X144242758Y-140776661D01*
X144454865Y-141290000D01*
X142704825Y-141290000D01*
X142890078Y-141044485D01*
X143003199Y-140608215D01*
X142840610Y-140427000D01*
X141977000Y-140427000D01*
X141977000Y-140447000D01*
X141743000Y-140447000D01*
X141743000Y-140030866D01*
X141723000Y-139930320D01*
X141723000Y-139081978D01*
X141977000Y-139081978D01*
X141977000Y-140173000D01*
X142840610Y-140173000D01*
X143003199Y-139991785D01*
X142890078Y-139555515D01*
X142618614Y-139195744D01*
X142230136Y-138967243D01*
X142153134Y-138955929D01*
X141977000Y-139081978D01*
X141723000Y-139081978D01*
X141546866Y-138955929D01*
X141469864Y-138967243D01*
X141233798Y-139106096D01*
X141037407Y-138974872D01*
X140600000Y-138887866D01*
X140162593Y-138974872D01*
X139791777Y-139222643D01*
X139544006Y-139593459D01*
X139457000Y-140030866D01*
X139457000Y-140569134D01*
X139544006Y-141006541D01*
X139733407Y-141290000D01*
X104789571Y-141290000D01*
X105444357Y-140636355D01*
X105884498Y-139576380D01*
X105885499Y-138428656D01*
X105553445Y-137625022D01*
X107054584Y-137625022D01*
X107275353Y-137995743D01*
X108247012Y-138389119D01*
X109295247Y-138380713D01*
X110224647Y-137995743D01*
X110445416Y-137625022D01*
X108750000Y-135929605D01*
X107054584Y-137625022D01*
X105553445Y-137625022D01*
X105447210Y-137367914D01*
X104636355Y-136555643D01*
X103576380Y-136115502D01*
X102428656Y-136114501D01*
X101367914Y-136552790D01*
X100710000Y-137209557D01*
X100710000Y-135247012D01*
X106110881Y-135247012D01*
X106119287Y-136295247D01*
X106504257Y-137224647D01*
X106874978Y-137445416D01*
X108570395Y-135750000D01*
X108929605Y-135750000D01*
X110625022Y-137445416D01*
X110995743Y-137224647D01*
X111249377Y-136598158D01*
X111514853Y-137240658D01*
X112255443Y-137982542D01*
X113223567Y-138384542D01*
X114271834Y-138385457D01*
X115240658Y-137985147D01*
X115982542Y-137244557D01*
X116384542Y-136276433D01*
X116385457Y-135228166D01*
X115985147Y-134259342D01*
X115244557Y-133517458D01*
X114276433Y-133115458D01*
X113228166Y-133114543D01*
X112259342Y-133514853D01*
X111517458Y-134255443D01*
X111252150Y-134894375D01*
X110995743Y-134275353D01*
X110625022Y-134054584D01*
X108929605Y-135750000D01*
X108570395Y-135750000D01*
X106874978Y-134054584D01*
X106504257Y-134275353D01*
X106110881Y-135247012D01*
X100710000Y-135247012D01*
X100710000Y-133874978D01*
X107054584Y-133874978D01*
X108750000Y-135570395D01*
X110445416Y-133874978D01*
X110224647Y-133504257D01*
X109252988Y-133110881D01*
X108204753Y-133119287D01*
X107275353Y-133504257D01*
X107054584Y-133874978D01*
X100710000Y-133874978D01*
X100710000Y-124524775D01*
X102364803Y-124524775D01*
X102537233Y-124942086D01*
X102856235Y-125261645D01*
X103273244Y-125434803D01*
X103724775Y-125435197D01*
X104142086Y-125262767D01*
X104461645Y-124943765D01*
X104634803Y-124526756D01*
X104635084Y-124204362D01*
X106390380Y-122449066D01*
X120585525Y-136644211D01*
X120116679Y-136957484D01*
X119567160Y-137779897D01*
X119374195Y-138750000D01*
X119567160Y-139720103D01*
X120116679Y-140542516D01*
X120939092Y-141092035D01*
X121909195Y-141285000D01*
X126290805Y-141285000D01*
X127260908Y-141092035D01*
X128083321Y-140542516D01*
X128632840Y-139720103D01*
X128750000Y-139131098D01*
X128867160Y-139720103D01*
X129416679Y-140542516D01*
X130239092Y-141092035D01*
X131209195Y-141285000D01*
X135590805Y-141285000D01*
X136560908Y-141092035D01*
X137383321Y-140542516D01*
X137932840Y-139720103D01*
X138125805Y-138750000D01*
X137932840Y-137779897D01*
X137383321Y-136957484D01*
X136560908Y-136407965D01*
X135590805Y-136215000D01*
X132823686Y-136215000D01*
X126729343Y-130120657D01*
X126646045Y-130064999D01*
X126280017Y-129820427D01*
X125750000Y-129715000D01*
X121350000Y-129715000D01*
X120819983Y-129820427D01*
X120453955Y-130064999D01*
X120370657Y-130120657D01*
X120270657Y-130220657D01*
X119970427Y-130669984D01*
X119865000Y-131200000D01*
X119970427Y-131730016D01*
X120270657Y-132179343D01*
X120719984Y-132479573D01*
X121250000Y-132585000D01*
X121752733Y-132485000D01*
X125176314Y-132485000D01*
X129555824Y-136864510D01*
X129416679Y-136957484D01*
X128867160Y-137779897D01*
X128750000Y-138368902D01*
X128632840Y-137779897D01*
X128083321Y-136957484D01*
X127260908Y-136407965D01*
X126290805Y-136215000D01*
X124073686Y-136215000D01*
X110343853Y-122485167D01*
X111764838Y-122485167D01*
X111906883Y-122828943D01*
X112169673Y-123092192D01*
X112513201Y-123234838D01*
X112885167Y-123235162D01*
X113228943Y-123093117D01*
X113287162Y-123035000D01*
X114912581Y-123035000D01*
X114969673Y-123092192D01*
X115313201Y-123234838D01*
X115685167Y-123235162D01*
X116028943Y-123093117D01*
X116292192Y-122830327D01*
X116434838Y-122486799D01*
X116435162Y-122114833D01*
X116293117Y-121771057D01*
X116030327Y-121507808D01*
X115686799Y-121365162D01*
X115314833Y-121364838D01*
X114971057Y-121506883D01*
X114912838Y-121565000D01*
X113287419Y-121565000D01*
X113230327Y-121507808D01*
X112886799Y-121365162D01*
X112514833Y-121364838D01*
X112171057Y-121506883D01*
X111907808Y-121769673D01*
X111765162Y-122113201D01*
X111764838Y-122485167D01*
X110343853Y-122485167D01*
X108243853Y-120385167D01*
X130764838Y-120385167D01*
X130906883Y-120728943D01*
X131169673Y-120992192D01*
X131513201Y-121134838D01*
X131595463Y-121134910D01*
X131764908Y-121304355D01*
X131764838Y-121385167D01*
X131906883Y-121728943D01*
X132169673Y-121992192D01*
X132513201Y-122134838D01*
X132885167Y-122135162D01*
X133228943Y-121993117D01*
X133492192Y-121730327D01*
X133634838Y-121386799D01*
X133635162Y-121014833D01*
X133493117Y-120671057D01*
X133230327Y-120407808D01*
X132886799Y-120265162D01*
X132804537Y-120265090D01*
X132635092Y-120095645D01*
X132635162Y-120014833D01*
X132493117Y-119671057D01*
X132230327Y-119407808D01*
X131886799Y-119265162D01*
X131514833Y-119264838D01*
X131171057Y-119406883D01*
X130907808Y-119669673D01*
X130765162Y-120013201D01*
X130764838Y-120385167D01*
X108243853Y-120385167D01*
X106979343Y-119120657D01*
X106530016Y-118820427D01*
X106000000Y-118715000D01*
X105469984Y-118820427D01*
X105020657Y-119120657D01*
X104720427Y-119569984D01*
X104615000Y-120100000D01*
X104720427Y-120630016D01*
X105020657Y-121079343D01*
X105350934Y-121409620D01*
X103595471Y-123165082D01*
X103275225Y-123164803D01*
X102857914Y-123337233D01*
X102538355Y-123656235D01*
X102365197Y-124073244D01*
X102364803Y-124524775D01*
X100710000Y-124524775D01*
X100710000Y-117200000D01*
X128987866Y-117200000D01*
X129074872Y-117637407D01*
X129322643Y-118008223D01*
X129693459Y-118255994D01*
X130130866Y-118343000D01*
X130669134Y-118343000D01*
X131106541Y-118255994D01*
X131477357Y-118008223D01*
X131725128Y-117637407D01*
X131812134Y-117200000D01*
X131725128Y-116762593D01*
X131593904Y-116566202D01*
X131732757Y-116330136D01*
X131744071Y-116253134D01*
X131618022Y-116077000D01*
X130769680Y-116077000D01*
X130669134Y-116057000D01*
X130130866Y-116057000D01*
X130030320Y-116077000D01*
X129181978Y-116077000D01*
X129055929Y-116253134D01*
X129067243Y-116330136D01*
X129206096Y-116566202D01*
X129074872Y-116762593D01*
X128987866Y-117200000D01*
X100710000Y-117200000D01*
X100710000Y-114421834D01*
X104414543Y-114421834D01*
X104814853Y-115390658D01*
X105555443Y-116132542D01*
X106523567Y-116534542D01*
X107571834Y-116535457D01*
X108540658Y-116135147D01*
X109282542Y-115394557D01*
X109674756Y-114450000D01*
X116452560Y-114450000D01*
X116452560Y-115750000D01*
X116496838Y-115985317D01*
X116635910Y-116201441D01*
X116848110Y-116346431D01*
X117100000Y-116397440D01*
X118400000Y-116397440D01*
X118635317Y-116353162D01*
X118851441Y-116214090D01*
X118996431Y-116001890D01*
X118997012Y-115999016D01*
X120830590Y-115999016D01*
X120886271Y-116229611D01*
X121369078Y-116397622D01*
X121879428Y-116368083D01*
X122213729Y-116229611D01*
X122269410Y-115999016D01*
X121550000Y-115279605D01*
X120830590Y-115999016D01*
X118997012Y-115999016D01*
X119047440Y-115750000D01*
X119047440Y-114919078D01*
X120252378Y-114919078D01*
X120281917Y-115429428D01*
X120420389Y-115763729D01*
X120650984Y-115819410D01*
X121370395Y-115100000D01*
X121729605Y-115100000D01*
X122449016Y-115819410D01*
X122679611Y-115763729D01*
X122847622Y-115280922D01*
X122818083Y-114770572D01*
X122679611Y-114436271D01*
X122449016Y-114380590D01*
X121729605Y-115100000D01*
X121370395Y-115100000D01*
X120650984Y-114380590D01*
X120420389Y-114436271D01*
X120252378Y-114919078D01*
X119047440Y-114919078D01*
X119047440Y-114450000D01*
X119003162Y-114214683D01*
X118994347Y-114200984D01*
X120830590Y-114200984D01*
X121550000Y-114920395D01*
X122269410Y-114200984D01*
X122213729Y-113970389D01*
X121730922Y-113802378D01*
X121220572Y-113831917D01*
X120886271Y-113970389D01*
X120830590Y-114200984D01*
X118994347Y-114200984D01*
X118864090Y-113998559D01*
X118651890Y-113853569D01*
X118400000Y-113802560D01*
X117100000Y-113802560D01*
X116864683Y-113846838D01*
X116648559Y-113985910D01*
X116503569Y-114198110D01*
X116452560Y-114450000D01*
X109674756Y-114450000D01*
X109684542Y-114426433D01*
X109685394Y-113450000D01*
X128987866Y-113450000D01*
X129074872Y-113887407D01*
X129200217Y-114075000D01*
X129074872Y-114262593D01*
X128987866Y-114700000D01*
X129074872Y-115137407D01*
X129206096Y-115333798D01*
X129067243Y-115569864D01*
X129055929Y-115646866D01*
X129181978Y-115823000D01*
X130030320Y-115823000D01*
X130130866Y-115843000D01*
X130669134Y-115843000D01*
X130769680Y-115823000D01*
X131618022Y-115823000D01*
X131744071Y-115646866D01*
X131732757Y-115569864D01*
X131693507Y-115503134D01*
X134055929Y-115503134D01*
X134067243Y-115580136D01*
X134295744Y-115968614D01*
X134655515Y-116240078D01*
X135091785Y-116353199D01*
X135273000Y-116190610D01*
X135273000Y-115327000D01*
X134181978Y-115327000D01*
X134055929Y-115503134D01*
X131693507Y-115503134D01*
X131593904Y-115333798D01*
X131725128Y-115137407D01*
X131812134Y-114700000D01*
X131725128Y-114262593D01*
X131599783Y-114075000D01*
X131725128Y-113887407D01*
X131812134Y-113450000D01*
X131725128Y-113012593D01*
X131477357Y-112641777D01*
X131106541Y-112394006D01*
X130669134Y-112307000D01*
X130130866Y-112307000D01*
X129693459Y-112394006D01*
X129322643Y-112641777D01*
X129074872Y-113012593D01*
X128987866Y-113450000D01*
X109685394Y-113450000D01*
X109685457Y-113378166D01*
X109285147Y-112409342D01*
X108544557Y-111667458D01*
X107905625Y-111402150D01*
X108524647Y-111145743D01*
X108745416Y-110775022D01*
X107050000Y-109079605D01*
X105354584Y-110775022D01*
X105575353Y-111145743D01*
X106201842Y-111399377D01*
X105559342Y-111664853D01*
X104817458Y-112405443D01*
X104415458Y-113373567D01*
X104414543Y-114421834D01*
X100710000Y-114421834D01*
X100710000Y-108397012D01*
X104410881Y-108397012D01*
X104419287Y-109445247D01*
X104804257Y-110374647D01*
X105174978Y-110595416D01*
X106870395Y-108900000D01*
X107229605Y-108900000D01*
X108925022Y-110595416D01*
X109295743Y-110374647D01*
X109372453Y-110185167D01*
X137264838Y-110185167D01*
X137406883Y-110528943D01*
X137465000Y-110587162D01*
X137465000Y-110812581D01*
X137407808Y-110869673D01*
X137265162Y-111213201D01*
X137264838Y-111585167D01*
X137406883Y-111928943D01*
X137669673Y-112192192D01*
X138013201Y-112334838D01*
X138385167Y-112335162D01*
X138728943Y-112193117D01*
X138992192Y-111930327D01*
X139134838Y-111586799D01*
X139135162Y-111214833D01*
X138993117Y-110871057D01*
X138935000Y-110812838D01*
X138935000Y-110587419D01*
X138992192Y-110530327D01*
X139134838Y-110186799D01*
X139135162Y-109814833D01*
X138993117Y-109471057D01*
X138730327Y-109207808D01*
X138386799Y-109065162D01*
X138014833Y-109064838D01*
X137671057Y-109206883D01*
X137407808Y-109469673D01*
X137265162Y-109813201D01*
X137264838Y-110185167D01*
X109372453Y-110185167D01*
X109689119Y-109402988D01*
X109680713Y-108354753D01*
X109295743Y-107425353D01*
X108925022Y-107204584D01*
X107229605Y-108900000D01*
X106870395Y-108900000D01*
X105174978Y-107204584D01*
X104804257Y-107425353D01*
X104410881Y-108397012D01*
X100710000Y-108397012D01*
X100710000Y-107024978D01*
X105354584Y-107024978D01*
X107050000Y-108720395D01*
X108745416Y-107024978D01*
X108524647Y-106654257D01*
X107552988Y-106260881D01*
X106504753Y-106269287D01*
X105575353Y-106654257D01*
X105354584Y-107024978D01*
X100710000Y-107024978D01*
X100710000Y-104789571D01*
X101363645Y-105444357D01*
X102423620Y-105884498D01*
X103571344Y-105885499D01*
X104632086Y-105447210D01*
X105258554Y-104821834D01*
X111464543Y-104821834D01*
X111864853Y-105790658D01*
X112605443Y-106532542D01*
X113573567Y-106934542D01*
X114621834Y-106935457D01*
X115590658Y-106535147D01*
X116332542Y-105794557D01*
X116600162Y-105150057D01*
X116864853Y-105790658D01*
X117605443Y-106532542D01*
X118573567Y-106934542D01*
X119621834Y-106935457D01*
X120590658Y-106535147D01*
X121332542Y-105794557D01*
X121429938Y-105560000D01*
X129742968Y-105560000D01*
X129848395Y-106090017D01*
X130148625Y-106539343D01*
X130553692Y-106810000D01*
X130148625Y-107080657D01*
X129848395Y-107529983D01*
X129742968Y-108060000D01*
X129848395Y-108590017D01*
X130148625Y-109039343D01*
X130597951Y-109339573D01*
X131127968Y-109445000D01*
X131692032Y-109445000D01*
X132222049Y-109339573D01*
X132671375Y-109039343D01*
X132971605Y-108590017D01*
X133077032Y-108060000D01*
X132971605Y-107529983D01*
X132671375Y-107080657D01*
X132266308Y-106810000D01*
X132671375Y-106539343D01*
X132971605Y-106090017D01*
X133077032Y-105560000D01*
X134822968Y-105560000D01*
X134928395Y-106090017D01*
X135228625Y-106539343D01*
X135633692Y-106810000D01*
X135228625Y-107080657D01*
X134928395Y-107529983D01*
X134822968Y-108060000D01*
X134928395Y-108590017D01*
X135228625Y-109039343D01*
X135677951Y-109339573D01*
X136207968Y-109445000D01*
X136772032Y-109445000D01*
X137302049Y-109339573D01*
X137751375Y-109039343D01*
X138051605Y-108590017D01*
X138157032Y-108060000D01*
X138051605Y-107529983D01*
X137751375Y-107080657D01*
X137346308Y-106810000D01*
X137751375Y-106539343D01*
X138051605Y-106090017D01*
X138157032Y-105560000D01*
X139902968Y-105560000D01*
X140008395Y-106090017D01*
X140308625Y-106539343D01*
X140713692Y-106810000D01*
X140308625Y-107080657D01*
X140008395Y-107529983D01*
X139902968Y-108060000D01*
X140008395Y-108590017D01*
X140308625Y-109039343D01*
X140757951Y-109339573D01*
X141287968Y-109445000D01*
X141852032Y-109445000D01*
X142382049Y-109339573D01*
X142831375Y-109039343D01*
X143131605Y-108590017D01*
X143237032Y-108060000D01*
X143131605Y-107529983D01*
X142831375Y-107080657D01*
X142426308Y-106810000D01*
X142831375Y-106539343D01*
X143131605Y-106090017D01*
X143237032Y-105560000D01*
X144982968Y-105560000D01*
X145088395Y-106090017D01*
X145388625Y-106539343D01*
X145793692Y-106810000D01*
X145388625Y-107080657D01*
X145088395Y-107529983D01*
X144982968Y-108060000D01*
X145088395Y-108590017D01*
X145388625Y-109039343D01*
X145837951Y-109339573D01*
X146367968Y-109445000D01*
X146932032Y-109445000D01*
X147462049Y-109339573D01*
X147911375Y-109039343D01*
X148211605Y-108590017D01*
X148317032Y-108060000D01*
X148211605Y-107529983D01*
X147911375Y-107080657D01*
X147506308Y-106810000D01*
X147911375Y-106539343D01*
X148211605Y-106090017D01*
X148317032Y-105560000D01*
X150062968Y-105560000D01*
X150168395Y-106090017D01*
X150468625Y-106539343D01*
X150873692Y-106810000D01*
X150468625Y-107080657D01*
X150168395Y-107529983D01*
X150062968Y-108060000D01*
X150168395Y-108590017D01*
X150468625Y-109039343D01*
X150917951Y-109339573D01*
X151447968Y-109445000D01*
X152012032Y-109445000D01*
X152542049Y-109339573D01*
X152991375Y-109039343D01*
X153291605Y-108590017D01*
X153397032Y-108060000D01*
X153291605Y-107529983D01*
X152991375Y-107080657D01*
X152586308Y-106810000D01*
X152991375Y-106539343D01*
X153291605Y-106090017D01*
X153397032Y-105560000D01*
X155142968Y-105560000D01*
X155248395Y-106090017D01*
X155548625Y-106539343D01*
X155953692Y-106810000D01*
X155548625Y-107080657D01*
X155248395Y-107529983D01*
X155142968Y-108060000D01*
X155248395Y-108590017D01*
X155548625Y-109039343D01*
X155997951Y-109339573D01*
X156527968Y-109445000D01*
X157092032Y-109445000D01*
X157622049Y-109339573D01*
X158071375Y-109039343D01*
X158371605Y-108590017D01*
X158477032Y-108060000D01*
X158371605Y-107529983D01*
X158071375Y-107080657D01*
X157666308Y-106810000D01*
X158071375Y-106539343D01*
X158371605Y-106090017D01*
X158477032Y-105560000D01*
X158461271Y-105480762D01*
X165999483Y-105480762D01*
X166052061Y-105708757D01*
X166525734Y-105872558D01*
X167026035Y-105842624D01*
X167349219Y-105708757D01*
X167401797Y-105480762D01*
X170998203Y-105480762D01*
X171050781Y-105708757D01*
X171524454Y-105872558D01*
X172024755Y-105842624D01*
X172347939Y-105708757D01*
X172400517Y-105480762D01*
X171699360Y-104779605D01*
X170998203Y-105480762D01*
X167401797Y-105480762D01*
X166700640Y-104779605D01*
X165999483Y-105480762D01*
X158461271Y-105480762D01*
X158371605Y-105029983D01*
X158071375Y-104580657D01*
X157838559Y-104425094D01*
X165428082Y-104425094D01*
X165458016Y-104925395D01*
X165591883Y-105248579D01*
X165819878Y-105301157D01*
X166521035Y-104600000D01*
X166880245Y-104600000D01*
X167581402Y-105301157D01*
X167809397Y-105248579D01*
X167973198Y-104774906D01*
X167952269Y-104425094D01*
X170426802Y-104425094D01*
X170456736Y-104925395D01*
X170590603Y-105248579D01*
X170818598Y-105301157D01*
X171519755Y-104600000D01*
X171878965Y-104600000D01*
X172580122Y-105301157D01*
X172808117Y-105248579D01*
X172971918Y-104774906D01*
X172941984Y-104274605D01*
X172808117Y-103951421D01*
X172580122Y-103898843D01*
X171878965Y-104600000D01*
X171519755Y-104600000D01*
X170818598Y-103898843D01*
X170590603Y-103951421D01*
X170426802Y-104425094D01*
X167952269Y-104425094D01*
X167943264Y-104274605D01*
X167809397Y-103951421D01*
X167581402Y-103898843D01*
X166880245Y-104600000D01*
X166521035Y-104600000D01*
X165819878Y-103898843D01*
X165591883Y-103951421D01*
X165428082Y-104425094D01*
X157838559Y-104425094D01*
X157670724Y-104312951D01*
X157681721Y-104309964D01*
X158112736Y-103976894D01*
X158383481Y-103504235D01*
X158402318Y-103401185D01*
X158291806Y-103208215D01*
X160396801Y-103208215D01*
X160509922Y-103644485D01*
X160781386Y-104004256D01*
X161169864Y-104232757D01*
X161246866Y-104244071D01*
X161423000Y-104118022D01*
X161423000Y-103027000D01*
X160559390Y-103027000D01*
X160396801Y-103208215D01*
X158291806Y-103208215D01*
X158279656Y-103187000D01*
X156937000Y-103187000D01*
X156937000Y-103207000D01*
X156683000Y-103207000D01*
X156683000Y-103187000D01*
X155340344Y-103187000D01*
X155217682Y-103401185D01*
X155236519Y-103504235D01*
X155507264Y-103976894D01*
X155938279Y-104309964D01*
X155949276Y-104312951D01*
X155548625Y-104580657D01*
X155248395Y-105029983D01*
X155142968Y-105560000D01*
X153397032Y-105560000D01*
X153291605Y-105029983D01*
X152991375Y-104580657D01*
X152590724Y-104312951D01*
X152601721Y-104309964D01*
X153032736Y-103976894D01*
X153303481Y-103504235D01*
X153322318Y-103401185D01*
X153199656Y-103187000D01*
X151857000Y-103187000D01*
X151857000Y-103207000D01*
X151603000Y-103207000D01*
X151603000Y-103187000D01*
X150260344Y-103187000D01*
X150137682Y-103401185D01*
X150156519Y-103504235D01*
X150427264Y-103976894D01*
X150858279Y-104309964D01*
X150869276Y-104312951D01*
X150468625Y-104580657D01*
X150168395Y-105029983D01*
X150062968Y-105560000D01*
X148317032Y-105560000D01*
X148211605Y-105029983D01*
X147911375Y-104580657D01*
X147510724Y-104312951D01*
X147521721Y-104309964D01*
X147952736Y-103976894D01*
X148223481Y-103504235D01*
X148242318Y-103401185D01*
X148119656Y-103187000D01*
X146777000Y-103187000D01*
X146777000Y-103207000D01*
X146523000Y-103207000D01*
X146523000Y-103187000D01*
X145180344Y-103187000D01*
X145057682Y-103401185D01*
X145076519Y-103504235D01*
X145347264Y-103976894D01*
X145778279Y-104309964D01*
X145789276Y-104312951D01*
X145388625Y-104580657D01*
X145088395Y-105029983D01*
X144982968Y-105560000D01*
X143237032Y-105560000D01*
X143131605Y-105029983D01*
X142831375Y-104580657D01*
X142430724Y-104312951D01*
X142441721Y-104309964D01*
X142872736Y-103976894D01*
X143143481Y-103504235D01*
X143162318Y-103401185D01*
X143039656Y-103187000D01*
X141697000Y-103187000D01*
X141697000Y-103207000D01*
X141443000Y-103207000D01*
X141443000Y-103187000D01*
X140100344Y-103187000D01*
X139977682Y-103401185D01*
X139996519Y-103504235D01*
X140267264Y-103976894D01*
X140698279Y-104309964D01*
X140709276Y-104312951D01*
X140308625Y-104580657D01*
X140008395Y-105029983D01*
X139902968Y-105560000D01*
X138157032Y-105560000D01*
X138051605Y-105029983D01*
X137751375Y-104580657D01*
X137350724Y-104312951D01*
X137361721Y-104309964D01*
X137792736Y-103976894D01*
X138063481Y-103504235D01*
X138082318Y-103401185D01*
X137959656Y-103187000D01*
X136617000Y-103187000D01*
X136617000Y-103207000D01*
X136363000Y-103207000D01*
X136363000Y-103187000D01*
X135020344Y-103187000D01*
X134897682Y-103401185D01*
X134916519Y-103504235D01*
X135187264Y-103976894D01*
X135618279Y-104309964D01*
X135629276Y-104312951D01*
X135228625Y-104580657D01*
X134928395Y-105029983D01*
X134822968Y-105560000D01*
X133077032Y-105560000D01*
X132971605Y-105029983D01*
X132671375Y-104580657D01*
X132270724Y-104312951D01*
X132281721Y-104309964D01*
X132712736Y-103976894D01*
X132983481Y-103504235D01*
X133002318Y-103401185D01*
X132879656Y-103187000D01*
X131537000Y-103187000D01*
X131537000Y-103207000D01*
X131283000Y-103207000D01*
X131283000Y-103187000D01*
X129940344Y-103187000D01*
X129817682Y-103401185D01*
X129836519Y-103504235D01*
X130107264Y-103976894D01*
X130538279Y-104309964D01*
X130549276Y-104312951D01*
X130148625Y-104580657D01*
X129848395Y-105029983D01*
X129742968Y-105560000D01*
X121429938Y-105560000D01*
X121734542Y-104826433D01*
X121735457Y-103778166D01*
X121335147Y-102809342D01*
X121244778Y-102718815D01*
X129817682Y-102718815D01*
X129940344Y-102933000D01*
X131283000Y-102933000D01*
X131283000Y-101828132D01*
X131537000Y-101828132D01*
X131537000Y-102933000D01*
X132879656Y-102933000D01*
X133002318Y-102718815D01*
X134897682Y-102718815D01*
X135020344Y-102933000D01*
X136363000Y-102933000D01*
X136363000Y-101828132D01*
X136617000Y-101828132D01*
X136617000Y-102933000D01*
X137959656Y-102933000D01*
X138082318Y-102718815D01*
X139977682Y-102718815D01*
X140100344Y-102933000D01*
X141443000Y-102933000D01*
X141443000Y-101828132D01*
X141697000Y-101828132D01*
X141697000Y-102933000D01*
X143039656Y-102933000D01*
X143162318Y-102718815D01*
X145057682Y-102718815D01*
X145180344Y-102933000D01*
X146523000Y-102933000D01*
X146523000Y-101828132D01*
X146777000Y-101828132D01*
X146777000Y-102933000D01*
X148119656Y-102933000D01*
X148242318Y-102718815D01*
X150137682Y-102718815D01*
X150260344Y-102933000D01*
X151603000Y-102933000D01*
X151603000Y-101828132D01*
X151857000Y-101828132D01*
X151857000Y-102933000D01*
X153199656Y-102933000D01*
X153322318Y-102718815D01*
X155217682Y-102718815D01*
X155340344Y-102933000D01*
X156683000Y-102933000D01*
X156683000Y-101828132D01*
X156937000Y-101828132D01*
X156937000Y-102933000D01*
X158279656Y-102933000D01*
X158402318Y-102718815D01*
X158383481Y-102615765D01*
X158369745Y-102591785D01*
X160396801Y-102591785D01*
X160559390Y-102773000D01*
X161423000Y-102773000D01*
X161423000Y-102630866D01*
X161657000Y-102630866D01*
X161657000Y-103169134D01*
X161677000Y-103269680D01*
X161677000Y-104118022D01*
X161853134Y-104244071D01*
X161930136Y-104232757D01*
X162166202Y-104093904D01*
X162362593Y-104225128D01*
X162800000Y-104312134D01*
X163237407Y-104225128D01*
X163608223Y-103977357D01*
X163780692Y-103719238D01*
X165999483Y-103719238D01*
X166700640Y-104420395D01*
X167401797Y-103719238D01*
X170998203Y-103719238D01*
X171699360Y-104420395D01*
X172400517Y-103719238D01*
X172347939Y-103491243D01*
X171874266Y-103327442D01*
X171373965Y-103357376D01*
X171050781Y-103491243D01*
X170998203Y-103719238D01*
X167401797Y-103719238D01*
X167349219Y-103491243D01*
X166875546Y-103327442D01*
X166375245Y-103357376D01*
X166052061Y-103491243D01*
X165999483Y-103719238D01*
X163780692Y-103719238D01*
X163855994Y-103606541D01*
X163943000Y-103169134D01*
X163943000Y-102962061D01*
X164817404Y-102962061D01*
X164900748Y-103215957D01*
X165465180Y-103421599D01*
X166065344Y-103395589D01*
X166499012Y-103215957D01*
X166582356Y-102962061D01*
X171817644Y-102962061D01*
X171900988Y-103215957D01*
X172465420Y-103421599D01*
X173065584Y-103395589D01*
X173499252Y-103215957D01*
X173582596Y-102962061D01*
X172700120Y-102079585D01*
X171817644Y-102962061D01*
X166582356Y-102962061D01*
X165699880Y-102079585D01*
X164817404Y-102962061D01*
X163943000Y-102962061D01*
X163943000Y-102630866D01*
X163855994Y-102193459D01*
X163608223Y-101822643D01*
X163372713Y-101665280D01*
X164178261Y-101665280D01*
X164204271Y-102265444D01*
X164383903Y-102699112D01*
X164637799Y-102782456D01*
X165520275Y-101899980D01*
X165879485Y-101899980D01*
X166761961Y-102782456D01*
X167015857Y-102699112D01*
X167221499Y-102134680D01*
X167201157Y-101665280D01*
X171178501Y-101665280D01*
X171204511Y-102265444D01*
X171384143Y-102699112D01*
X171638039Y-102782456D01*
X172520515Y-101899980D01*
X171638039Y-101017504D01*
X171384143Y-101100848D01*
X171178501Y-101665280D01*
X167201157Y-101665280D01*
X167195489Y-101534516D01*
X167015857Y-101100848D01*
X166761961Y-101017504D01*
X165879485Y-101899980D01*
X165520275Y-101899980D01*
X164637799Y-101017504D01*
X164383903Y-101100848D01*
X164178261Y-101665280D01*
X163372713Y-101665280D01*
X163237407Y-101574872D01*
X162800000Y-101487866D01*
X162362593Y-101574872D01*
X162166202Y-101706096D01*
X161930136Y-101567243D01*
X161853134Y-101555929D01*
X161677000Y-101681978D01*
X161677000Y-102530320D01*
X161657000Y-102630866D01*
X161423000Y-102630866D01*
X161423000Y-101681978D01*
X161246866Y-101555929D01*
X161169864Y-101567243D01*
X160781386Y-101795744D01*
X160509922Y-102155515D01*
X160396801Y-102591785D01*
X158369745Y-102591785D01*
X158112736Y-102143106D01*
X157681721Y-101810036D01*
X157156055Y-101667261D01*
X156937000Y-101828132D01*
X156683000Y-101828132D01*
X156463945Y-101667261D01*
X155938279Y-101810036D01*
X155507264Y-102143106D01*
X155236519Y-102615765D01*
X155217682Y-102718815D01*
X153322318Y-102718815D01*
X153303481Y-102615765D01*
X153032736Y-102143106D01*
X152601721Y-101810036D01*
X152076055Y-101667261D01*
X151857000Y-101828132D01*
X151603000Y-101828132D01*
X151383945Y-101667261D01*
X150858279Y-101810036D01*
X150427264Y-102143106D01*
X150156519Y-102615765D01*
X150137682Y-102718815D01*
X148242318Y-102718815D01*
X148223481Y-102615765D01*
X147952736Y-102143106D01*
X147521721Y-101810036D01*
X146996055Y-101667261D01*
X146777000Y-101828132D01*
X146523000Y-101828132D01*
X146303945Y-101667261D01*
X145778279Y-101810036D01*
X145347264Y-102143106D01*
X145076519Y-102615765D01*
X145057682Y-102718815D01*
X143162318Y-102718815D01*
X143143481Y-102615765D01*
X142872736Y-102143106D01*
X142441721Y-101810036D01*
X141916055Y-101667261D01*
X141697000Y-101828132D01*
X141443000Y-101828132D01*
X141223945Y-101667261D01*
X140698279Y-101810036D01*
X140267264Y-102143106D01*
X139996519Y-102615765D01*
X139977682Y-102718815D01*
X138082318Y-102718815D01*
X138063481Y-102615765D01*
X137792736Y-102143106D01*
X137361721Y-101810036D01*
X136836055Y-101667261D01*
X136617000Y-101828132D01*
X136363000Y-101828132D01*
X136143945Y-101667261D01*
X135618279Y-101810036D01*
X135187264Y-102143106D01*
X134916519Y-102615765D01*
X134897682Y-102718815D01*
X133002318Y-102718815D01*
X132983481Y-102615765D01*
X132712736Y-102143106D01*
X132281721Y-101810036D01*
X131756055Y-101667261D01*
X131537000Y-101828132D01*
X131283000Y-101828132D01*
X131063945Y-101667261D01*
X130538279Y-101810036D01*
X130107264Y-102143106D01*
X129836519Y-102615765D01*
X129817682Y-102718815D01*
X121244778Y-102718815D01*
X120594557Y-102067458D01*
X119626433Y-101665458D01*
X118578166Y-101664543D01*
X117609342Y-102064853D01*
X116867458Y-102805443D01*
X116599838Y-103449943D01*
X116335147Y-102809342D01*
X115594557Y-102067458D01*
X114626433Y-101665458D01*
X113578166Y-101664543D01*
X112609342Y-102064853D01*
X111867458Y-102805443D01*
X111465458Y-103773567D01*
X111464543Y-104821834D01*
X105258554Y-104821834D01*
X105444357Y-104636355D01*
X105884498Y-103576380D01*
X105885499Y-102428656D01*
X105447210Y-101367914D01*
X104790443Y-100710000D01*
X164859388Y-100710000D01*
X164817404Y-100837899D01*
G36*
X161864838Y-109485167D02*
X162006883Y-109828943D01*
X162065000Y-109887162D01*
X162065000Y-117495553D01*
X162050535Y-117510019D01*
X161993117Y-117371057D01*
X161730327Y-117107808D01*
X161386799Y-116965162D01*
X161014833Y-116964838D01*
X160671057Y-117106883D01*
X160407808Y-117369673D01*
X160265162Y-117713201D01*
X160265090Y-117795463D01*
X159395554Y-118665000D01*
X152357284Y-118665000D01*
X152492192Y-118530327D01*
X152634838Y-118186799D01*
X152635162Y-117814833D01*
X152493117Y-117471057D01*
X152435000Y-117412838D01*
X152435000Y-116787245D01*
X152592192Y-116630327D01*
X152734838Y-116286799D01*
X152735162Y-115914833D01*
X152625641Y-115649772D01*
X152734838Y-115386799D01*
X152735162Y-115014833D01*
X152593117Y-114671057D01*
X152330327Y-114407808D01*
X152311903Y-114400158D01*
X152328943Y-114393117D01*
X152425618Y-114296611D01*
X152431386Y-114304256D01*
X152819864Y-114532757D01*
X152896866Y-114544071D01*
X153073000Y-114418022D01*
X153073000Y-113327000D01*
X153053000Y-113327000D01*
X153053000Y-113073000D01*
X153073000Y-113073000D01*
X153073000Y-113053000D01*
X153307000Y-113053000D01*
X153307000Y-113469134D01*
X153327000Y-113569680D01*
X153327000Y-114418022D01*
X153503134Y-114544071D01*
X153580136Y-114532757D01*
X153816202Y-114393904D01*
X154012593Y-114525128D01*
X154450000Y-114612134D01*
X154887407Y-114525128D01*
X155075000Y-114399783D01*
X155262593Y-114525128D01*
X155700000Y-114612134D01*
X156137407Y-114525128D01*
X156325000Y-114399783D01*
X156512593Y-114525128D01*
X156950000Y-114612134D01*
X157387407Y-114525128D01*
X157575000Y-114399783D01*
X157762593Y-114525128D01*
X158200000Y-114612134D01*
X158637407Y-114525128D01*
X158825000Y-114399783D01*
X159012593Y-114525128D01*
X159450000Y-114612134D01*
X159887407Y-114525128D01*
X160075000Y-114399783D01*
X160262593Y-114525128D01*
X160700000Y-114612134D01*
X161137407Y-114525128D01*
X161508223Y-114277357D01*
X161755994Y-113906541D01*
X161843000Y-113469134D01*
X161843000Y-112930866D01*
X161755994Y-112493459D01*
X161508223Y-112122643D01*
X161137407Y-111874872D01*
X160700000Y-111787866D01*
X160262593Y-111874872D01*
X160075000Y-112000217D01*
X159887407Y-111874872D01*
X159450000Y-111787866D01*
X159012593Y-111874872D01*
X158825000Y-112000217D01*
X158637407Y-111874872D01*
X158200000Y-111787866D01*
X157762593Y-111874872D01*
X157575000Y-112000217D01*
X157387407Y-111874872D01*
X156950000Y-111787866D01*
X156512593Y-111874872D01*
X156325000Y-112000217D01*
X156137407Y-111874872D01*
X156129335Y-111873266D01*
X156246431Y-111701890D01*
X156249851Y-111685000D01*
X158399995Y-111685000D01*
X158400000Y-111685001D01*
X158682484Y-111628810D01*
X158738675Y-111617633D01*
X159025790Y-111425790D01*
X161266579Y-109185000D01*
X161865099Y-109185000D01*
X161864838Y-109485167D01*
X161864838Y-109485167D01*
G37*
X161864838Y-109485167D02*
X162006883Y-109828943D01*
X162065000Y-109887162D01*
X162065000Y-117495553D01*
X162050535Y-117510019D01*
X161993117Y-117371057D01*
X161730327Y-117107808D01*
X161386799Y-116965162D01*
X161014833Y-116964838D01*
X160671057Y-117106883D01*
X160407808Y-117369673D01*
X160265162Y-117713201D01*
X160265090Y-117795463D01*
X159395554Y-118665000D01*
X152357284Y-118665000D01*
X152492192Y-118530327D01*
X152634838Y-118186799D01*
X152635162Y-117814833D01*
X152493117Y-117471057D01*
X152435000Y-117412838D01*
X152435000Y-116787245D01*
X152592192Y-116630327D01*
X152734838Y-116286799D01*
X152735162Y-115914833D01*
X152625641Y-115649772D01*
X152734838Y-115386799D01*
X152735162Y-115014833D01*
X152593117Y-114671057D01*
X152330327Y-114407808D01*
X152311903Y-114400158D01*
X152328943Y-114393117D01*
X152425618Y-114296611D01*
X152431386Y-114304256D01*
X152819864Y-114532757D01*
X152896866Y-114544071D01*
X153073000Y-114418022D01*
X153073000Y-113327000D01*
X153053000Y-113327000D01*
X153053000Y-113073000D01*
X153073000Y-113073000D01*
X153073000Y-113053000D01*
X153307000Y-113053000D01*
X153307000Y-113469134D01*
X153327000Y-113569680D01*
X153327000Y-114418022D01*
X153503134Y-114544071D01*
X153580136Y-114532757D01*
X153816202Y-114393904D01*
X154012593Y-114525128D01*
X154450000Y-114612134D01*
X154887407Y-114525128D01*
X155075000Y-114399783D01*
X155262593Y-114525128D01*
X155700000Y-114612134D01*
X156137407Y-114525128D01*
X156325000Y-114399783D01*
X156512593Y-114525128D01*
X156950000Y-114612134D01*
X157387407Y-114525128D01*
X157575000Y-114399783D01*
X157762593Y-114525128D01*
X158200000Y-114612134D01*
X158637407Y-114525128D01*
X158825000Y-114399783D01*
X159012593Y-114525128D01*
X159450000Y-114612134D01*
X159887407Y-114525128D01*
X160075000Y-114399783D01*
X160262593Y-114525128D01*
X160700000Y-114612134D01*
X161137407Y-114525128D01*
X161508223Y-114277357D01*
X161755994Y-113906541D01*
X161843000Y-113469134D01*
X161843000Y-112930866D01*
X161755994Y-112493459D01*
X161508223Y-112122643D01*
X161137407Y-111874872D01*
X160700000Y-111787866D01*
X160262593Y-111874872D01*
X160075000Y-112000217D01*
X159887407Y-111874872D01*
X159450000Y-111787866D01*
X159012593Y-111874872D01*
X158825000Y-112000217D01*
X158637407Y-111874872D01*
X158200000Y-111787866D01*
X157762593Y-111874872D01*
X157575000Y-112000217D01*
X157387407Y-111874872D01*
X156950000Y-111787866D01*
X156512593Y-111874872D01*
X156325000Y-112000217D01*
X156137407Y-111874872D01*
X156129335Y-111873266D01*
X156246431Y-111701890D01*
X156249851Y-111685000D01*
X158399995Y-111685000D01*
X158400000Y-111685001D01*
X158682484Y-111628810D01*
X158738675Y-111617633D01*
X159025790Y-111425790D01*
X161266579Y-109185000D01*
X161865099Y-109185000D01*
X161864838Y-109485167D01*
M02*
