G04 #@! TF.FileFunction,Paste,Top*
%FSLAX46Y46*%
G04 Gerber Fmt 4.6, Leading zero omitted, Abs format (unit mm)*
G04 Created by KiCad (PCBNEW 4.0.1-3.201512221402+6198~38~ubuntu15.04.1-stable) date Sat 23 Jan 2016 02:08:57 PM EST*
%MOMM*%
G01*
G04 APERTURE LIST*
%ADD10C,0.100000*%
%ADD11R,4.700000X1.100000*%
%ADD12R,0.200000X0.450000*%
%ADD13R,0.450000X0.200000*%
%ADD14R,5.500000X4.500000*%
%ADD15R,0.650000X0.700000*%
%ADD16R,0.700000X0.650000*%
%ADD17R,0.298780X1.248740*%
%ADD18R,0.700100X0.700100*%
%ADD19R,2.948000X1.551000*%
%ADD20R,5.996000X5.996000*%
%ADD21R,1.551000X2.948000*%
%ADD22R,0.400000X0.800000*%
%ADD23R,0.800000X0.400000*%
%ADD24R,0.700100X1.601800*%
%ADD25R,0.960000X0.550000*%
%ADD26R,0.400000X0.900000*%
%ADD27R,1.799920X2.300300*%
%ADD28R,1.500200X2.099640*%
G04 APERTURE END LIST*
D10*
G36*
X144550000Y-121200001D02*
X144550000Y-121199999D01*
X145450000Y-120300001D01*
X145450000Y-122099999D01*
X144550000Y-121200001D01*
X144550000Y-121200001D01*
G37*
D11*
X147700000Y-121600000D03*
D12*
X144550000Y-122750000D03*
D13*
X150650000Y-122150000D03*
D12*
X150050000Y-116050000D03*
D13*
X143950000Y-116650000D03*
D14*
X147300000Y-118900000D03*
D12*
X145050000Y-122750000D03*
X145550000Y-122750000D03*
X146050000Y-122750000D03*
X146550000Y-122750000D03*
X147050000Y-122750000D03*
X147550000Y-122750000D03*
X148050000Y-122750000D03*
X148550000Y-122750000D03*
X149050000Y-122750000D03*
X149550000Y-122750000D03*
X150050000Y-122750000D03*
D13*
X150650000Y-121650000D03*
X150650000Y-121150000D03*
X150650000Y-120650000D03*
X150650000Y-120150000D03*
X150650000Y-119650000D03*
X150650000Y-119150000D03*
X150650000Y-118650000D03*
X150650000Y-118150000D03*
X150650000Y-117650000D03*
X150650000Y-117150000D03*
X150650000Y-116650000D03*
D12*
X149550000Y-116050000D03*
X149050000Y-116050000D03*
X148550000Y-116050000D03*
X148050000Y-116050000D03*
X147550000Y-116050000D03*
X147050000Y-116050000D03*
X146550000Y-116050000D03*
X146050000Y-116050000D03*
X145550000Y-116050000D03*
X145050000Y-116050000D03*
X144550000Y-116050000D03*
D13*
X143950000Y-117150000D03*
X143950000Y-117650000D03*
X143950000Y-118150000D03*
X143950000Y-118650000D03*
X143950000Y-119150000D03*
X143950000Y-119650000D03*
X143950000Y-120150000D03*
X143950000Y-120650000D03*
X143950000Y-121150000D03*
X143950000Y-121650000D03*
X143950000Y-122150000D03*
D15*
X138050000Y-132750000D03*
X138050000Y-134250000D03*
X133000000Y-132750000D03*
X133000000Y-134250000D03*
D16*
X154750000Y-117700000D03*
X153250000Y-117700000D03*
X147950000Y-126500000D03*
X146450000Y-126500000D03*
D15*
X141900000Y-121450000D03*
X141900000Y-122950000D03*
D16*
X149350000Y-126500000D03*
X150850000Y-126500000D03*
X144750000Y-114000000D03*
X143250000Y-114000000D03*
D15*
X142000000Y-131150000D03*
X142000000Y-129650000D03*
X143200000Y-131150000D03*
X143200000Y-129650000D03*
X146200000Y-133150000D03*
X146200000Y-131650000D03*
X147500000Y-133150000D03*
X147500000Y-131650000D03*
D17*
X170500480Y-104600000D03*
X169850240Y-104600000D03*
X169200000Y-104600000D03*
X168549760Y-104600000D03*
X167899520Y-104600000D03*
D18*
X126150760Y-123700000D03*
X126150760Y-121800000D03*
X124151780Y-122750000D03*
D19*
X127600000Y-133486000D03*
D20*
X121250000Y-131200000D03*
D19*
X127600000Y-128914000D03*
D21*
X110686000Y-119600000D03*
D20*
X108400000Y-125950000D03*
D21*
X106114000Y-119600000D03*
D22*
X129000000Y-121850000D03*
X127500000Y-121850000D03*
X127500000Y-123650000D03*
X129000000Y-123650000D03*
X169700000Y-135450000D03*
X171200000Y-135450000D03*
X167100000Y-135450000D03*
X168600000Y-135450000D03*
X164600000Y-135450000D03*
X166100000Y-135450000D03*
X128850000Y-131300000D03*
X127350000Y-131300000D03*
X171200000Y-134150000D03*
X169700000Y-134150000D03*
X168600000Y-134150000D03*
X167100000Y-134150000D03*
X166100000Y-134150000D03*
X164600000Y-134150000D03*
D23*
X130400000Y-127850000D03*
X130400000Y-129350000D03*
X140500000Y-114350000D03*
X140500000Y-112850000D03*
D22*
X161950000Y-120500000D03*
X163450000Y-120500000D03*
X161950000Y-119200000D03*
X163450000Y-119200000D03*
X161950000Y-117900000D03*
X163450000Y-117900000D03*
X153150000Y-119000000D03*
X154650000Y-119000000D03*
D23*
X174800000Y-109550000D03*
X174800000Y-108050000D03*
X173400000Y-109550000D03*
X173400000Y-108050000D03*
X169200000Y-110150000D03*
X169200000Y-108650000D03*
X167900000Y-110150000D03*
X167900000Y-108650000D03*
X166600000Y-110150000D03*
X166600000Y-108650000D03*
X142000000Y-118450000D03*
X142000000Y-116950000D03*
D22*
X147950000Y-111300000D03*
X149450000Y-111300000D03*
D23*
X140000000Y-122500000D03*
X140000000Y-124000000D03*
X140000000Y-121500000D03*
X140000000Y-120000000D03*
D24*
X138500000Y-123750000D03*
X135096400Y-123750000D03*
X138500000Y-120200000D03*
X135096400Y-120200000D03*
D25*
X101400000Y-119050000D03*
X101400000Y-120000000D03*
X101400000Y-120950000D03*
X103600000Y-120950000D03*
X103600000Y-119050000D03*
X103600000Y-120000000D03*
D26*
X143250000Y-128200000D03*
X142150000Y-128200000D03*
D27*
X149049780Y-129200000D03*
X144950220Y-129200000D03*
D16*
X154750000Y-116500000D03*
X153250000Y-116500000D03*
D28*
X102500000Y-126748860D03*
X102500000Y-129751140D03*
D18*
X136450000Y-132699240D03*
X134550000Y-132699240D03*
X135500000Y-134698220D03*
M02*
